<?xml version="1.0" encoding="utf-8" standalone="no"?>
<!DOCTYPE svg PUBLIC "-//W3C//DTD SVG 1.1//EN"
  "http://www.w3.org/Graphics/SVG/1.1/DTD/svg11.dtd">
<!-- Created with matplotlib (https://matplotlib.org/) -->
<svg height="144pt" version="1.1" viewBox="0 0 576 144" width="576pt" xmlns="http://www.w3.org/2000/svg" xmlns:xlink="http://www.w3.org/1999/xlink">
 <defs>
  <style type="text/css">
*{stroke-linecap:butt;stroke-linejoin:round;}
  </style>
 </defs>
 <g id="figure_1">
  <g id="patch_1">
   <path d="M 0 144 
L 576 144 
L 576 0 
L 0 0 
z
" style="fill:#ffffff;"/>
  </g>
  <g id="axes_1">
   <g id="patch_2">
    <path d="M 24.291739 128.198261 
L 135.688261 128.198261 
L 135.688261 16.801739 
L 24.291739 16.801739 
z
" style="fill:#ffffff;"/>
   </g>
   <g id="matplotlib.axis_1">
    <g id="text_1">
     <!-- Dim. 1 -->
     <defs>
      <path d="M 19.671875 64.796875 
L 19.671875 8.109375 
L 31.59375 8.109375 
Q 46.6875 8.109375 53.6875 14.9375 
Q 60.6875 21.78125 60.6875 36.53125 
Q 60.6875 51.171875 53.6875 57.984375 
Q 46.6875 64.796875 31.59375 64.796875 
z
M 9.8125 72.90625 
L 30.078125 72.90625 
Q 51.265625 72.90625 61.171875 64.09375 
Q 71.09375 55.28125 71.09375 36.53125 
Q 71.09375 17.671875 61.125 8.828125 
Q 51.171875 0 30.078125 0 
L 9.8125 0 
z
" id="DejaVuSans-68"/>
      <path d="M 9.421875 54.6875 
L 18.40625 54.6875 
L 18.40625 0 
L 9.421875 0 
z
M 9.421875 75.984375 
L 18.40625 75.984375 
L 18.40625 64.59375 
L 9.421875 64.59375 
z
" id="DejaVuSans-105"/>
      <path d="M 52 44.1875 
Q 55.375 50.25 60.0625 53.125 
Q 64.75 56 71.09375 56 
Q 79.640625 56 84.28125 50.015625 
Q 88.921875 44.046875 88.921875 33.015625 
L 88.921875 0 
L 79.890625 0 
L 79.890625 32.71875 
Q 79.890625 40.578125 77.09375 44.375 
Q 74.3125 48.1875 68.609375 48.1875 
Q 61.625 48.1875 57.5625 43.546875 
Q 53.515625 38.921875 53.515625 30.90625 
L 53.515625 0 
L 44.484375 0 
L 44.484375 32.71875 
Q 44.484375 40.625 41.703125 44.40625 
Q 38.921875 48.1875 33.109375 48.1875 
Q 26.21875 48.1875 22.15625 43.53125 
Q 18.109375 38.875 18.109375 30.90625 
L 18.109375 0 
L 9.078125 0 
L 9.078125 54.6875 
L 18.109375 54.6875 
L 18.109375 46.1875 
Q 21.1875 51.21875 25.484375 53.609375 
Q 29.78125 56 35.6875 56 
Q 41.65625 56 45.828125 52.96875 
Q 50 49.953125 52 44.1875 
z
" id="DejaVuSans-109"/>
      <path d="M 10.6875 12.40625 
L 21 12.40625 
L 21 0 
L 10.6875 0 
z
" id="DejaVuSans-46"/>
      <path id="DejaVuSans-32"/>
      <path d="M 12.40625 8.296875 
L 28.515625 8.296875 
L 28.515625 63.921875 
L 10.984375 60.40625 
L 10.984375 69.390625 
L 28.421875 72.90625 
L 38.28125 72.90625 
L 38.28125 8.296875 
L 54.390625 8.296875 
L 54.390625 0 
L 12.40625 0 
z
" id="DejaVuSans-49"/>
     </defs>
     <g transform="translate(66.815 138.277011)scale(0.08 -0.08)">
      <use xlink:href="#DejaVuSans-68"/>
      <use x="77.001953" xlink:href="#DejaVuSans-105"/>
      <use x="104.785156" xlink:href="#DejaVuSans-109"/>
      <use x="202.197266" xlink:href="#DejaVuSans-46"/>
      <use x="233.984375" xlink:href="#DejaVuSans-32"/>
      <use x="265.771484" xlink:href="#DejaVuSans-49"/>
     </g>
    </g>
   </g>
   <g id="matplotlib.axis_2">
    <g id="text_2">
     <!-- Dim. 2 -->
     <defs>
      <path d="M 19.1875 8.296875 
L 53.609375 8.296875 
L 53.609375 0 
L 7.328125 0 
L 7.328125 8.296875 
Q 12.9375 14.109375 22.625 23.890625 
Q 32.328125 33.6875 34.8125 36.53125 
Q 39.546875 41.84375 41.421875 45.53125 
Q 43.3125 49.21875 43.3125 52.78125 
Q 43.3125 58.59375 39.234375 62.25 
Q 35.15625 65.921875 28.609375 65.921875 
Q 23.96875 65.921875 18.8125 64.3125 
Q 13.671875 62.703125 7.8125 59.421875 
L 7.8125 69.390625 
Q 13.765625 71.78125 18.9375 73 
Q 24.125 74.21875 28.421875 74.21875 
Q 39.75 74.21875 46.484375 68.546875 
Q 53.21875 62.890625 53.21875 53.421875 
Q 53.21875 48.921875 51.53125 44.890625 
Q 49.859375 40.875 45.40625 35.40625 
Q 44.1875 33.984375 37.640625 27.21875 
Q 31.109375 20.453125 19.1875 8.296875 
z
" id="DejaVuSans-50"/>
     </defs>
     <g transform="translate(18.627989 85.675)rotate(-90)scale(0.08 -0.08)">
      <use xlink:href="#DejaVuSans-68"/>
      <use x="77.001953" xlink:href="#DejaVuSans-105"/>
      <use x="104.785156" xlink:href="#DejaVuSans-109"/>
      <use x="202.197266" xlink:href="#DejaVuSans-46"/>
      <use x="233.984375" xlink:href="#DejaVuSans-32"/>
      <use x="265.771484" xlink:href="#DejaVuSans-50"/>
     </g>
    </g>
   </g>
   <g id="line2d_1">
    <path clip-path="url(#pe4283ff4b3)" d="M 43.156108 94.189127 
L 42.620188 93.618744 
L 42.139547 92.995617 
L 41.71612 92.322254 
L 41.351614 91.601367 
L 41.047495 90.835859 
L 40.804988 90.028812 
L 40.62507 89.183476 
L 40.508465 88.303255 
L 40.455642 87.391693 
L 40.466815 86.45246 
L 40.541937 85.489339 
L 40.680708 84.506208 
L 40.882568 83.507026 
L 41.146704 82.495815 
L 41.472052 81.476647 
L 41.857303 80.453627 
L 42.300905 79.430874 
L 42.801073 78.412506 
L 43.355791 77.402624 
L 43.962827 76.405294 
L 44.619736 75.424531 
L 45.323872 74.464286 
L 46.072402 73.528425 
L 46.86231 72.620715 
L 47.690416 71.744813 
L 48.553385 70.904245 
L 49.447743 70.102396 
L 50.369888 69.342494 
L 51.316107 68.627599 
L 52.28259 67.960591 
L 53.265445 67.344154 
L 54.260715 66.780772 
L 55.264393 66.272712 
L 56.272436 65.82202 
L 57.280785 65.430511 
L 58.285381 65.099762 
L 59.282178 64.831104 
L 60.267163 64.62562 
L 61.236368 64.484136 
L 62.185893 64.407222 
L 63.111913 64.395188 
L 64.010699 64.448083 
L 64.878632 64.565693 
L 65.712218 64.747545 
L 66.5081 64.992907 
L 67.263073 65.30079 
L 67.974098 65.669955 
L 68.63831 66.098916 
L 69.253036 66.585944 
L 69.815801 67.12908 
L 70.324338 67.726136 
L 70.776599 68.374707 
L 71.170764 69.072183 
L 71.505245 69.815755 
L 71.778695 70.602428 
L 71.990014 71.429036 
L 72.138351 72.292249 
L 72.223107 73.188592 
L 72.243943 74.114456 
L 72.200774 75.066111 
L 72.093773 76.039728 
L 71.923372 77.031384 
L 71.690257 78.037087 
L 71.395366 79.052787 
L 71.039888 80.074395 
L 70.625252 81.097797 
L 70.15313 82.118872 
L 69.625421 83.133508 
L 69.044251 84.13762 
L 68.411961 85.127164 
L 67.731095 86.098157 
L 67.004396 87.046688 
L 66.23479 87.968937 
L 65.425376 88.861192 
L 64.579412 89.71986 
L 63.700306 90.541482 
L 62.791597 91.322751 
L 61.856945 92.060521 
L 60.900112 92.75182 
L 59.924952 93.393866 
L 58.935391 93.984073 
L 57.935414 94.520064 
L 56.929047 94.999681 
L 55.920343 95.420994 
L 54.913363 95.782304 
L 53.912162 96.082159 
L 52.920773 96.319349 
L 51.943185 96.492921 
L 50.983337 96.602175 
L 50.045092 96.646671 
L 49.13223 96.62623 
L 48.248425 96.540935 
L 47.397237 96.391129 
L 46.582092 96.177414 
L 45.806274 95.900652 
L 45.072906 95.561958 
L 44.384941 95.162694 
L 43.74515 94.704468 
L 43.156108 94.189127 
" style="fill:none;stroke:#1f77b4;stroke-linecap:square;stroke-width:2;"/>
   </g>
   <g id="line2d_2">
    <path clip-path="url(#pe4283ff4b3)" d="M 58.434611 109.590333 
L 57.904984 109.013386 
L 57.430685 108.384971 
L 57.013622 107.707618 
L 56.655475 106.984054 
L 56.357688 106.217194 
L 56.121457 105.410124 
L 55.947736 104.566095 
L 55.837223 103.688505 
L 55.790363 102.780888 
L 55.807345 101.846899 
L 55.888101 100.890298 
L 56.032305 99.914938 
L 56.239377 98.924746 
L 56.508484 97.923708 
L 56.83854 96.915857 
L 57.228218 95.905249 
L 57.675948 94.895955 
L 58.179927 93.892039 
L 58.738127 92.897542 
L 59.348299 91.91647 
L 60.007987 90.952773 
L 60.714533 90.010331 
L 61.465094 89.092939 
L 62.256646 88.204291 
L 63.086004 87.347966 
L 63.949826 86.527412 
L 64.844635 85.745932 
L 65.766827 85.006673 
L 66.71269 84.312613 
L 67.678415 83.666546 
L 68.660112 83.071073 
L 69.65383 82.528592 
L 70.655566 82.041288 
L 71.661288 81.611122 
L 72.666945 81.239827 
L 73.668487 80.928898 
L 74.661883 80.679588 
L 75.643132 80.492898 
L 76.608283 80.369583 
L 77.55345 80.310137 
L 78.474826 80.314801 
L 79.368702 80.383556 
L 80.231478 80.516125 
L 81.05968 80.711973 
L 81.849974 80.970313 
L 82.599177 81.290104 
L 83.304273 81.670058 
L 83.962422 82.108647 
L 84.570973 82.604102 
L 85.127478 83.15443 
L 85.629694 83.757415 
L 86.0756 84.410628 
L 86.463399 85.111439 
L 86.791532 85.857026 
L 87.058675 86.644388 
L 87.263754 87.470353 
L 87.405943 88.331596 
L 87.484669 89.224649 
L 87.499616 90.145916 
L 87.450722 91.091687 
L 87.338185 92.058154 
L 87.162459 93.041425 
L 86.924249 94.037542 
L 86.624517 95.042492 
L 86.264469 96.05223 
L 85.845554 97.062689 
L 85.36946 98.069802 
L 84.838102 99.069512 
L 84.253622 100.057794 
L 83.618373 101.030668 
L 82.934912 101.984218 
L 82.205991 102.914603 
L 81.434546 103.818078 
L 80.623683 104.691004 
L 79.776667 105.529866 
L 78.896908 106.331286 
L 77.98795 107.092039 
L 77.053452 107.809059 
L 76.097177 108.47946 
L 75.122975 109.100543 
L 74.13477 109.669807 
L 73.13654 110.184958 
L 72.132306 110.643925 
L 71.12611 111.044857 
L 70.122005 111.38614 
L 69.124033 111.666401 
L 68.136213 111.884511 
L 67.162523 112.039591 
L 66.206883 112.131018 
L 65.273142 112.158422 
L 64.365059 112.121695 
L 63.48629 112.020982 
L 62.640375 111.856691 
L 61.830719 111.629483 
L 61.060583 111.340271 
L 60.333067 110.990222 
L 59.651102 110.580745 
L 59.017433 110.113488 
L 58.434611 109.590333 
" style="fill:none;stroke:#ff7f0e;stroke-linecap:square;stroke-width:2;"/>
   </g>
   <g id="line2d_3">
    <path clip-path="url(#pe4283ff4b3)" d="M 64.967846 76.560961 
L 64.449605 75.990917 
L 63.987162 75.369258 
L 63.58238 74.698486 
L 63.23689 73.981303 
L 62.952081 73.220596 
L 62.729101 72.419429 
L 62.568849 71.581028 
L 62.471968 70.708768 
L 62.438849 69.806162 
L 62.469626 68.876844 
L 62.564175 67.924557 
L 62.722114 66.953135 
L 62.942809 65.966489 
L 63.225369 64.968593 
L 63.568658 63.963464 
L 63.971294 62.95515 
L 64.431654 61.94771 
L 64.947885 60.945203 
L 65.517909 59.951664 
L 66.139431 58.971093 
L 66.809946 58.00744 
L 67.526757 57.064585 
L 68.286976 56.146323 
L 69.087542 55.256354 
L 69.925231 54.39826 
L 70.796672 53.575496 
L 71.698353 52.791376 
L 72.626646 52.049056 
L 73.577811 51.351527 
L 74.548019 50.701596 
L 75.533364 50.101881 
L 76.529877 49.554797 
L 77.533545 49.062546 
L 78.540329 48.62711 
L 79.546173 48.250243 
L 80.547027 47.933463 
L 81.538862 47.678045 
L 82.517683 47.485017 
L 83.479549 47.355157 
L 84.420588 47.288988 
L 85.337009 47.286775 
L 86.225123 47.348529 
L 87.081353 47.474 
L 87.902253 47.662683 
L 88.684516 47.913818 
L 89.424992 48.226395 
L 90.1207 48.599153 
L 90.768839 49.030594 
L 91.366798 49.518978 
L 91.91217 50.062341 
L 92.402759 50.658492 
L 92.83659 51.305034 
L 93.211915 51.999361 
L 93.527223 52.738678 
L 93.781245 53.520008 
L 93.972958 54.340205 
L 94.10159 55.195967 
L 94.166622 56.083846 
L 94.167794 57.00027 
L 94.105099 57.941546 
L 93.978792 58.903885 
L 93.789379 59.883412 
L 93.537625 60.876183 
L 93.224543 61.8782 
L 92.851392 62.885429 
L 92.419677 63.893813 
L 91.931136 64.899293 
L 91.387734 65.897819 
L 90.791662 66.885371 
L 90.145318 67.857973 
L 89.451305 68.811707 
L 88.712418 69.742734 
L 87.931633 70.647305 
L 87.112092 71.521777 
L 86.257097 72.362629 
L 85.37009 73.166476 
L 84.454642 73.93008 
L 83.514439 74.650367 
L 82.553269 75.324437 
L 81.575 75.949574 
L 80.583572 76.523263 
L 79.582977 77.043193 
L 78.577245 77.507269 
L 77.570424 77.913625 
L 76.56657 78.260623 
L 75.569723 78.546867 
L 74.583899 78.771202 
L 73.613067 78.932728 
L 72.661135 79.030792 
L 71.731937 79.065 
L 70.829215 79.035214 
L 69.956604 78.941555 
L 69.117616 78.784399 
L 68.315632 78.564379 
L 67.553879 78.282381 
L 66.835425 77.939541 
L 66.163163 77.537239 
L 65.5398 77.077095 
L 64.967846 76.560961 
" style="fill:none;stroke:#2ca02c;stroke-linecap:square;stroke-width:2;"/>
   </g>
   <g id="patch_3">
    <path d="M 24.291739 128.198261 
L 24.291739 16.801739 
" style="fill:none;stroke:#000000;stroke-linecap:square;stroke-linejoin:miter;stroke-width:0.8;"/>
   </g>
   <g id="patch_4">
    <path d="M 24.291739 128.198261 
L 135.688261 128.198261 
" style="fill:none;stroke:#000000;stroke-linecap:square;stroke-linejoin:miter;stroke-width:0.8;"/>
   </g>
   <g id="text_3">
    <!-- Low Arousal -->
    <defs>
     <path d="M 9.8125 72.90625 
L 19.671875 72.90625 
L 19.671875 8.296875 
L 55.171875 8.296875 
L 55.171875 0 
L 9.8125 0 
z
" id="DejaVuSans-76"/>
     <path d="M 30.609375 48.390625 
Q 23.390625 48.390625 19.1875 42.75 
Q 14.984375 37.109375 14.984375 27.296875 
Q 14.984375 17.484375 19.15625 11.84375 
Q 23.34375 6.203125 30.609375 6.203125 
Q 37.796875 6.203125 41.984375 11.859375 
Q 46.1875 17.53125 46.1875 27.296875 
Q 46.1875 37.015625 41.984375 42.703125 
Q 37.796875 48.390625 30.609375 48.390625 
z
M 30.609375 56 
Q 42.328125 56 49.015625 48.375 
Q 55.71875 40.765625 55.71875 27.296875 
Q 55.71875 13.875 49.015625 6.21875 
Q 42.328125 -1.421875 30.609375 -1.421875 
Q 18.84375 -1.421875 12.171875 6.21875 
Q 5.515625 13.875 5.515625 27.296875 
Q 5.515625 40.765625 12.171875 48.375 
Q 18.84375 56 30.609375 56 
z
" id="DejaVuSans-111"/>
     <path d="M 4.203125 54.6875 
L 13.1875 54.6875 
L 24.421875 12.015625 
L 35.59375 54.6875 
L 46.1875 54.6875 
L 57.421875 12.015625 
L 68.609375 54.6875 
L 77.59375 54.6875 
L 63.28125 0 
L 52.6875 0 
L 40.921875 44.828125 
L 29.109375 0 
L 18.5 0 
z
" id="DejaVuSans-119"/>
     <path d="M 34.1875 63.1875 
L 20.796875 26.90625 
L 47.609375 26.90625 
z
M 28.609375 72.90625 
L 39.796875 72.90625 
L 67.578125 0 
L 57.328125 0 
L 50.6875 18.703125 
L 17.828125 18.703125 
L 11.1875 0 
L 0.78125 0 
z
" id="DejaVuSans-65"/>
     <path d="M 41.109375 46.296875 
Q 39.59375 47.171875 37.8125 47.578125 
Q 36.03125 48 33.890625 48 
Q 26.265625 48 22.1875 43.046875 
Q 18.109375 38.09375 18.109375 28.8125 
L 18.109375 0 
L 9.078125 0 
L 9.078125 54.6875 
L 18.109375 54.6875 
L 18.109375 46.1875 
Q 20.953125 51.171875 25.484375 53.578125 
Q 30.03125 56 36.53125 56 
Q 37.453125 56 38.578125 55.875 
Q 39.703125 55.765625 41.0625 55.515625 
z
" id="DejaVuSans-114"/>
     <path d="M 8.5 21.578125 
L 8.5 54.6875 
L 17.484375 54.6875 
L 17.484375 21.921875 
Q 17.484375 14.15625 20.5 10.265625 
Q 23.53125 6.390625 29.59375 6.390625 
Q 36.859375 6.390625 41.078125 11.03125 
Q 45.3125 15.671875 45.3125 23.6875 
L 45.3125 54.6875 
L 54.296875 54.6875 
L 54.296875 0 
L 45.3125 0 
L 45.3125 8.40625 
Q 42.046875 3.421875 37.71875 1 
Q 33.40625 -1.421875 27.6875 -1.421875 
Q 18.265625 -1.421875 13.375 4.4375 
Q 8.5 10.296875 8.5 21.578125 
z
M 31.109375 56 
z
" id="DejaVuSans-117"/>
     <path d="M 44.28125 53.078125 
L 44.28125 44.578125 
Q 40.484375 46.53125 36.375 47.5 
Q 32.28125 48.484375 27.875 48.484375 
Q 21.1875 48.484375 17.84375 46.4375 
Q 14.5 44.390625 14.5 40.28125 
Q 14.5 37.15625 16.890625 35.375 
Q 19.28125 33.59375 26.515625 31.984375 
L 29.59375 31.296875 
Q 39.15625 29.25 43.1875 25.515625 
Q 47.21875 21.78125 47.21875 15.09375 
Q 47.21875 7.46875 41.1875 3.015625 
Q 35.15625 -1.421875 24.609375 -1.421875 
Q 20.21875 -1.421875 15.453125 -0.5625 
Q 10.6875 0.296875 5.421875 2 
L 5.421875 11.28125 
Q 10.40625 8.6875 15.234375 7.390625 
Q 20.0625 6.109375 24.8125 6.109375 
Q 31.15625 6.109375 34.5625 8.28125 
Q 37.984375 10.453125 37.984375 14.40625 
Q 37.984375 18.0625 35.515625 20.015625 
Q 33.0625 21.96875 24.703125 23.78125 
L 21.578125 24.515625 
Q 13.234375 26.265625 9.515625 29.90625 
Q 5.8125 33.546875 5.8125 39.890625 
Q 5.8125 47.609375 11.28125 51.796875 
Q 16.75 56 26.8125 56 
Q 31.78125 56 36.171875 55.265625 
Q 40.578125 54.546875 44.28125 53.078125 
z
" id="DejaVuSans-115"/>
     <path d="M 34.28125 27.484375 
Q 23.390625 27.484375 19.1875 25 
Q 14.984375 22.515625 14.984375 16.5 
Q 14.984375 11.71875 18.140625 8.90625 
Q 21.296875 6.109375 26.703125 6.109375 
Q 34.1875 6.109375 38.703125 11.40625 
Q 43.21875 16.703125 43.21875 25.484375 
L 43.21875 27.484375 
z
M 52.203125 31.203125 
L 52.203125 0 
L 43.21875 0 
L 43.21875 8.296875 
Q 40.140625 3.328125 35.546875 0.953125 
Q 30.953125 -1.421875 24.3125 -1.421875 
Q 15.921875 -1.421875 10.953125 3.296875 
Q 6 8.015625 6 15.921875 
Q 6 25.140625 12.171875 29.828125 
Q 18.359375 34.515625 30.609375 34.515625 
L 43.21875 34.515625 
L 43.21875 35.40625 
Q 43.21875 41.609375 39.140625 45 
Q 35.0625 48.390625 27.6875 48.390625 
Q 23 48.390625 18.546875 47.265625 
Q 14.109375 46.140625 10.015625 43.890625 
L 10.015625 52.203125 
Q 14.9375 54.109375 19.578125 55.046875 
Q 24.21875 56 28.609375 56 
Q 40.484375 56 46.34375 49.84375 
Q 52.203125 43.703125 52.203125 31.203125 
z
" id="DejaVuSans-97"/>
     <path d="M 9.421875 75.984375 
L 18.40625 75.984375 
L 18.40625 0 
L 9.421875 0 
z
" id="DejaVuSans-108"/>
    </defs>
    <g transform="translate(50.9185 10.801739)scale(0.096 -0.096)">
     <use xlink:href="#DejaVuSans-76"/>
     <use x="55.697266" xlink:href="#DejaVuSans-111"/>
     <use x="116.878906" xlink:href="#DejaVuSans-119"/>
     <use x="198.666016" xlink:href="#DejaVuSans-32"/>
     <use x="230.453125" xlink:href="#DejaVuSans-65"/>
     <use x="298.861328" xlink:href="#DejaVuSans-114"/>
     <use x="339.943359" xlink:href="#DejaVuSans-111"/>
     <use x="401.125" xlink:href="#DejaVuSans-117"/>
     <use x="464.503906" xlink:href="#DejaVuSans-115"/>
     <use x="516.603516" xlink:href="#DejaVuSans-97"/>
     <use x="577.882812" xlink:href="#DejaVuSans-108"/>
    </g>
   </g>
   <g id="legend_1">
    <g id="patch_5">
     <path d="M 62.095761 58.429239 
L 130.088261 58.429239 
Q 131.688261 58.429239 131.688261 56.829239 
L 131.688261 22.401739 
Q 131.688261 20.801739 130.088261 20.801739 
L 62.095761 20.801739 
Q 60.495761 20.801739 60.495761 22.401739 
L 60.495761 56.829239 
Q 60.495761 58.429239 62.095761 58.429239 
z
" style="fill:#ffffff;opacity:0.8;stroke:#cccccc;stroke-linejoin:miter;"/>
    </g>
    <g id="line2d_4">
     <path d="M 63.695761 27.280489 
L 79.695761 27.280489 
" style="fill:none;stroke:#1f77b4;stroke-linecap:square;stroke-width:2;"/>
    </g>
    <g id="line2d_5"/>
    <g id="text_4">
     <!-- Stimulus 1 -->
     <defs>
      <path d="M 53.515625 70.515625 
L 53.515625 60.890625 
Q 47.90625 63.578125 42.921875 64.890625 
Q 37.9375 66.21875 33.296875 66.21875 
Q 25.25 66.21875 20.875 63.09375 
Q 16.5 59.96875 16.5 54.203125 
Q 16.5 49.359375 19.40625 46.890625 
Q 22.3125 44.4375 30.421875 42.921875 
L 36.375 41.703125 
Q 47.40625 39.59375 52.65625 34.296875 
Q 57.90625 29 57.90625 20.125 
Q 57.90625 9.515625 50.796875 4.046875 
Q 43.703125 -1.421875 29.984375 -1.421875 
Q 24.8125 -1.421875 18.96875 -0.25 
Q 13.140625 0.921875 6.890625 3.21875 
L 6.890625 13.375 
Q 12.890625 10.015625 18.65625 8.296875 
Q 24.421875 6.59375 29.984375 6.59375 
Q 38.421875 6.59375 43.015625 9.90625 
Q 47.609375 13.234375 47.609375 19.390625 
Q 47.609375 24.75 44.3125 27.78125 
Q 41.015625 30.8125 33.5 32.328125 
L 27.484375 33.5 
Q 16.453125 35.6875 11.515625 40.375 
Q 6.59375 45.0625 6.59375 53.421875 
Q 6.59375 63.09375 13.40625 68.65625 
Q 20.21875 74.21875 32.171875 74.21875 
Q 37.3125 74.21875 42.625 73.28125 
Q 47.953125 72.359375 53.515625 70.515625 
z
" id="DejaVuSans-83"/>
      <path d="M 18.3125 70.21875 
L 18.3125 54.6875 
L 36.8125 54.6875 
L 36.8125 47.703125 
L 18.3125 47.703125 
L 18.3125 18.015625 
Q 18.3125 11.328125 20.140625 9.421875 
Q 21.96875 7.515625 27.59375 7.515625 
L 36.8125 7.515625 
L 36.8125 0 
L 27.59375 0 
Q 17.1875 0 13.234375 3.875 
Q 9.28125 7.765625 9.28125 18.015625 
L 9.28125 47.703125 
L 2.6875 47.703125 
L 2.6875 54.6875 
L 9.28125 54.6875 
L 9.28125 70.21875 
z
" id="DejaVuSans-116"/>
     </defs>
     <g transform="translate(86.095761 30.080489)scale(0.08 -0.08)">
      <use xlink:href="#DejaVuSans-83"/>
      <use x="63.476562" xlink:href="#DejaVuSans-116"/>
      <use x="102.685547" xlink:href="#DejaVuSans-105"/>
      <use x="130.46875" xlink:href="#DejaVuSans-109"/>
      <use x="227.880859" xlink:href="#DejaVuSans-117"/>
      <use x="291.259766" xlink:href="#DejaVuSans-108"/>
      <use x="319.042969" xlink:href="#DejaVuSans-117"/>
      <use x="382.421875" xlink:href="#DejaVuSans-115"/>
      <use x="434.521484" xlink:href="#DejaVuSans-32"/>
      <use x="466.308594" xlink:href="#DejaVuSans-49"/>
     </g>
    </g>
    <g id="line2d_6">
     <path d="M 63.695761 39.022989 
L 79.695761 39.022989 
" style="fill:none;stroke:#ff7f0e;stroke-linecap:square;stroke-width:2;"/>
    </g>
    <g id="line2d_7"/>
    <g id="text_5">
     <!-- Stimulus 2 -->
     <g transform="translate(86.095761 41.822989)scale(0.08 -0.08)">
      <use xlink:href="#DejaVuSans-83"/>
      <use x="63.476562" xlink:href="#DejaVuSans-116"/>
      <use x="102.685547" xlink:href="#DejaVuSans-105"/>
      <use x="130.46875" xlink:href="#DejaVuSans-109"/>
      <use x="227.880859" xlink:href="#DejaVuSans-117"/>
      <use x="291.259766" xlink:href="#DejaVuSans-108"/>
      <use x="319.042969" xlink:href="#DejaVuSans-117"/>
      <use x="382.421875" xlink:href="#DejaVuSans-115"/>
      <use x="434.521484" xlink:href="#DejaVuSans-32"/>
      <use x="466.308594" xlink:href="#DejaVuSans-50"/>
     </g>
    </g>
    <g id="line2d_8">
     <path d="M 63.695761 50.765489 
L 79.695761 50.765489 
" style="fill:none;stroke:#2ca02c;stroke-linecap:square;stroke-width:2;"/>
    </g>
    <g id="line2d_9"/>
    <g id="text_6">
     <!-- Stimulus 3 -->
     <defs>
      <path d="M 40.578125 39.3125 
Q 47.65625 37.796875 51.625 33 
Q 55.609375 28.21875 55.609375 21.1875 
Q 55.609375 10.40625 48.1875 4.484375 
Q 40.765625 -1.421875 27.09375 -1.421875 
Q 22.515625 -1.421875 17.65625 -0.515625 
Q 12.796875 0.390625 7.625 2.203125 
L 7.625 11.71875 
Q 11.71875 9.328125 16.59375 8.109375 
Q 21.484375 6.890625 26.8125 6.890625 
Q 36.078125 6.890625 40.9375 10.546875 
Q 45.796875 14.203125 45.796875 21.1875 
Q 45.796875 27.640625 41.28125 31.265625 
Q 36.765625 34.90625 28.71875 34.90625 
L 20.21875 34.90625 
L 20.21875 43.015625 
L 29.109375 43.015625 
Q 36.375 43.015625 40.234375 45.921875 
Q 44.09375 48.828125 44.09375 54.296875 
Q 44.09375 59.90625 40.109375 62.90625 
Q 36.140625 65.921875 28.71875 65.921875 
Q 24.65625 65.921875 20.015625 65.03125 
Q 15.375 64.15625 9.8125 62.3125 
L 9.8125 71.09375 
Q 15.4375 72.65625 20.34375 73.4375 
Q 25.25 74.21875 29.59375 74.21875 
Q 40.828125 74.21875 47.359375 69.109375 
Q 53.90625 64.015625 53.90625 55.328125 
Q 53.90625 49.265625 50.4375 45.09375 
Q 46.96875 40.921875 40.578125 39.3125 
z
" id="DejaVuSans-51"/>
     </defs>
     <g transform="translate(86.095761 53.565489)scale(0.08 -0.08)">
      <use xlink:href="#DejaVuSans-83"/>
      <use x="63.476562" xlink:href="#DejaVuSans-116"/>
      <use x="102.685547" xlink:href="#DejaVuSans-105"/>
      <use x="130.46875" xlink:href="#DejaVuSans-109"/>
      <use x="227.880859" xlink:href="#DejaVuSans-117"/>
      <use x="291.259766" xlink:href="#DejaVuSans-108"/>
      <use x="319.042969" xlink:href="#DejaVuSans-117"/>
      <use x="382.421875" xlink:href="#DejaVuSans-115"/>
      <use x="434.521484" xlink:href="#DejaVuSans-32"/>
      <use x="466.308594" xlink:href="#DejaVuSans-51"/>
     </g>
    </g>
   </g>
  </g>
  <g id="axes_2">
   <g id="patch_6">
    <path d="M 166.131739 128.198261 
L 277.528261 128.198261 
L 277.528261 16.801739 
L 166.131739 16.801739 
z
" style="fill:#ffffff;"/>
   </g>
   <g id="matplotlib.axis_3">
    <g id="text_7">
     <!-- Dim. 1 -->
     <g transform="translate(208.655 138.277011)scale(0.08 -0.08)">
      <use xlink:href="#DejaVuSans-68"/>
      <use x="77.001953" xlink:href="#DejaVuSans-105"/>
      <use x="104.785156" xlink:href="#DejaVuSans-109"/>
      <use x="202.197266" xlink:href="#DejaVuSans-46"/>
      <use x="233.984375" xlink:href="#DejaVuSans-32"/>
      <use x="265.771484" xlink:href="#DejaVuSans-49"/>
     </g>
    </g>
   </g>
   <g id="matplotlib.axis_4">
    <g id="text_8">
     <!-- Dim. 2 -->
     <g transform="translate(160.467989 85.675)rotate(-90)scale(0.08 -0.08)">
      <use xlink:href="#DejaVuSans-68"/>
      <use x="77.001953" xlink:href="#DejaVuSans-105"/>
      <use x="104.785156" xlink:href="#DejaVuSans-109"/>
      <use x="202.197266" xlink:href="#DejaVuSans-46"/>
      <use x="233.984375" xlink:href="#DejaVuSans-32"/>
      <use x="265.771484" xlink:href="#DejaVuSans-50"/>
     </g>
    </g>
   </g>
   <g id="line2d_10">
    <path clip-path="url(#p0d27eeddb1)" d="M 189.608693 84.689063 
L 189.074434 84.11759 
L 188.595623 83.493463 
L 188.174189 82.819197 
L 187.81183 82.097504 
L 187.510003 81.331293 
L 187.269924 80.523648 
L 187.09256 79.677821 
L 186.978625 78.797218 
L 186.928578 77.885385 
L 186.942621 76.945993 
L 187.020697 75.982826 
L 187.162491 74.999761 
L 187.367432 74.000756 
L 187.634696 72.989836 
L 187.963206 71.971069 
L 188.351639 70.948559 
L 188.798432 69.926423 
L 189.301785 68.908776 
L 189.859671 67.899716 
L 190.469844 66.903307 
L 191.129847 65.92356 
L 191.837023 64.96442 
L 192.588523 64.02975 
L 193.381322 63.123314 
L 194.212228 62.248761 
L 195.077894 61.409612 
L 195.974836 60.609247 
L 196.89944 59.850888 
L 197.847985 59.13759 
L 198.816651 58.472223 
L 199.801537 57.857469 
L 200.798678 57.295801 
L 201.804058 56.789481 
L 202.81363 56.340549 
L 203.823327 55.950812 
L 204.829084 55.621839 
L 205.826852 55.354955 
L 206.812613 55.151235 
L 207.782397 55.011498 
L 208.732299 54.936309 
L 209.658495 54.925968 
L 210.557255 54.980519 
L 211.424961 55.099741 
L 212.258117 55.283154 
L 213.05337 55.530019 
L 213.807516 55.839344 
L 214.517521 56.209882 
L 215.180523 56.64014 
L 215.793855 57.128388 
L 216.355045 57.672658 
L 216.861835 58.270759 
L 217.312184 58.920283 
L 217.704278 59.618614 
L 218.036539 60.36294 
L 218.307628 61.150265 
L 218.516455 61.977417 
L 218.662177 62.841067 
L 218.744209 63.737737 
L 218.762221 64.663815 
L 218.716138 65.615574 
L 218.606148 66.58918 
L 218.432693 67.580714 
L 218.196471 68.586183 
L 217.898434 69.601538 
L 217.539782 70.62269 
L 217.121959 71.645528 
L 216.646647 72.665933 
L 216.11576 73.679797 
L 215.531436 74.683037 
L 214.896028 75.671613 
L 214.212095 76.641545 
L 213.482389 77.588926 
L 212.709851 78.509943 
L 211.897589 79.400887 
L 211.048876 80.258169 
L 210.167128 81.078339 
L 209.255896 81.858093 
L 208.31885 82.594293 
L 207.359761 83.283972 
L 206.382493 83.924355 
L 205.390981 84.512863 
L 204.389216 85.047125 
L 203.381233 85.524992 
L 202.37109 85.944538 
L 201.362855 86.304074 
L 200.360588 86.602152 
L 199.368324 86.837573 
L 198.390059 87.009388 
L 197.429732 87.116905 
L 196.49121 87.159692 
L 195.578273 87.137575 
L 194.694595 87.050645 
L 193.843736 86.899252 
L 193.029122 86.684004 
L 192.254032 86.405769 
L 191.521587 86.065666 
L 190.834738 85.665066 
L 190.19625 85.205582 
L 189.608693 84.689063 
" style="fill:none;stroke:#1f77b4;stroke-linecap:square;stroke-width:2;"/>
   </g>
   <g id="line2d_11">
    <path clip-path="url(#p0d27eeddb1)" d="M 214.554012 82.566511 
L 215.432245 81.734853 
L 216.342255 80.942315 
L 217.280376 80.192088 
L 218.242831 79.487192 
L 219.225745 78.830467 
L 220.22516 78.224557 
L 221.237052 77.671901 
L 222.257346 77.174725 
L 223.281934 76.735031 
L 224.30669 76.35459 
L 225.327487 76.034932 
L 226.340216 75.777346 
L 227.340798 75.582868 
L 228.325205 75.452282 
L 229.289473 75.386114 
L 230.229718 75.384629 
L 231.142156 75.447835 
L 232.023111 75.575475 
L 232.869036 75.767037 
L 233.676526 76.02175 
L 234.442328 76.338586 
L 235.16336 76.716272 
L 235.836717 77.153285 
L 236.459689 77.647866 
L 237.029767 78.198024 
L 237.544655 78.801543 
L 238.00228 79.455994 
L 238.4008 80.15874 
L 238.73861 80.906953 
L 239.014349 81.697619 
L 239.226907 82.527555 
L 239.375429 83.393419 
L 239.459316 84.291724 
L 239.47823 85.218853 
L 239.432096 86.171073 
L 239.321099 87.14455 
L 239.145686 88.135363 
L 238.906563 89.139524 
L 238.604694 90.152989 
L 238.241293 91.171677 
L 237.817825 92.191485 
L 237.335993 93.208308 
L 236.797739 94.218052 
L 236.20523 95.21665 
L 235.560851 96.200081 
L 234.867197 97.164385 
L 234.127062 98.10568 
L 233.343426 99.020176 
L 232.519443 99.904189 
L 231.658432 100.754161 
L 230.763861 101.566668 
L 229.83933 102.338439 
L 228.888563 103.066367 
L 227.915388 103.74752 
L 226.923724 104.379156 
L 225.917564 104.95873 
L 224.90096 105.483911 
L 223.878004 105.952581 
L 222.852816 106.362856 
L 221.829524 106.713082 
L 220.812249 107.001849 
L 219.805086 107.227995 
L 218.812091 107.390609 
L 217.837263 107.489035 
L 216.884527 107.522879 
L 215.957719 107.492003 
L 215.060571 107.396532 
L 214.196696 107.23685 
L 213.369572 107.013601 
L 212.58253 106.727682 
L 211.838738 106.380246 
L 211.141193 105.972692 
L 210.492702 105.50666 
L 209.895876 104.984027 
L 209.35312 104.406898 
L 208.866618 103.777596 
L 208.43833 103.098656 
L 208.06998 102.372811 
L 207.763051 101.602984 
L 207.518779 100.792275 
L 207.338148 99.943948 
L 207.221886 99.061419 
L 207.170459 98.148243 
L 207.184076 97.208095 
L 207.262681 96.244761 
L 207.405958 95.262121 
L 207.61333 94.264131 
L 207.883963 93.254811 
L 208.216765 92.238223 
L 208.610398 91.218461 
L 209.063276 90.199632 
L 209.573576 89.185839 
L 210.139242 88.181162 
L 210.757998 87.189648 
L 211.427351 86.21529 
L 212.144607 85.26201 
L 212.906876 84.333648 
L 213.711091 83.43394 
L 214.554012 82.566511 
" style="fill:none;stroke:#ff7f0e;stroke-linecap:square;stroke-width:2;"/>
   </g>
   <g id="line2d_12">
    <path clip-path="url(#p0d27eeddb1)" d="M 218.484761 61.466097 
L 217.959463 60.89177 
L 217.489958 60.265597 
L 217.078138 59.590101 
L 216.72566 58.868001 
L 216.433943 58.102204 
L 216.204163 57.295795 
L 216.037244 56.452021 
L 215.933859 55.574278 
L 215.894424 54.666102 
L 215.919097 53.731149 
L 216.00778 52.773185 
L 216.160115 51.796066 
L 216.375489 50.803726 
L 216.653034 49.800163 
L 216.991634 48.789416 
L 217.389924 47.775556 
L 217.846301 46.762665 
L 218.358927 45.754822 
L 218.925738 44.756085 
L 219.544452 43.770475 
L 220.212577 42.801961 
L 220.927423 41.854444 
L 221.686111 40.931737 
L 222.485588 40.037558 
L 223.322632 39.175506 
L 224.193875 38.349052 
L 225.095807 37.561525 
L 226.024797 36.816095 
L 226.977105 36.115764 
L 227.948895 35.463353 
L 228.936255 34.861487 
L 229.935208 34.312591 
L 230.941733 33.818874 
L 231.951777 33.382325 
L 232.961272 33.004702 
L 233.966153 32.687525 
L 234.962375 32.432071 
L 235.945925 32.23937 
L 236.912844 32.110196 
L 237.859237 32.04507 
L 238.781295 32.044254 
L 239.675304 32.107752 
L 240.537665 32.235308 
L 241.364905 32.426408 
L 242.153692 32.680283 
L 242.900852 32.99591 
L 243.603375 33.372019 
L 244.258432 33.807095 
L 244.863387 34.299386 
L 245.415802 34.84691 
L 245.913453 35.447462 
L 246.354338 36.098624 
L 246.73668 36.797775 
L 247.058939 37.542098 
L 247.319819 38.328596 
L 247.518268 39.154104 
L 247.653488 40.015296 
L 247.724934 40.908705 
L 247.732319 41.830733 
L 247.675613 42.777669 
L 247.555043 43.745698 
L 247.371096 44.730923 
L 247.124512 45.729377 
L 246.816285 46.73704 
L 246.447654 47.749853 
L 246.020105 48.763739 
L 245.53536 49.774615 
L 244.995369 50.778411 
L 244.402308 51.771084 
L 243.758565 52.748638 
L 243.066731 53.707136 
L 242.329593 54.642719 
L 241.550118 55.551619 
L 240.731445 56.430177 
L 239.876871 57.274856 
L 238.989837 58.082252 
L 238.073915 58.849117 
L 237.132792 59.572362 
L 236.170259 60.249074 
L 235.19019 60.876528 
L 234.196533 61.452199 
L 233.193289 61.973768 
L 232.184497 62.439135 
L 231.174219 62.846426 
L 230.166524 63.194001 
L 229.165468 63.480461 
L 228.175084 63.704651 
L 227.199358 63.86567 
L 226.24222 63.962869 
L 225.307524 63.995856 
L 224.399033 63.964499 
L 223.520405 63.868924 
L 222.67518 63.709516 
L 221.866759 63.486917 
L 221.098399 63.202022 
L 220.373192 62.85598 
L 219.69406 62.450183 
L 219.063737 61.986266 
L 218.484761 61.466097 
" style="fill:none;stroke:#2ca02c;stroke-linecap:square;stroke-width:2;"/>
   </g>
   <g id="patch_7">
    <path d="M 166.131739 128.198261 
L 166.131739 16.801739 
" style="fill:none;stroke:#000000;stroke-linecap:square;stroke-linejoin:miter;stroke-width:0.8;"/>
   </g>
   <g id="patch_8">
    <path d="M 166.131739 128.198261 
L 277.528261 128.198261 
" style="fill:none;stroke:#000000;stroke-linecap:square;stroke-linejoin:miter;stroke-width:0.8;"/>
   </g>
   <g id="text_9">
    <!-- Modulate gain -->
    <defs>
     <path d="M 9.8125 72.90625 
L 24.515625 72.90625 
L 43.109375 23.296875 
L 61.8125 72.90625 
L 76.515625 72.90625 
L 76.515625 0 
L 66.890625 0 
L 66.890625 64.015625 
L 48.09375 14.015625 
L 38.1875 14.015625 
L 19.390625 64.015625 
L 19.390625 0 
L 9.8125 0 
z
" id="DejaVuSans-77"/>
     <path d="M 45.40625 46.390625 
L 45.40625 75.984375 
L 54.390625 75.984375 
L 54.390625 0 
L 45.40625 0 
L 45.40625 8.203125 
Q 42.578125 3.328125 38.25 0.953125 
Q 33.9375 -1.421875 27.875 -1.421875 
Q 17.96875 -1.421875 11.734375 6.484375 
Q 5.515625 14.40625 5.515625 27.296875 
Q 5.515625 40.1875 11.734375 48.09375 
Q 17.96875 56 27.875 56 
Q 33.9375 56 38.25 53.625 
Q 42.578125 51.265625 45.40625 46.390625 
z
M 14.796875 27.296875 
Q 14.796875 17.390625 18.875 11.75 
Q 22.953125 6.109375 30.078125 6.109375 
Q 37.203125 6.109375 41.296875 11.75 
Q 45.40625 17.390625 45.40625 27.296875 
Q 45.40625 37.203125 41.296875 42.84375 
Q 37.203125 48.484375 30.078125 48.484375 
Q 22.953125 48.484375 18.875 42.84375 
Q 14.796875 37.203125 14.796875 27.296875 
z
" id="DejaVuSans-100"/>
     <path d="M 56.203125 29.59375 
L 56.203125 25.203125 
L 14.890625 25.203125 
Q 15.484375 15.921875 20.484375 11.0625 
Q 25.484375 6.203125 34.421875 6.203125 
Q 39.59375 6.203125 44.453125 7.46875 
Q 49.3125 8.734375 54.109375 11.28125 
L 54.109375 2.78125 
Q 49.265625 0.734375 44.1875 -0.34375 
Q 39.109375 -1.421875 33.890625 -1.421875 
Q 20.796875 -1.421875 13.15625 6.1875 
Q 5.515625 13.8125 5.515625 26.8125 
Q 5.515625 40.234375 12.765625 48.109375 
Q 20.015625 56 32.328125 56 
Q 43.359375 56 49.78125 48.890625 
Q 56.203125 41.796875 56.203125 29.59375 
z
M 47.21875 32.234375 
Q 47.125 39.59375 43.09375 43.984375 
Q 39.0625 48.390625 32.421875 48.390625 
Q 24.90625 48.390625 20.390625 44.140625 
Q 15.875 39.890625 15.1875 32.171875 
z
" id="DejaVuSans-101"/>
     <path d="M 45.40625 27.984375 
Q 45.40625 37.75 41.375 43.109375 
Q 37.359375 48.484375 30.078125 48.484375 
Q 22.859375 48.484375 18.828125 43.109375 
Q 14.796875 37.75 14.796875 27.984375 
Q 14.796875 18.265625 18.828125 12.890625 
Q 22.859375 7.515625 30.078125 7.515625 
Q 37.359375 7.515625 41.375 12.890625 
Q 45.40625 18.265625 45.40625 27.984375 
z
M 54.390625 6.78125 
Q 54.390625 -7.171875 48.1875 -13.984375 
Q 42 -20.796875 29.203125 -20.796875 
Q 24.46875 -20.796875 20.265625 -20.09375 
Q 16.0625 -19.390625 12.109375 -17.921875 
L 12.109375 -9.1875 
Q 16.0625 -11.328125 19.921875 -12.34375 
Q 23.78125 -13.375 27.78125 -13.375 
Q 36.625 -13.375 41.015625 -8.765625 
Q 45.40625 -4.15625 45.40625 5.171875 
L 45.40625 9.625 
Q 42.625 4.78125 38.28125 2.390625 
Q 33.9375 0 27.875 0 
Q 17.828125 0 11.671875 7.65625 
Q 5.515625 15.328125 5.515625 27.984375 
Q 5.515625 40.671875 11.671875 48.328125 
Q 17.828125 56 27.875 56 
Q 33.9375 56 38.28125 53.609375 
Q 42.625 51.21875 45.40625 46.390625 
L 45.40625 54.6875 
L 54.390625 54.6875 
z
" id="DejaVuSans-103"/>
     <path d="M 54.890625 33.015625 
L 54.890625 0 
L 45.90625 0 
L 45.90625 32.71875 
Q 45.90625 40.484375 42.875 44.328125 
Q 39.84375 48.1875 33.796875 48.1875 
Q 26.515625 48.1875 22.3125 43.546875 
Q 18.109375 38.921875 18.109375 30.90625 
L 18.109375 0 
L 9.078125 0 
L 9.078125 54.6875 
L 18.109375 54.6875 
L 18.109375 46.1875 
Q 21.34375 51.125 25.703125 53.5625 
Q 30.078125 56 35.796875 56 
Q 45.21875 56 50.046875 50.171875 
Q 54.890625 44.34375 54.890625 33.015625 
z
" id="DejaVuSans-110"/>
    </defs>
    <g transform="translate(187.66225 10.801739)scale(0.096 -0.096)">
     <use xlink:href="#DejaVuSans-77"/>
     <use x="86.279297" xlink:href="#DejaVuSans-111"/>
     <use x="147.460938" xlink:href="#DejaVuSans-100"/>
     <use x="210.9375" xlink:href="#DejaVuSans-117"/>
     <use x="274.316406" xlink:href="#DejaVuSans-108"/>
     <use x="302.099609" xlink:href="#DejaVuSans-97"/>
     <use x="363.378906" xlink:href="#DejaVuSans-116"/>
     <use x="402.587891" xlink:href="#DejaVuSans-101"/>
     <use x="464.111328" xlink:href="#DejaVuSans-32"/>
     <use x="495.898438" xlink:href="#DejaVuSans-103"/>
     <use x="559.375" xlink:href="#DejaVuSans-97"/>
     <use x="620.654297" xlink:href="#DejaVuSans-105"/>
     <use x="648.4375" xlink:href="#DejaVuSans-110"/>
    </g>
   </g>
  </g>
  <g id="axes_3">
   <g id="patch_9">
    <path d="M 307.971739 128.198261 
L 419.368261 128.198261 
L 419.368261 16.801739 
L 307.971739 16.801739 
z
" style="fill:#ffffff;"/>
   </g>
   <g id="matplotlib.axis_5">
    <g id="text_10">
     <!-- Dim. 1 -->
     <g transform="translate(350.495 138.277011)scale(0.08 -0.08)">
      <use xlink:href="#DejaVuSans-68"/>
      <use x="77.001953" xlink:href="#DejaVuSans-105"/>
      <use x="104.785156" xlink:href="#DejaVuSans-109"/>
      <use x="202.197266" xlink:href="#DejaVuSans-46"/>
      <use x="233.984375" xlink:href="#DejaVuSans-32"/>
      <use x="265.771484" xlink:href="#DejaVuSans-49"/>
     </g>
    </g>
   </g>
   <g id="matplotlib.axis_6">
    <g id="text_11">
     <!-- Dim. 2 -->
     <g transform="translate(302.307989 85.675)rotate(-90)scale(0.08 -0.08)">
      <use xlink:href="#DejaVuSans-68"/>
      <use x="77.001953" xlink:href="#DejaVuSans-105"/>
      <use x="104.785156" xlink:href="#DejaVuSans-109"/>
      <use x="202.197266" xlink:href="#DejaVuSans-46"/>
      <use x="233.984375" xlink:href="#DejaVuSans-32"/>
      <use x="265.771484" xlink:href="#DejaVuSans-50"/>
     </g>
    </g>
   </g>
   <g id="line2d_13">
    <path clip-path="url(#pdad252ac8a)" d="M 332.930594 73.931124 
L 333.610452 73.282605 
L 334.314753 72.664046 
L 335.040661 72.077937 
L 335.785255 71.526639 
L 336.545535 71.012371 
L 337.318441 70.537205 
L 338.10086 70.103053 
L 338.889641 69.711665 
L 339.681608 69.364615 
L 340.473573 69.063301 
L 341.262347 68.808937 
L 342.044752 68.602546 
L 342.81764 68.444961 
L 343.577897 68.336815 
L 344.322463 68.278544 
L 345.048339 68.270382 
L 345.752603 68.312362 
L 346.432418 68.404316 
L 347.085047 68.545873 
L 347.707863 68.736463 
L 348.298357 68.975319 
L 348.854153 69.261478 
L 349.37301 69.593789 
L 349.852842 69.970913 
L 350.291715 70.391333 
L 350.687862 70.853354 
L 351.039688 71.355117 
L 351.345777 71.894601 
L 351.604896 72.469634 
L 351.816001 73.077901 
L 351.978242 73.716951 
L 352.090967 74.384213 
L 352.153721 75.076999 
L 352.166252 75.792519 
L 352.128509 76.527893 
L 352.040644 77.280159 
L 351.903011 78.046288 
L 351.716164 78.823195 
L 351.480856 79.607752 
L 351.198033 80.3968 
L 350.868836 81.187162 
L 350.494588 81.975654 
L 350.076799 82.759103 
L 349.617148 83.534353 
L 349.117489 84.298282 
L 348.579831 85.047816 
L 348.006342 85.779934 
L 347.399328 86.491691 
L 346.761236 87.180219 
L 346.094634 87.842746 
L 345.402206 88.476605 
L 344.686741 89.079242 
L 343.951119 89.648232 
L 343.198303 90.181283 
L 342.431324 90.676249 
L 341.65327 91.131137 
L 340.867275 91.544115 
L 340.076502 91.913521 
L 339.284137 92.237866 
L 338.49337 92.515845 
L 337.707385 92.746338 
L 336.929346 92.928417 
L 336.162388 93.06135 
L 335.409597 93.144601 
L 334.674006 93.177834 
L 333.958576 93.160916 
L 333.266188 93.093915 
L 332.59963 92.977101 
L 331.961586 92.810944 
L 331.354626 92.596113 
L 330.781192 92.333473 
L 330.243595 92.024082 
L 329.743999 91.669186 
L 329.284415 91.270213 
L 328.866695 90.828771 
L 328.49252 90.346636 
L 328.163397 89.82575 
L 327.880651 89.268211 
L 327.64542 88.676263 
L 327.458653 88.05229 
L 327.3211 87.398805 
L 327.233317 86.718439 
L 327.195655 86.013931 
L 327.208268 85.288119 
L 327.271103 84.543924 
L 327.383909 83.784344 
L 327.546231 83.012438 
L 327.757415 82.231312 
L 328.016611 81.444113 
L 328.322775 80.654011 
L 328.674675 79.864186 
L 329.070893 79.07782 
L 329.509834 78.298078 
L 329.98973 77.5281 
L 330.50865 76.770988 
L 331.064503 76.029788 
L 331.655052 75.307487 
L 332.277919 74.606992 
L 332.930594 73.931124 
" style="fill:none;stroke:#1f77b4;stroke-linecap:square;stroke-width:2;"/>
   </g>
   <g id="line2d_14">
    <path clip-path="url(#pdad252ac8a)" d="M 345.68339 106.855147 
L 345.263737 106.416698 
L 344.886093 105.937509 
L 344.551978 105.419511 
L 344.262737 104.86479 
L 344.019536 104.275578 
L 343.823354 103.654249 
L 343.67498 103.003305 
L 343.575012 102.325366 
L 343.523852 101.623162 
L 343.521708 100.899521 
L 343.568586 100.157357 
L 343.664299 99.399658 
L 343.808461 98.629476 
L 344.000491 97.849911 
L 344.239617 97.064102 
L 344.524875 96.275214 
L 344.855117 95.486423 
L 345.229013 94.700905 
L 345.645058 93.921824 
L 346.101575 93.152316 
L 346.596728 92.395481 
L 347.128522 91.654365 
L 347.694816 90.931952 
L 348.293329 90.231152 
L 348.921652 89.554787 
L 349.577254 88.90558 
L 350.257496 88.286144 
L 350.959639 87.698976 
L 351.680855 87.146438 
L 352.41824 86.630755 
L 353.168825 86.154004 
L 353.929587 85.718106 
L 354.697465 85.324814 
L 355.469364 84.975712 
L 356.242178 84.672208 
L 357.012794 84.415521 
L 357.778109 84.206686 
L 358.535042 84.046545 
L 359.280545 83.935741 
L 360.011616 83.874721 
L 360.72531 83.863731 
L 361.418756 83.902814 
L 362.089159 83.991814 
L 362.733821 84.130372 
L 363.350146 84.31793 
L 363.935652 84.553734 
L 364.487981 84.836832 
L 365.00491 85.166087 
L 365.484357 85.54017 
L 365.924391 85.957578 
L 366.32324 86.416628 
L 366.679299 86.915472 
L 366.991134 87.452102 
L 367.257489 88.024357 
L 367.477291 88.629932 
L 367.649656 89.266389 
L 367.77389 89.931166 
L 367.849492 90.621585 
L 367.876157 91.334866 
L 367.853779 92.068137 
L 367.782447 92.818447 
L 367.66245 93.582772 
L 367.494269 94.358036 
L 367.278582 95.141118 
L 367.016258 95.928863 
L 366.708353 96.718099 
L 366.356107 97.50565 
L 365.960937 98.288344 
L 365.524437 99.063028 
L 365.048362 99.826584 
L 364.53463 100.575937 
L 363.985309 101.30807 
L 363.402612 102.020035 
L 362.788885 102.708964 
L 362.146599 103.372084 
L 361.478341 104.006725 
L 360.7868 104.610331 
L 360.074763 105.180472 
L 359.345095 105.714851 
L 358.600735 106.211317 
L 357.844681 106.667872 
L 357.079976 107.082676 
L 356.3097 107.45406 
L 355.536954 107.780527 
L 354.764851 108.060764 
L 353.996498 108.293642 
L 353.23499 108.478223 
L 352.483394 108.613764 
L 351.744735 108.699719 
L 351.021989 108.735742 
L 350.318064 108.721689 
L 349.635796 108.657615 
L 348.977932 108.543778 
L 348.347121 108.380638 
L 347.745903 108.168851 
L 347.176699 107.909269 
L 346.641801 107.602938 
L 346.143362 107.251092 
L 345.68339 106.855147 
" style="fill:none;stroke:#ff7f0e;stroke-linecap:square;stroke-width:2;"/>
   </g>
   <g id="line2d_15">
    <path clip-path="url(#pdad252ac8a)" d="M 351.735197 73.280485 
L 351.334039 72.843152 
L 350.97645 72.365012 
L 350.663871 71.847989 
L 350.39756 71.294167 
L 350.17859 70.705774 
L 350.007843 70.085179 
L 349.886006 69.434883 
L 349.813569 68.757503 
L 349.790825 68.055767 
L 349.817865 67.332501 
L 349.894579 66.590616 
L 350.02066 65.833101 
L 350.1956 65.063005 
L 350.418693 64.283429 
L 350.689042 63.497513 
L 351.005558 62.708421 
L 351.366967 61.919331 
L 351.771814 61.133419 
L 352.218467 60.353851 
L 352.705129 59.583765 
L 353.22984 58.826263 
L 353.790487 58.084394 
L 354.384813 57.361146 
L 355.010425 56.659431 
L 355.664803 55.982074 
L 356.345313 55.331804 
L 357.049213 54.711238 
L 357.773671 54.122876 
L 358.515769 53.569085 
L 359.272518 53.052097 
L 360.040872 52.573994 
L 360.817736 52.136699 
L 361.599983 51.741975 
L 362.384462 51.39141 
L 363.168016 51.086415 
L 363.947487 50.828221 
L 364.719739 50.617865 
L 365.481662 50.456194 
L 366.230187 50.343861 
L 366.9623 50.281317 
L 367.675054 50.268814 
L 368.365578 50.306402 
L 369.031092 50.39393 
L 369.668916 50.531046 
L 370.276482 50.717197 
L 370.851344 50.951635 
L 371.391186 51.233414 
L 371.893835 51.5614 
L 372.357267 51.934273 
L 372.779616 52.350531 
L 373.159181 52.808498 
L 373.494434 53.30633 
L 373.784024 53.842022 
L 374.026787 54.413418 
L 374.221743 55.018216 
L 374.368109 55.653981 
L 374.465295 56.318154 
L 374.51291 57.008059 
L 374.510761 57.720919 
L 374.458857 58.453864 
L 374.357408 59.203941 
L 374.206822 59.968131 
L 374.007706 60.743357 
L 373.76086 61.526497 
L 373.46728 62.314398 
L 373.128146 63.103887 
L 372.744826 63.891785 
L 372.318862 64.674919 
L 371.851969 65.450136 
L 371.346028 66.214315 
L 370.803075 66.964378 
L 370.225297 67.697306 
L 369.615021 68.410146 
L 368.974704 69.100029 
L 368.306924 69.764177 
L 367.61437 70.399915 
L 366.899831 71.004684 
L 366.166184 71.576048 
L 365.416383 72.111707 
L 364.653448 72.609503 
L 363.88045 73.067433 
L 363.100501 73.483652 
L 362.316744 73.856484 
L 361.532332 74.184429 
L 360.750426 74.466165 
L 359.974174 74.700559 
L 359.2067 74.886666 
L 358.451096 75.023736 
L 357.710404 75.111219 
L 356.987607 75.148762 
L 356.285614 75.136213 
L 355.607254 75.073623 
L 354.955256 74.961244 
L 354.332247 74.799529 
L 353.740736 74.589129 
L 353.183103 74.330891 
L 352.661595 74.025855 
L 352.178311 73.675249 
L 351.735197 73.280485 
" style="fill:none;stroke:#2ca02c;stroke-linecap:square;stroke-width:2;"/>
   </g>
   <g id="patch_10">
    <path d="M 307.971739 128.198261 
L 307.971739 16.801739 
" style="fill:none;stroke:#000000;stroke-linecap:square;stroke-linejoin:miter;stroke-width:0.8;"/>
   </g>
   <g id="patch_11">
    <path d="M 307.971739 128.198261 
L 419.368261 128.198261 
" style="fill:none;stroke:#000000;stroke-linecap:square;stroke-linejoin:miter;stroke-width:0.8;"/>
   </g>
   <g id="text_12">
    <!-- Modulate variance -->
    <defs>
     <path d="M 2.984375 54.6875 
L 12.5 54.6875 
L 29.59375 8.796875 
L 46.6875 54.6875 
L 56.203125 54.6875 
L 35.6875 0 
L 23.484375 0 
z
" id="DejaVuSans-118"/>
     <path d="M 48.78125 52.59375 
L 48.78125 44.1875 
Q 44.96875 46.296875 41.140625 47.34375 
Q 37.3125 48.390625 33.40625 48.390625 
Q 24.65625 48.390625 19.8125 42.84375 
Q 14.984375 37.3125 14.984375 27.296875 
Q 14.984375 17.28125 19.8125 11.734375 
Q 24.65625 6.203125 33.40625 6.203125 
Q 37.3125 6.203125 41.140625 7.25 
Q 44.96875 8.296875 48.78125 10.40625 
L 48.78125 2.09375 
Q 45.015625 0.34375 40.984375 -0.53125 
Q 36.96875 -1.421875 32.421875 -1.421875 
Q 20.0625 -1.421875 12.78125 6.34375 
Q 5.515625 14.109375 5.515625 27.296875 
Q 5.515625 40.671875 12.859375 48.328125 
Q 20.21875 56 33.015625 56 
Q 37.15625 56 41.109375 55.140625 
Q 45.0625 54.296875 48.78125 52.59375 
z
" id="DejaVuSans-99"/>
    </defs>
    <g transform="translate(319.201 10.801739)scale(0.096 -0.096)">
     <use xlink:href="#DejaVuSans-77"/>
     <use x="86.279297" xlink:href="#DejaVuSans-111"/>
     <use x="147.460938" xlink:href="#DejaVuSans-100"/>
     <use x="210.9375" xlink:href="#DejaVuSans-117"/>
     <use x="274.316406" xlink:href="#DejaVuSans-108"/>
     <use x="302.099609" xlink:href="#DejaVuSans-97"/>
     <use x="363.378906" xlink:href="#DejaVuSans-116"/>
     <use x="402.587891" xlink:href="#DejaVuSans-101"/>
     <use x="464.111328" xlink:href="#DejaVuSans-32"/>
     <use x="495.898438" xlink:href="#DejaVuSans-118"/>
     <use x="555.078125" xlink:href="#DejaVuSans-97"/>
     <use x="616.357422" xlink:href="#DejaVuSans-114"/>
     <use x="657.470703" xlink:href="#DejaVuSans-105"/>
     <use x="685.253906" xlink:href="#DejaVuSans-97"/>
     <use x="746.533203" xlink:href="#DejaVuSans-110"/>
     <use x="809.912109" xlink:href="#DejaVuSans-99"/>
     <use x="864.892578" xlink:href="#DejaVuSans-101"/>
    </g>
   </g>
  </g>
  <g id="axes_4">
   <g id="patch_12">
    <path d="M 449.811739 128.198261 
L 561.208261 128.198261 
L 561.208261 16.801739 
L 449.811739 16.801739 
z
" style="fill:#ffffff;"/>
   </g>
   <g id="matplotlib.axis_7">
    <g id="text_13">
     <!-- Dim. 1 -->
     <g transform="translate(492.335 138.277011)scale(0.08 -0.08)">
      <use xlink:href="#DejaVuSans-68"/>
      <use x="77.001953" xlink:href="#DejaVuSans-105"/>
      <use x="104.785156" xlink:href="#DejaVuSans-109"/>
      <use x="202.197266" xlink:href="#DejaVuSans-46"/>
      <use x="233.984375" xlink:href="#DejaVuSans-32"/>
      <use x="265.771484" xlink:href="#DejaVuSans-49"/>
     </g>
    </g>
   </g>
   <g id="matplotlib.axis_8">
    <g id="text_14">
     <!-- Dim. 2 -->
     <g transform="translate(444.147989 85.675)rotate(-90)scale(0.08 -0.08)">
      <use xlink:href="#DejaVuSans-68"/>
      <use x="77.001953" xlink:href="#DejaVuSans-105"/>
      <use x="104.785156" xlink:href="#DejaVuSans-109"/>
      <use x="202.197266" xlink:href="#DejaVuSans-46"/>
      <use x="233.984375" xlink:href="#DejaVuSans-32"/>
      <use x="265.771484" xlink:href="#DejaVuSans-50"/>
     </g>
    </g>
   </g>
   <g id="line2d_16">
    <path clip-path="url(#p8959e1add3)" d="M 485.777977 96.220393 
L 484.789018 96.422707 
L 483.788972 96.560985 
L 482.781866 96.634672 
L 481.771756 96.64347 
L 480.762709 96.587344 
L 479.758789 96.46652 
L 478.764036 96.281484 
L 477.782458 96.032982 
L 476.818006 95.722015 
L 475.874564 95.349833 
L 474.955931 94.917937 
L 474.065806 94.428065 
L 473.207773 93.882189 
L 472.385287 93.282508 
L 471.60166 92.631437 
L 470.860047 91.931596 
L 470.163435 91.185805 
L 469.514629 90.397065 
L 468.916241 89.568554 
L 468.37068 88.703607 
L 467.880144 87.805707 
L 467.446607 86.878469 
L 467.071816 85.925628 
L 466.757279 84.951019 
L 466.504263 83.958568 
L 466.313786 82.952271 
L 466.186617 81.936179 
L 466.123266 80.914384 
L 466.12399 79.891001 
L 466.188784 78.87015 
L 466.317388 77.855942 
L 466.509285 76.85246 
L 466.763701 75.863746 
L 467.079613 74.893781 
L 467.455747 73.94647 
L 467.89059 73.025627 
L 468.38239 72.134962 
L 468.929168 71.278059 
L 469.528721 70.45837 
L 470.178636 69.679195 
L 470.876295 68.943672 
L 471.618889 68.254762 
L 472.403428 67.61524 
L 473.226753 67.027679 
L 474.085549 66.494448 
L 474.976357 66.017691 
L 475.895591 65.59933 
L 476.839549 65.241048 
L 477.804431 64.944289 
L 478.78635 64.710248 
L 479.781354 64.539866 
L 480.785435 64.43383 
L 481.79455 64.392567 
L 482.804637 64.416243 
L 483.811628 64.504762 
L 484.811468 64.657769 
L 485.800131 64.874647 
L 486.773637 65.154523 
L 487.728064 65.496269 
L 488.65957 65.898511 
L 489.564405 66.359627 
L 490.438924 66.877762 
L 491.279607 67.450829 
L 492.083068 68.07652 
L 492.846072 68.752316 
L 493.565546 69.475496 
L 494.238595 70.243148 
L 494.862506 71.052181 
L 495.434769 71.899336 
L 495.953078 72.781204 
L 496.415347 73.694233 
L 496.819715 74.634746 
L 497.164553 75.598956 
L 497.448472 76.582981 
L 497.67033 77.582859 
L 497.829233 78.594563 
L 497.924541 79.614019 
L 497.95587 80.637123 
L 497.923095 81.659755 
L 497.826347 82.677798 
L 497.666016 83.687151 
L 497.442747 84.68375 
L 497.157439 85.663583 
L 496.811242 86.622704 
L 496.405549 87.557251 
L 495.941994 88.463462 
L 495.422444 89.337686 
L 494.848989 90.176404 
L 494.223941 90.976238 
L 493.549815 91.733969 
L 492.829325 92.446544 
L 492.065374 93.111095 
L 491.261037 93.724946 
L 490.419553 94.285624 
L 489.544311 94.790873 
L 488.638834 95.238657 
L 487.706768 95.627174 
L 486.751868 95.954859 
L 485.777977 96.220393 
" style="fill:none;stroke:#1f77b4;stroke-linecap:square;stroke-width:2;"/>
   </g>
   <g id="line2d_17">
    <path clip-path="url(#p8959e1add3)" d="M 506.446495 109.268851 
L 505.619568 109.822853 
L 504.758275 110.322128 
L 503.866083 110.764665 
L 502.946585 111.148681 
L 502.003485 111.472631 
L 501.040578 111.735211 
L 500.061743 111.935361 
L 499.070921 112.072278 
L 498.072102 112.145409 
L 497.069307 112.154461 
L 496.066575 112.099395 
L 495.067942 111.980436 
L 494.077431 111.79806 
L 493.09903 111.553003 
L 492.136678 111.246252 
L 491.19425 110.879041 
L 490.275542 110.45285 
L 489.384252 109.969394 
L 488.523969 109.43062 
L 487.698159 108.838698 
L 486.910144 108.19601 
L 486.1631 107.505146 
L 485.460034 106.768886 
L 484.803776 105.990196 
L 484.19697 105.17221 
L 483.642058 104.318224 
L 483.141276 103.431674 
L 482.69664 102.516132 
L 482.30994 101.575284 
L 481.982732 100.612917 
L 481.716336 99.632909 
L 481.511823 98.639203 
L 481.370017 97.635802 
L 481.291489 96.626747 
L 481.276555 95.6161 
L 481.325276 94.60793 
L 481.437454 93.606298 
L 481.612639 92.615236 
L 481.850125 91.638735 
L 482.148956 90.680728 
L 482.507928 89.745071 
L 482.925596 88.835533 
L 483.400278 87.955775 
L 483.930063 87.109341 
L 484.512817 86.299638 
L 485.146195 85.529926 
L 485.827645 84.803306 
L 486.554424 84.122703 
L 487.323605 83.490858 
L 488.132091 82.910315 
L 488.976626 82.38341 
L 489.85381 81.912267 
L 490.760111 81.498783 
L 491.691879 81.144621 
L 492.645363 80.851209 
L 493.616723 80.619727 
L 494.602048 80.451109 
L 495.597369 80.346032 
L 496.598681 80.30492 
L 497.601949 80.327938 
L 498.603136 80.414995 
L 499.598208 80.565738 
L 500.58316 80.779562 
L 501.554026 81.055605 
L 502.506895 81.392756 
L 503.437932 81.789657 
L 504.343387 82.24471 
L 505.219615 82.756082 
L 506.063086 83.321715 
L 506.870405 83.939331 
L 507.638321 84.606442 
L 508.363741 85.320364 
L 509.043746 86.078221 
L 509.675596 86.876961 
L 510.256747 87.713368 
L 510.78486 88.584074 
L 511.257807 89.485574 
L 511.673685 90.414237 
L 512.030818 91.366323 
L 512.32777 92.338 
L 512.563343 93.325354 
L 512.736589 94.32441 
L 512.846812 95.331145 
L 512.893566 96.341505 
L 512.876665 97.351422 
L 512.796175 98.356829 
L 512.652421 99.353678 
L 512.445981 100.337955 
L 512.177688 101.305696 
L 511.848621 102.253005 
L 511.460105 103.176068 
L 511.013706 104.071166 
L 510.511219 104.934697 
L 509.954669 105.763183 
L 509.346297 106.553288 
L 508.688552 107.30183 
L 507.984082 108.005796 
L 507.235726 108.662351 
L 506.446495 109.268851 
" style="fill:none;stroke:#ff7f0e;stroke-linecap:square;stroke-width:2;"/>
   </g>
   <g id="line2d_18">
    <path clip-path="url(#p8959e1add3)" d="M 507.86481 47.773052 
L 508.838476 48.05322 
L 509.792479 48.394268 
L 510.72298 48.794822 
L 511.626231 49.25327 
L 512.498596 49.767766 
L 513.336561 50.336237 
L 514.136752 50.956396 
L 514.895948 51.625744 
L 515.611091 52.341586 
L 516.279302 53.101041 
L 516.89789 53.901049 
L 517.464364 54.73839 
L 517.976443 55.609692 
L 518.432065 56.511447 
L 518.829396 57.440023 
L 519.166836 58.391681 
L 519.443026 59.36259 
L 519.656853 60.34884 
L 519.807457 61.346459 
L 519.894232 62.351431 
L 519.916828 63.359709 
L 519.875153 64.367233 
L 519.769377 65.369946 
L 519.599924 66.36381 
L 519.367477 67.344824 
L 519.072972 68.309037 
L 518.717595 69.252566 
L 518.302777 70.171614 
L 517.830188 71.062478 
L 517.301732 71.921571 
L 516.719535 72.745435 
L 516.085943 73.530752 
L 515.403506 74.27436 
L 514.674973 74.973264 
L 513.903277 75.62465 
L 513.091525 76.225896 
L 512.242987 76.77458 
L 511.361078 77.268493 
L 510.44935 77.705646 
L 509.511475 78.08428 
L 508.551228 78.402868 
L 507.572476 78.660129 
L 506.579161 78.855026 
L 505.575282 78.986775 
L 504.564881 79.054846 
L 503.552027 79.058963 
L 502.540798 78.999111 
L 501.535267 78.875531 
L 500.539481 78.68872 
L 499.557451 78.43943 
L 498.593131 78.128666 
L 497.650404 77.757678 
L 496.733066 77.327961 
L 495.844811 76.841244 
L 494.989216 76.299488 
L 494.169725 75.704873 
L 493.389639 75.059795 
L 492.652098 74.366851 
L 491.960072 73.628831 
L 491.316349 72.848707 
L 490.72352 72.02962 
L 490.183972 71.174868 
L 489.699877 70.287893 
L 489.273185 69.372267 
L 488.905615 68.431676 
L 488.598646 67.469908 
L 488.353514 66.490836 
L 488.171206 65.498402 
L 488.052457 64.496602 
L 487.997744 63.48947 
L 488.007289 62.481061 
L 488.081051 61.475437 
L 488.218735 60.476645 
L 488.419786 59.488709 
L 488.683395 58.515606 
L 489.008499 57.561254 
L 489.393791 56.629496 
L 489.837718 55.724085 
L 490.338493 54.848665 
L 490.894099 54.006762 
L 491.5023 53.201767 
L 492.160646 52.436919 
L 492.866486 51.7153 
L 493.616978 51.039815 
L 494.409101 50.413183 
L 495.239664 49.837929 
L 496.105324 49.316368 
L 497.002593 48.8506 
L 497.927861 48.442501 
L 498.8774 48.093715 
L 499.847388 47.805645 
L 500.833918 47.579452 
L 501.833018 47.416047 
L 502.840666 47.316087 
L 503.852803 47.279975 
L 504.865354 47.307856 
L 505.874242 47.399618 
L 506.875405 47.554892 
L 507.86481 47.773052 
" style="fill:none;stroke:#2ca02c;stroke-linecap:square;stroke-width:2;"/>
   </g>
   <g id="patch_13">
    <path d="M 449.811739 128.198261 
L 449.811739 16.801739 
" style="fill:none;stroke:#000000;stroke-linecap:square;stroke-linejoin:miter;stroke-width:0.8;"/>
   </g>
   <g id="patch_14">
    <path d="M 449.811739 128.198261 
L 561.208261 128.198261 
" style="fill:none;stroke:#000000;stroke-linecap:square;stroke-linejoin:miter;stroke-width:0.8;"/>
   </g>
   <g id="text_15">
    <!-- Modulate correlation -->
    <g transform="translate(455.76325 10.801739)scale(0.096 -0.096)">
     <use xlink:href="#DejaVuSans-77"/>
     <use x="86.279297" xlink:href="#DejaVuSans-111"/>
     <use x="147.460938" xlink:href="#DejaVuSans-100"/>
     <use x="210.9375" xlink:href="#DejaVuSans-117"/>
     <use x="274.316406" xlink:href="#DejaVuSans-108"/>
     <use x="302.099609" xlink:href="#DejaVuSans-97"/>
     <use x="363.378906" xlink:href="#DejaVuSans-116"/>
     <use x="402.587891" xlink:href="#DejaVuSans-101"/>
     <use x="464.111328" xlink:href="#DejaVuSans-32"/>
     <use x="495.898438" xlink:href="#DejaVuSans-99"/>
     <use x="550.878906" xlink:href="#DejaVuSans-111"/>
     <use x="612.060547" xlink:href="#DejaVuSans-114"/>
     <use x="653.158203" xlink:href="#DejaVuSans-114"/>
     <use x="694.240234" xlink:href="#DejaVuSans-101"/>
     <use x="755.763672" xlink:href="#DejaVuSans-108"/>
     <use x="783.546875" xlink:href="#DejaVuSans-97"/>
     <use x="844.826172" xlink:href="#DejaVuSans-116"/>
     <use x="884.035156" xlink:href="#DejaVuSans-105"/>
     <use x="911.818359" xlink:href="#DejaVuSans-111"/>
     <use x="973" xlink:href="#DejaVuSans-110"/>
    </g>
   </g>
  </g>
 </g>
 <defs>
  <clipPath id="pe4283ff4b3">
   <rect height="111.396522" width="111.396522" x="24.291739" y="16.801739"/>
  </clipPath>
  <clipPath id="p0d27eeddb1">
   <rect height="111.396522" width="111.396522" x="166.131739" y="16.801739"/>
  </clipPath>
  <clipPath id="pdad252ac8a">
   <rect height="111.396522" width="111.396522" x="307.971739" y="16.801739"/>
  </clipPath>
  <clipPath id="p8959e1add3">
   <rect height="111.396522" width="111.396522" x="449.811739" y="16.801739"/>
  </clipPath>
 </defs>
</svg>
