<?xml version="1.0" encoding="utf-8" standalone="no"?>
<!DOCTYPE svg PUBLIC "-//W3C//DTD SVG 1.1//EN"
  "http://www.w3.org/Graphics/SVG/1.1/DTD/svg11.dtd">
<!-- Created with matplotlib (https://matplotlib.org/) -->
<svg height="144pt" version="1.1" viewBox="0 0 576 144" width="576pt" xmlns="http://www.w3.org/2000/svg" xmlns:xlink="http://www.w3.org/1999/xlink">
 <defs>
  <style type="text/css">
*{stroke-linecap:butt;stroke-linejoin:round;}
  </style>
 </defs>
 <g id="figure_1">
  <g id="patch_1">
   <path d="M 0 144 
L 576 144 
L 576 0 
L 0 0 
z
" style="fill:#ffffff;"/>
  </g>
  <g id="axes_1">
   <g id="patch_2">
    <path d="M 24.291739 128.198261 
L 135.688261 128.198261 
L 135.688261 16.801739 
L 24.291739 16.801739 
z
" style="fill:#ffffff;"/>
   </g>
   <g id="matplotlib.axis_1">
    <g id="text_1">
     <!-- Dim. 1 -->
     <defs>
      <path d="M 19.671875 64.796875 
L 19.671875 8.109375 
L 31.59375 8.109375 
Q 46.6875 8.109375 53.6875 14.9375 
Q 60.6875 21.78125 60.6875 36.53125 
Q 60.6875 51.171875 53.6875 57.984375 
Q 46.6875 64.796875 31.59375 64.796875 
z
M 9.8125 72.90625 
L 30.078125 72.90625 
Q 51.265625 72.90625 61.171875 64.09375 
Q 71.09375 55.28125 71.09375 36.53125 
Q 71.09375 17.671875 61.125 8.828125 
Q 51.171875 0 30.078125 0 
L 9.8125 0 
z
" id="DejaVuSans-68"/>
      <path d="M 9.421875 54.6875 
L 18.40625 54.6875 
L 18.40625 0 
L 9.421875 0 
z
M 9.421875 75.984375 
L 18.40625 75.984375 
L 18.40625 64.59375 
L 9.421875 64.59375 
z
" id="DejaVuSans-105"/>
      <path d="M 52 44.1875 
Q 55.375 50.25 60.0625 53.125 
Q 64.75 56 71.09375 56 
Q 79.640625 56 84.28125 50.015625 
Q 88.921875 44.046875 88.921875 33.015625 
L 88.921875 0 
L 79.890625 0 
L 79.890625 32.71875 
Q 79.890625 40.578125 77.09375 44.375 
Q 74.3125 48.1875 68.609375 48.1875 
Q 61.625 48.1875 57.5625 43.546875 
Q 53.515625 38.921875 53.515625 30.90625 
L 53.515625 0 
L 44.484375 0 
L 44.484375 32.71875 
Q 44.484375 40.625 41.703125 44.40625 
Q 38.921875 48.1875 33.109375 48.1875 
Q 26.21875 48.1875 22.15625 43.53125 
Q 18.109375 38.875 18.109375 30.90625 
L 18.109375 0 
L 9.078125 0 
L 9.078125 54.6875 
L 18.109375 54.6875 
L 18.109375 46.1875 
Q 21.1875 51.21875 25.484375 53.609375 
Q 29.78125 56 35.6875 56 
Q 41.65625 56 45.828125 52.96875 
Q 50 49.953125 52 44.1875 
z
" id="DejaVuSans-109"/>
      <path d="M 10.6875 12.40625 
L 21 12.40625 
L 21 0 
L 10.6875 0 
z
" id="DejaVuSans-46"/>
      <path id="DejaVuSans-32"/>
      <path d="M 12.40625 8.296875 
L 28.515625 8.296875 
L 28.515625 63.921875 
L 10.984375 60.40625 
L 10.984375 69.390625 
L 28.421875 72.90625 
L 38.28125 72.90625 
L 38.28125 8.296875 
L 54.390625 8.296875 
L 54.390625 0 
L 12.40625 0 
z
" id="DejaVuSans-49"/>
     </defs>
     <g transform="translate(66.815 138.277011)scale(0.08 -0.08)">
      <use xlink:href="#DejaVuSans-68"/>
      <use x="77.001953" xlink:href="#DejaVuSans-105"/>
      <use x="104.785156" xlink:href="#DejaVuSans-109"/>
      <use x="202.197266" xlink:href="#DejaVuSans-46"/>
      <use x="233.984375" xlink:href="#DejaVuSans-32"/>
      <use x="265.771484" xlink:href="#DejaVuSans-49"/>
     </g>
    </g>
   </g>
   <g id="matplotlib.axis_2">
    <g id="text_2">
     <!-- Dim. 2 -->
     <defs>
      <path d="M 19.1875 8.296875 
L 53.609375 8.296875 
L 53.609375 0 
L 7.328125 0 
L 7.328125 8.296875 
Q 12.9375 14.109375 22.625 23.890625 
Q 32.328125 33.6875 34.8125 36.53125 
Q 39.546875 41.84375 41.421875 45.53125 
Q 43.3125 49.21875 43.3125 52.78125 
Q 43.3125 58.59375 39.234375 62.25 
Q 35.15625 65.921875 28.609375 65.921875 
Q 23.96875 65.921875 18.8125 64.3125 
Q 13.671875 62.703125 7.8125 59.421875 
L 7.8125 69.390625 
Q 13.765625 71.78125 18.9375 73 
Q 24.125 74.21875 28.421875 74.21875 
Q 39.75 74.21875 46.484375 68.546875 
Q 53.21875 62.890625 53.21875 53.421875 
Q 53.21875 48.921875 51.53125 44.890625 
Q 49.859375 40.875 45.40625 35.40625 
Q 44.1875 33.984375 37.640625 27.21875 
Q 31.109375 20.453125 19.1875 8.296875 
z
" id="DejaVuSans-50"/>
     </defs>
     <g transform="translate(18.627989 85.675)rotate(-90)scale(0.08 -0.08)">
      <use xlink:href="#DejaVuSans-68"/>
      <use x="77.001953" xlink:href="#DejaVuSans-105"/>
      <use x="104.785156" xlink:href="#DejaVuSans-109"/>
      <use x="202.197266" xlink:href="#DejaVuSans-46"/>
      <use x="233.984375" xlink:href="#DejaVuSans-32"/>
      <use x="265.771484" xlink:href="#DejaVuSans-50"/>
     </g>
    </g>
   </g>
   <g id="line2d_1">
    <path clip-path="url(#p3f24ba8291)" d="M 47.409814 71.653063 
L 48.289009 70.827094 
L 49.199787 70.040313 
L 50.138481 69.295888 
L 51.101311 68.596815 
L 52.0844 67.945911 
L 53.083789 67.345795 
L 54.095455 66.798885 
L 55.115324 66.307382 
L 56.139289 65.873266 
L 57.163227 65.498285 
L 58.183014 65.183948 
L 59.194545 64.931522 
L 60.193747 64.742023 
L 61.176596 64.616213 
L 62.139134 64.5546 
L 63.077486 64.557432 
L 63.987873 64.624696 
L 64.86663 64.756123 
L 65.710217 64.951183 
L 66.515239 65.209091 
L 67.278453 65.528808 
L 67.996787 65.909046 
L 68.667348 66.348275 
L 69.287435 66.844726 
L 69.854553 67.396401 
L 70.366417 68.001076 
L 70.820966 68.656319 
L 71.216371 69.35949 
L 71.551038 70.107758 
L 71.82362 70.89811 
L 72.03302 71.727363 
L 72.178395 72.592179 
L 72.259158 73.489074 
L 72.274986 74.414439 
L 72.225814 75.364545 
L 72.11184 76.335569 
L 71.933522 77.323599 
L 71.691581 78.324657 
L 71.386988 79.334713 
L 71.020971 80.349699 
L 70.595004 81.365529 
L 70.110802 82.378111 
L 69.570314 83.383368 
L 68.975718 84.377254 
L 68.329406 85.355765 
L 67.633982 86.314962 
L 66.892246 87.250982 
L 66.107184 88.160056 
L 65.281959 89.038524 
L 64.419891 89.882848 
L 63.524454 90.689629 
L 62.599252 91.455618 
L 61.648011 92.177731 
L 60.674562 92.853059 
L 59.682823 93.478885 
L 58.676789 94.052686 
L 57.66051 94.572154 
L 56.638078 95.035197 
L 55.613611 95.439949 
L 54.591234 95.784782 
L 53.575063 96.068306 
L 52.56919 96.28938 
L 51.577666 96.447114 
L 50.604482 96.540872 
L 49.653558 96.570278 
L 48.728723 96.535212 
L 47.833701 96.435816 
L 46.972095 96.272491 
L 46.147375 96.045893 
L 45.362862 95.756935 
L 44.621715 95.406781 
L 43.926918 94.996841 
L 43.281269 94.528765 
L 42.687367 94.004439 
L 42.147604 93.425972 
L 41.664154 92.795696 
L 41.238963 92.116147 
L 40.873744 91.390062 
L 40.569966 90.620364 
L 40.328854 89.810154 
L 40.151377 88.962693 
L 40.038251 88.081393 
L 39.989931 87.169805 
L 40.006612 86.231597 
L 40.088226 85.270548 
L 40.234445 84.290528 
L 40.44468 83.295482 
L 40.718085 82.289419 
L 41.053559 81.276388 
L 41.44975 80.260469 
L 41.905064 79.245752 
L 42.417667 78.236324 
L 42.985495 77.236249 
L 43.606262 76.249554 
L 44.277468 75.280212 
L 44.99641 74.332126 
L 45.760193 73.409114 
L 46.565742 72.514893 
L 47.409814 71.653063 
" style="fill:none;stroke:#1f77b4;stroke-linecap:square;stroke-width:2;"/>
   </g>
   <g id="line2d_2">
    <path clip-path="url(#p3f24ba8291)" d="M 63.465603 87.626253 
L 64.332374 86.822169 
L 65.23018 86.057006 
L 66.155406 85.333847 
L 67.104327 84.655602 
L 68.073121 84.025003 
L 69.057888 83.444589 
L 70.054663 82.916697 
L 71.05943 82.443453 
L 72.068146 82.026762 
L 73.076747 81.668303 
L 74.081173 81.369518 
L 75.07738 81.13161 
L 76.061355 80.955538 
L 77.029137 80.842011 
L 77.976829 80.791486 
L 78.900615 80.804166 
L 79.796775 80.88 
L 80.6617 81.018682 
L 81.491908 81.219655 
L 82.284056 81.48211 
L 83.034954 81.804988 
L 83.741578 82.186991 
L 84.401084 82.626579 
L 85.010815 83.121984 
L 85.568317 83.67121 
L 86.071344 84.272045 
L 86.517872 84.92207 
L 86.906101 85.618669 
L 87.234469 86.359035 
L 87.501654 87.140188 
L 87.70658 87.958982 
L 87.848421 88.81212 
L 87.926606 89.696167 
L 87.940821 90.607563 
L 87.891008 91.542639 
L 87.777369 92.497629 
L 87.600359 93.468687 
L 87.360693 94.451904 
L 87.059336 95.443321 
L 86.6975 96.438945 
L 86.276642 97.434767 
L 85.798459 98.426778 
L 85.264874 99.410984 
L 84.678036 100.38342 
L 84.040309 101.340171 
L 83.35426 102.277386 
L 82.622652 103.191289 
L 81.848431 104.078202 
L 81.034714 104.934552 
L 80.184778 105.756892 
L 79.302044 106.541911 
L 78.390069 107.286446 
L 77.452523 107.987501 
L 76.493183 108.642253 
L 75.51591 109.248064 
L 74.52464 109.802496 
L 73.523365 110.303316 
L 72.516117 110.748508 
L 71.50695 111.136279 
L 70.499929 111.465067 
L 69.499109 111.733548 
L 68.50852 111.940642 
L 67.532149 112.085514 
L 66.57393 112.167582 
L 65.63772 112.186514 
L 64.727289 112.142235 
L 63.846303 112.034923 
L 62.998309 111.865009 
L 62.186722 111.633179 
L 61.414811 111.340365 
L 60.685683 110.987747 
L 60.002273 110.576745 
L 59.367335 110.109012 
L 58.783425 109.586434 
L 58.252893 109.011114 
L 57.777876 108.385369 
L 57.360288 107.711718 
L 57.001809 106.992873 
L 56.703882 106.231731 
L 56.467708 105.431354 
L 56.294237 104.594967 
L 56.184169 103.725937 
L 56.137945 102.827763 
L 56.155753 101.904062 
L 56.237521 100.958553 
L 56.382918 99.995044 
L 56.591361 99.017414 
L 56.862009 98.0296 
L 57.193773 97.035579 
L 57.585317 96.039354 
L 58.035064 95.044937 
L 58.541203 94.056331 
L 59.101696 93.077518 
L 59.714287 92.112438 
L 60.376508 91.164978 
L 61.085694 90.238953 
L 61.838988 89.338091 
L 62.633357 88.466021 
L 63.465603 87.626253 
" style="fill:none;stroke:#ff7f0e;stroke-linecap:square;stroke-width:2;"/>
   </g>
   <g id="line2d_3">
    <path clip-path="url(#p3f24ba8291)" d="M 69.650768 54.094335 
L 70.543871 53.273902 
L 71.468105 52.49304 
L 72.419749 51.754892 
L 73.394971 51.062432 
L 74.389843 50.418447 
L 75.400361 49.82553 
L 76.422455 49.28607 
L 77.45201 48.802237 
L 78.484879 48.375982 
L 79.516904 48.009019 
L 80.543929 47.702826 
L 81.561819 47.458637 
L 82.566475 47.277435 
L 83.553852 47.159949 
L 84.519973 47.106652 
L 85.46095 47.117759 
L 86.372991 47.193226 
L 87.252426 47.332748 
L 88.095713 47.535763 
L 88.899456 47.801455 
L 89.660419 48.128753 
L 90.375539 48.516339 
L 91.041934 48.962653 
L 91.656922 49.465898 
L 92.218027 50.024046 
L 92.722989 50.634851 
L 93.169775 51.295854 
L 93.556587 52.004392 
L 93.881865 52.757612 
L 94.144301 53.552482 
L 94.342838 54.385801 
L 94.476676 55.254214 
L 94.545277 56.154223 
L 94.548364 57.082204 
L 94.485924 58.034422 
L 94.35821 59.007041 
L 94.165736 59.996146 
L 93.909276 60.997753 
L 93.589863 62.00783 
L 93.208784 63.022308 
L 92.767572 64.037104 
L 92.268005 65.048131 
L 91.712094 66.051319 
L 91.102077 67.042626 
L 90.440411 68.018063 
L 89.72976 68.9737 
L 88.972986 69.905691 
L 88.173136 70.810282 
L 87.33343 71.68383 
L 86.45725 72.52282 
L 85.548124 73.323871 
L 84.609713 74.083758 
L 83.645795 74.799423 
L 82.660251 75.467982 
L 81.657051 76.086744 
L 80.640233 76.653218 
L 79.613892 77.165122 
L 78.582161 77.620395 
L 77.549193 78.017204 
L 76.51915 78.353952 
L 75.496177 78.629281 
L 74.484395 78.842084 
L 73.487877 78.991503 
L 72.510636 79.076938 
L 71.556607 79.098043 
L 70.629631 79.054734 
L 69.733441 78.947186 
L 68.871647 78.775831 
L 68.047717 78.541359 
L 67.26497 78.244715 
L 66.526557 77.887093 
L 65.835452 77.469933 
L 65.194437 76.994915 
L 64.606094 76.463951 
L 64.072792 75.879179 
L 63.596678 75.242955 
L 63.17967 74.55784 
L 62.823446 73.826593 
L 62.52944 73.052158 
L 62.298838 72.237653 
L 62.132567 71.386359 
L 62.031296 70.501703 
L 61.995434 69.587247 
L 62.025125 68.646674 
L 62.12025 67.683771 
L 62.280425 66.702415 
L 62.505005 65.706557 
L 62.793087 64.700209 
L 63.143509 63.687421 
L 63.554862 62.672273 
L 64.025488 61.658851 
L 64.553493 60.651237 
L 65.136751 59.653487 
L 65.772912 58.66962 
L 66.459416 57.703596 
L 67.193498 56.759307 
L 67.972203 55.840553 
L 68.792393 54.951036 
L 69.650768 54.094335 
" style="fill:none;stroke:#2ca02c;stroke-linecap:square;stroke-width:2;"/>
   </g>
   <g id="patch_3">
    <path d="M 24.291739 128.198261 
L 24.291739 16.801739 
" style="fill:none;stroke:#000000;stroke-linecap:square;stroke-linejoin:miter;stroke-width:0.8;"/>
   </g>
   <g id="patch_4">
    <path d="M 24.291739 128.198261 
L 135.688261 128.198261 
" style="fill:none;stroke:#000000;stroke-linecap:square;stroke-linejoin:miter;stroke-width:0.8;"/>
   </g>
   <g id="text_3">
    <!-- Low Arousal -->
    <defs>
     <path d="M 9.8125 72.90625 
L 19.671875 72.90625 
L 19.671875 8.296875 
L 55.171875 8.296875 
L 55.171875 0 
L 9.8125 0 
z
" id="DejaVuSans-76"/>
     <path d="M 30.609375 48.390625 
Q 23.390625 48.390625 19.1875 42.75 
Q 14.984375 37.109375 14.984375 27.296875 
Q 14.984375 17.484375 19.15625 11.84375 
Q 23.34375 6.203125 30.609375 6.203125 
Q 37.796875 6.203125 41.984375 11.859375 
Q 46.1875 17.53125 46.1875 27.296875 
Q 46.1875 37.015625 41.984375 42.703125 
Q 37.796875 48.390625 30.609375 48.390625 
z
M 30.609375 56 
Q 42.328125 56 49.015625 48.375 
Q 55.71875 40.765625 55.71875 27.296875 
Q 55.71875 13.875 49.015625 6.21875 
Q 42.328125 -1.421875 30.609375 -1.421875 
Q 18.84375 -1.421875 12.171875 6.21875 
Q 5.515625 13.875 5.515625 27.296875 
Q 5.515625 40.765625 12.171875 48.375 
Q 18.84375 56 30.609375 56 
z
" id="DejaVuSans-111"/>
     <path d="M 4.203125 54.6875 
L 13.1875 54.6875 
L 24.421875 12.015625 
L 35.59375 54.6875 
L 46.1875 54.6875 
L 57.421875 12.015625 
L 68.609375 54.6875 
L 77.59375 54.6875 
L 63.28125 0 
L 52.6875 0 
L 40.921875 44.828125 
L 29.109375 0 
L 18.5 0 
z
" id="DejaVuSans-119"/>
     <path d="M 34.1875 63.1875 
L 20.796875 26.90625 
L 47.609375 26.90625 
z
M 28.609375 72.90625 
L 39.796875 72.90625 
L 67.578125 0 
L 57.328125 0 
L 50.6875 18.703125 
L 17.828125 18.703125 
L 11.1875 0 
L 0.78125 0 
z
" id="DejaVuSans-65"/>
     <path d="M 41.109375 46.296875 
Q 39.59375 47.171875 37.8125 47.578125 
Q 36.03125 48 33.890625 48 
Q 26.265625 48 22.1875 43.046875 
Q 18.109375 38.09375 18.109375 28.8125 
L 18.109375 0 
L 9.078125 0 
L 9.078125 54.6875 
L 18.109375 54.6875 
L 18.109375 46.1875 
Q 20.953125 51.171875 25.484375 53.578125 
Q 30.03125 56 36.53125 56 
Q 37.453125 56 38.578125 55.875 
Q 39.703125 55.765625 41.0625 55.515625 
z
" id="DejaVuSans-114"/>
     <path d="M 8.5 21.578125 
L 8.5 54.6875 
L 17.484375 54.6875 
L 17.484375 21.921875 
Q 17.484375 14.15625 20.5 10.265625 
Q 23.53125 6.390625 29.59375 6.390625 
Q 36.859375 6.390625 41.078125 11.03125 
Q 45.3125 15.671875 45.3125 23.6875 
L 45.3125 54.6875 
L 54.296875 54.6875 
L 54.296875 0 
L 45.3125 0 
L 45.3125 8.40625 
Q 42.046875 3.421875 37.71875 1 
Q 33.40625 -1.421875 27.6875 -1.421875 
Q 18.265625 -1.421875 13.375 4.4375 
Q 8.5 10.296875 8.5 21.578125 
z
M 31.109375 56 
z
" id="DejaVuSans-117"/>
     <path d="M 44.28125 53.078125 
L 44.28125 44.578125 
Q 40.484375 46.53125 36.375 47.5 
Q 32.28125 48.484375 27.875 48.484375 
Q 21.1875 48.484375 17.84375 46.4375 
Q 14.5 44.390625 14.5 40.28125 
Q 14.5 37.15625 16.890625 35.375 
Q 19.28125 33.59375 26.515625 31.984375 
L 29.59375 31.296875 
Q 39.15625 29.25 43.1875 25.515625 
Q 47.21875 21.78125 47.21875 15.09375 
Q 47.21875 7.46875 41.1875 3.015625 
Q 35.15625 -1.421875 24.609375 -1.421875 
Q 20.21875 -1.421875 15.453125 -0.5625 
Q 10.6875 0.296875 5.421875 2 
L 5.421875 11.28125 
Q 10.40625 8.6875 15.234375 7.390625 
Q 20.0625 6.109375 24.8125 6.109375 
Q 31.15625 6.109375 34.5625 8.28125 
Q 37.984375 10.453125 37.984375 14.40625 
Q 37.984375 18.0625 35.515625 20.015625 
Q 33.0625 21.96875 24.703125 23.78125 
L 21.578125 24.515625 
Q 13.234375 26.265625 9.515625 29.90625 
Q 5.8125 33.546875 5.8125 39.890625 
Q 5.8125 47.609375 11.28125 51.796875 
Q 16.75 56 26.8125 56 
Q 31.78125 56 36.171875 55.265625 
Q 40.578125 54.546875 44.28125 53.078125 
z
" id="DejaVuSans-115"/>
     <path d="M 34.28125 27.484375 
Q 23.390625 27.484375 19.1875 25 
Q 14.984375 22.515625 14.984375 16.5 
Q 14.984375 11.71875 18.140625 8.90625 
Q 21.296875 6.109375 26.703125 6.109375 
Q 34.1875 6.109375 38.703125 11.40625 
Q 43.21875 16.703125 43.21875 25.484375 
L 43.21875 27.484375 
z
M 52.203125 31.203125 
L 52.203125 0 
L 43.21875 0 
L 43.21875 8.296875 
Q 40.140625 3.328125 35.546875 0.953125 
Q 30.953125 -1.421875 24.3125 -1.421875 
Q 15.921875 -1.421875 10.953125 3.296875 
Q 6 8.015625 6 15.921875 
Q 6 25.140625 12.171875 29.828125 
Q 18.359375 34.515625 30.609375 34.515625 
L 43.21875 34.515625 
L 43.21875 35.40625 
Q 43.21875 41.609375 39.140625 45 
Q 35.0625 48.390625 27.6875 48.390625 
Q 23 48.390625 18.546875 47.265625 
Q 14.109375 46.140625 10.015625 43.890625 
L 10.015625 52.203125 
Q 14.9375 54.109375 19.578125 55.046875 
Q 24.21875 56 28.609375 56 
Q 40.484375 56 46.34375 49.84375 
Q 52.203125 43.703125 52.203125 31.203125 
z
" id="DejaVuSans-97"/>
     <path d="M 9.421875 75.984375 
L 18.40625 75.984375 
L 18.40625 0 
L 9.421875 0 
z
" id="DejaVuSans-108"/>
    </defs>
    <g transform="translate(50.9185 10.801739)scale(0.096 -0.096)">
     <use xlink:href="#DejaVuSans-76"/>
     <use x="55.697266" xlink:href="#DejaVuSans-111"/>
     <use x="116.878906" xlink:href="#DejaVuSans-119"/>
     <use x="198.666016" xlink:href="#DejaVuSans-32"/>
     <use x="230.453125" xlink:href="#DejaVuSans-65"/>
     <use x="298.861328" xlink:href="#DejaVuSans-114"/>
     <use x="339.943359" xlink:href="#DejaVuSans-111"/>
     <use x="401.125" xlink:href="#DejaVuSans-117"/>
     <use x="464.503906" xlink:href="#DejaVuSans-115"/>
     <use x="516.603516" xlink:href="#DejaVuSans-97"/>
     <use x="577.882812" xlink:href="#DejaVuSans-108"/>
    </g>
   </g>
   <g id="legend_1">
    <g id="patch_5">
     <path d="M 62.095761 58.429239 
L 130.088261 58.429239 
Q 131.688261 58.429239 131.688261 56.829239 
L 131.688261 22.401739 
Q 131.688261 20.801739 130.088261 20.801739 
L 62.095761 20.801739 
Q 60.495761 20.801739 60.495761 22.401739 
L 60.495761 56.829239 
Q 60.495761 58.429239 62.095761 58.429239 
z
" style="fill:#ffffff;opacity:0.8;stroke:#cccccc;stroke-linejoin:miter;"/>
    </g>
    <g id="line2d_4">
     <path d="M 63.695761 27.280489 
L 79.695761 27.280489 
" style="fill:none;stroke:#1f77b4;stroke-linecap:square;stroke-width:2;"/>
    </g>
    <g id="line2d_5"/>
    <g id="text_4">
     <!-- Stimulus 1 -->
     <defs>
      <path d="M 53.515625 70.515625 
L 53.515625 60.890625 
Q 47.90625 63.578125 42.921875 64.890625 
Q 37.9375 66.21875 33.296875 66.21875 
Q 25.25 66.21875 20.875 63.09375 
Q 16.5 59.96875 16.5 54.203125 
Q 16.5 49.359375 19.40625 46.890625 
Q 22.3125 44.4375 30.421875 42.921875 
L 36.375 41.703125 
Q 47.40625 39.59375 52.65625 34.296875 
Q 57.90625 29 57.90625 20.125 
Q 57.90625 9.515625 50.796875 4.046875 
Q 43.703125 -1.421875 29.984375 -1.421875 
Q 24.8125 -1.421875 18.96875 -0.25 
Q 13.140625 0.921875 6.890625 3.21875 
L 6.890625 13.375 
Q 12.890625 10.015625 18.65625 8.296875 
Q 24.421875 6.59375 29.984375 6.59375 
Q 38.421875 6.59375 43.015625 9.90625 
Q 47.609375 13.234375 47.609375 19.390625 
Q 47.609375 24.75 44.3125 27.78125 
Q 41.015625 30.8125 33.5 32.328125 
L 27.484375 33.5 
Q 16.453125 35.6875 11.515625 40.375 
Q 6.59375 45.0625 6.59375 53.421875 
Q 6.59375 63.09375 13.40625 68.65625 
Q 20.21875 74.21875 32.171875 74.21875 
Q 37.3125 74.21875 42.625 73.28125 
Q 47.953125 72.359375 53.515625 70.515625 
z
" id="DejaVuSans-83"/>
      <path d="M 18.3125 70.21875 
L 18.3125 54.6875 
L 36.8125 54.6875 
L 36.8125 47.703125 
L 18.3125 47.703125 
L 18.3125 18.015625 
Q 18.3125 11.328125 20.140625 9.421875 
Q 21.96875 7.515625 27.59375 7.515625 
L 36.8125 7.515625 
L 36.8125 0 
L 27.59375 0 
Q 17.1875 0 13.234375 3.875 
Q 9.28125 7.765625 9.28125 18.015625 
L 9.28125 47.703125 
L 2.6875 47.703125 
L 2.6875 54.6875 
L 9.28125 54.6875 
L 9.28125 70.21875 
z
" id="DejaVuSans-116"/>
     </defs>
     <g transform="translate(86.095761 30.080489)scale(0.08 -0.08)">
      <use xlink:href="#DejaVuSans-83"/>
      <use x="63.476562" xlink:href="#DejaVuSans-116"/>
      <use x="102.685547" xlink:href="#DejaVuSans-105"/>
      <use x="130.46875" xlink:href="#DejaVuSans-109"/>
      <use x="227.880859" xlink:href="#DejaVuSans-117"/>
      <use x="291.259766" xlink:href="#DejaVuSans-108"/>
      <use x="319.042969" xlink:href="#DejaVuSans-117"/>
      <use x="382.421875" xlink:href="#DejaVuSans-115"/>
      <use x="434.521484" xlink:href="#DejaVuSans-32"/>
      <use x="466.308594" xlink:href="#DejaVuSans-49"/>
     </g>
    </g>
    <g id="line2d_6">
     <path d="M 63.695761 39.022989 
L 79.695761 39.022989 
" style="fill:none;stroke:#ff7f0e;stroke-linecap:square;stroke-width:2;"/>
    </g>
    <g id="line2d_7"/>
    <g id="text_5">
     <!-- Stimulus 2 -->
     <g transform="translate(86.095761 41.822989)scale(0.08 -0.08)">
      <use xlink:href="#DejaVuSans-83"/>
      <use x="63.476562" xlink:href="#DejaVuSans-116"/>
      <use x="102.685547" xlink:href="#DejaVuSans-105"/>
      <use x="130.46875" xlink:href="#DejaVuSans-109"/>
      <use x="227.880859" xlink:href="#DejaVuSans-117"/>
      <use x="291.259766" xlink:href="#DejaVuSans-108"/>
      <use x="319.042969" xlink:href="#DejaVuSans-117"/>
      <use x="382.421875" xlink:href="#DejaVuSans-115"/>
      <use x="434.521484" xlink:href="#DejaVuSans-32"/>
      <use x="466.308594" xlink:href="#DejaVuSans-50"/>
     </g>
    </g>
    <g id="line2d_8">
     <path d="M 63.695761 50.765489 
L 79.695761 50.765489 
" style="fill:none;stroke:#2ca02c;stroke-linecap:square;stroke-width:2;"/>
    </g>
    <g id="line2d_9"/>
    <g id="text_6">
     <!-- Stimulus 3 -->
     <defs>
      <path d="M 40.578125 39.3125 
Q 47.65625 37.796875 51.625 33 
Q 55.609375 28.21875 55.609375 21.1875 
Q 55.609375 10.40625 48.1875 4.484375 
Q 40.765625 -1.421875 27.09375 -1.421875 
Q 22.515625 -1.421875 17.65625 -0.515625 
Q 12.796875 0.390625 7.625 2.203125 
L 7.625 11.71875 
Q 11.71875 9.328125 16.59375 8.109375 
Q 21.484375 6.890625 26.8125 6.890625 
Q 36.078125 6.890625 40.9375 10.546875 
Q 45.796875 14.203125 45.796875 21.1875 
Q 45.796875 27.640625 41.28125 31.265625 
Q 36.765625 34.90625 28.71875 34.90625 
L 20.21875 34.90625 
L 20.21875 43.015625 
L 29.109375 43.015625 
Q 36.375 43.015625 40.234375 45.921875 
Q 44.09375 48.828125 44.09375 54.296875 
Q 44.09375 59.90625 40.109375 62.90625 
Q 36.140625 65.921875 28.71875 65.921875 
Q 24.65625 65.921875 20.015625 65.03125 
Q 15.375 64.15625 9.8125 62.3125 
L 9.8125 71.09375 
Q 15.4375 72.65625 20.34375 73.4375 
Q 25.25 74.21875 29.59375 74.21875 
Q 40.828125 74.21875 47.359375 69.109375 
Q 53.90625 64.015625 53.90625 55.328125 
Q 53.90625 49.265625 50.4375 45.09375 
Q 46.96875 40.921875 40.578125 39.3125 
z
" id="DejaVuSans-51"/>
     </defs>
     <g transform="translate(86.095761 53.565489)scale(0.08 -0.08)">
      <use xlink:href="#DejaVuSans-83"/>
      <use x="63.476562" xlink:href="#DejaVuSans-116"/>
      <use x="102.685547" xlink:href="#DejaVuSans-105"/>
      <use x="130.46875" xlink:href="#DejaVuSans-109"/>
      <use x="227.880859" xlink:href="#DejaVuSans-117"/>
      <use x="291.259766" xlink:href="#DejaVuSans-108"/>
      <use x="319.042969" xlink:href="#DejaVuSans-117"/>
      <use x="382.421875" xlink:href="#DejaVuSans-115"/>
      <use x="434.521484" xlink:href="#DejaVuSans-32"/>
      <use x="466.308594" xlink:href="#DejaVuSans-51"/>
     </g>
    </g>
   </g>
  </g>
  <g id="axes_2">
   <g id="patch_6">
    <path d="M 166.131739 128.198261 
L 277.528261 128.198261 
L 277.528261 16.801739 
L 166.131739 16.801739 
z
" style="fill:#ffffff;"/>
   </g>
   <g id="matplotlib.axis_3">
    <g id="text_7">
     <!-- Dim. 1 -->
     <g transform="translate(208.655 138.277011)scale(0.08 -0.08)">
      <use xlink:href="#DejaVuSans-68"/>
      <use x="77.001953" xlink:href="#DejaVuSans-105"/>
      <use x="104.785156" xlink:href="#DejaVuSans-109"/>
      <use x="202.197266" xlink:href="#DejaVuSans-46"/>
      <use x="233.984375" xlink:href="#DejaVuSans-32"/>
      <use x="265.771484" xlink:href="#DejaVuSans-49"/>
     </g>
    </g>
   </g>
   <g id="matplotlib.axis_4">
    <g id="text_8">
     <!-- Dim. 2 -->
     <g transform="translate(160.467989 85.675)rotate(-90)scale(0.08 -0.08)">
      <use xlink:href="#DejaVuSans-68"/>
      <use x="77.001953" xlink:href="#DejaVuSans-105"/>
      <use x="104.785156" xlink:href="#DejaVuSans-109"/>
      <use x="202.197266" xlink:href="#DejaVuSans-46"/>
      <use x="233.984375" xlink:href="#DejaVuSans-32"/>
      <use x="265.771484" xlink:href="#DejaVuSans-50"/>
     </g>
    </g>
   </g>
   <g id="line2d_10">
    <path clip-path="url(#p37d5283de0)" d="M 194.283911 62.477076 
L 195.139622 61.667314 
L 196.026066 60.895468 
L 196.939676 60.164647 
L 197.876771 59.477793 
L 198.833578 58.837672 
L 199.806244 58.246862 
L 200.790854 57.707741 
L 201.783442 57.222481 
L 202.780012 56.793035 
L 203.77655 56.421132 
L 204.769044 56.108271 
L 205.753498 55.855711 
L 206.725947 55.664468 
L 207.682476 55.535314 
L 208.619233 55.468768 
L 209.532447 55.465097 
L 210.418439 55.524318 
L 211.273643 55.64619 
L 212.094615 55.830224 
L 212.878048 56.075679 
L 213.620789 56.381566 
L 214.319847 56.746653 
L 214.972407 57.169471 
L 215.575841 57.648316 
L 216.127719 58.181261 
L 216.625819 58.76616 
L 217.068136 59.400658 
L 217.452889 60.082199 
L 217.778527 60.808039 
L 218.04374 61.575256 
L 218.247461 62.38076 
L 218.388868 63.221309 
L 218.467393 64.093516 
L 218.482718 64.99387 
L 218.434783 65.918747 
L 218.323781 66.86442 
L 218.150158 67.827084 
L 217.914613 68.802861 
L 217.618095 69.787822 
L 217.261799 70.778001 
L 216.847158 71.769412 
L 216.375842 72.758061 
L 215.849749 73.739969 
L 215.270998 74.711181 
L 214.641918 75.667786 
L 213.965044 76.605933 
L 213.2431 77.521845 
L 212.478993 78.411832 
L 211.675801 79.272311 
L 210.836758 80.099818 
L 209.965241 80.891021 
L 209.064761 81.642733 
L 208.138942 82.351927 
L 207.191514 83.015749 
L 206.226291 83.631524 
L 205.24716 84.196775 
L 204.258063 84.709223 
L 203.262984 85.166807 
L 202.265928 85.567683 
L 201.27091 85.910237 
L 200.281939 86.19309 
L 199.302994 86.415103 
L 198.338019 86.575382 
L 197.390899 86.673282 
L 196.465448 86.708408 
L 195.565392 86.680619 
L 194.694356 86.590027 
L 193.855846 86.436996 
L 193.053239 86.222144 
L 192.289767 85.946334 
L 191.568505 85.610678 
L 190.892355 85.216527 
L 190.264042 84.765469 
L 189.686095 84.259318 
L 189.160842 83.700115 
L 188.690396 83.09011 
L 188.276653 82.431759 
L 187.921279 81.727714 
L 187.625704 80.980809 
L 187.391119 80.194052 
L 187.218468 79.370611 
L 187.108447 78.513802 
L 187.061498 77.627075 
L 187.077811 76.714 
L 187.15732 75.778254 
L 187.299705 74.823605 
L 187.504392 73.853896 
L 187.770557 72.873033 
L 188.097128 71.884966 
L 188.482791 70.893672 
L 188.925993 69.903143 
L 189.424948 68.917368 
L 189.977649 67.940316 
L 190.581868 66.975922 
L 191.235174 66.028069 
L 191.934936 65.100573 
L 192.678335 64.197169 
L 193.462379 63.321494 
L 194.283911 62.477076 
" style="fill:none;stroke:#1f77b4;stroke-linecap:square;stroke-width:2;"/>
   </g>
   <g id="line2d_11">
    <path clip-path="url(#p37d5283de0)" d="M 210.145548 105.379804 
L 209.616197 104.802973 
L 209.141629 104.175293 
L 208.723756 103.499291 
L 208.36426 102.777689 
L 208.064589 102.013393 
L 207.82595 101.20948 
L 207.649303 100.369188 
L 207.535359 99.4959 
L 207.484578 98.593132 
L 207.497164 97.66452 
L 207.573066 96.713802 
L 207.711978 95.744808 
L 207.913342 94.761438 
L 208.176347 93.767653 
L 208.499933 92.767454 
L 208.882797 91.764868 
L 209.323398 90.763933 
L 209.819962 89.768679 
L 210.370489 88.783113 
L 210.972762 87.811204 
L 211.624357 86.856866 
L 212.322649 85.923942 
L 213.064827 85.016187 
L 213.847902 84.137257 
L 214.668721 83.290692 
L 215.523979 82.4799 
L 216.410233 81.708145 
L 217.323912 80.978536 
L 218.26134 80.294011 
L 219.218739 79.657325 
L 220.192257 79.071042 
L 221.177972 78.537524 
L 222.171915 78.058917 
L 223.170085 77.637151 
L 224.168462 77.273922 
L 225.163026 76.970694 
L 226.149771 76.728688 
L 227.124726 76.548877 
L 228.083963 76.431986 
L 229.023621 76.378486 
L 229.939916 76.388593 
L 230.829158 76.462264 
L 231.687766 76.599204 
L 232.512284 76.798862 
L 233.299391 77.060433 
L 234.045917 77.382864 
L 234.748858 77.764857 
L 235.405382 78.204874 
L 236.012845 78.701142 
L 236.568803 79.251664 
L 237.071015 79.854223 
L 237.51746 80.506393 
L 237.90634 81.205547 
L 238.23609 81.94887 
L 238.505381 82.733369 
L 238.713129 83.555886 
L 238.858497 84.413108 
L 238.940901 85.301583 
L 238.960008 86.217734 
L 238.915742 87.157872 
L 238.808281 88.118212 
L 238.638057 89.094885 
L 238.405755 90.083961 
L 238.112313 91.081455 
L 237.758909 92.083352 
L 237.346969 93.085617 
L 236.878151 94.084215 
L 236.354342 95.075123 
L 235.777651 96.054354 
L 235.150401 97.017962 
L 234.475118 97.962069 
L 233.75452 98.882872 
L 232.99151 99.776664 
L 232.189159 100.639846 
L 231.350698 101.468942 
L 230.479503 102.260614 
L 229.579084 103.011674 
L 228.653064 103.719098 
L 227.705173 104.380036 
L 226.739228 104.991828 
L 225.759119 105.552011 
L 224.768791 106.058328 
L 223.772232 106.508741 
L 222.773456 106.901436 
L 221.776484 107.234833 
L 220.785331 107.507587 
L 219.803986 107.718602 
L 218.836403 107.867028 
L 217.886477 107.952266 
L 216.958034 107.973974 
L 216.054811 107.932064 
L 215.180445 107.826705 
L 214.338458 107.658321 
L 213.53224 107.427591 
L 212.765037 107.135442 
L 212.039938 106.783053 
L 211.359864 106.371841 
L 210.727552 105.903463 
L 210.145548 105.379804 
" style="fill:none;stroke:#ff7f0e;stroke-linecap:square;stroke-width:2;"/>
   </g>
   <g id="line2d_12">
    <path clip-path="url(#p37d5283de0)" d="M 223.24399 39.27228 
L 224.115296 38.447101 
L 225.018371 37.660965 
L 225.949576 36.917039 
L 226.905164 36.218318 
L 227.881285 35.567614 
L 228.87401 34.967549 
L 229.879341 34.420539 
L 230.89323 33.928785 
L 231.911594 33.49427 
L 232.930334 33.118741 
L 233.945346 32.803711 
L 234.952543 32.550449 
L 235.947871 32.359974 
L 236.927321 32.233054 
L 237.886949 32.170199 
L 238.822891 32.171663 
L 239.731379 32.237439 
L 240.608755 32.367263 
L 241.451484 32.560612 
L 242.256175 32.816708 
L 243.019587 33.134519 
L 243.738645 33.512765 
L 244.410455 33.949925 
L 245.032311 34.444236 
L 245.60171 34.993709 
L 246.116358 35.596131 
L 246.574184 36.249077 
L 246.973343 36.949917 
L 247.312229 37.69583 
L 247.589477 38.483811 
L 247.80397 39.310688 
L 247.954845 40.173132 
L 248.041495 41.067669 
L 248.06357 41.990698 
L 248.020981 42.938501 
L 247.913901 43.907263 
L 247.742759 44.893082 
L 247.508246 45.89199 
L 247.211306 46.899963 
L 246.853134 47.912943 
L 246.435173 48.926852 
L 245.959105 49.937605 
L 245.426847 50.941134 
L 244.840543 51.933398 
L 244.202554 52.910401 
L 243.515448 53.868209 
L 242.781993 54.802965 
L 242.005141 55.710906 
L 241.188021 56.588375 
L 240.333922 57.431839 
L 239.446285 58.237903 
L 238.528683 59.003319 
L 237.584812 59.725006 
L 236.618471 60.400058 
L 235.633552 61.025758 
L 234.634021 61.599584 
L 233.623902 62.119228 
L 232.607264 62.582596 
L 231.588199 62.987822 
L 230.570811 63.333275 
L 229.559197 63.617564 
L 228.55743 63.839544 
L 227.569543 63.998322 
L 226.599516 64.093257 
L 225.651253 64.123968 
L 224.728574 64.090331 
L 223.835192 63.992482 
L 222.974707 63.830814 
L 222.150582 63.605978 
L 221.366135 63.31888 
L 220.624527 62.970676 
L 219.928742 62.562768 
L 219.281583 62.096798 
L 218.685656 61.574643 
L 218.143359 60.998406 
L 217.656878 60.370405 
L 217.228169 59.693171 
L 216.858961 58.96943 
L 216.550739 58.202097 
L 216.304745 57.394261 
L 216.121968 56.549175 
L 216.003146 55.670243 
L 215.948757 54.761002 
L 215.959019 53.825115 
L 216.033891 52.866349 
L 216.173072 51.888566 
L 216.376001 50.895703 
L 216.641862 49.891757 
L 216.969583 48.880772 
L 217.357845 47.866817 
L 217.805085 46.853976 
L 218.309501 45.846327 
L 218.869064 44.847928 
L 219.481519 43.862799 
L 220.1444 42.894906 
L 220.855038 41.948147 
L 221.610572 41.026335 
L 222.40796 40.13318 
L 223.24399 39.27228 
" style="fill:none;stroke:#2ca02c;stroke-linecap:square;stroke-width:2;"/>
   </g>
   <g id="patch_7">
    <path d="M 166.131739 128.198261 
L 166.131739 16.801739 
" style="fill:none;stroke:#000000;stroke-linecap:square;stroke-linejoin:miter;stroke-width:0.8;"/>
   </g>
   <g id="patch_8">
    <path d="M 166.131739 128.198261 
L 277.528261 128.198261 
" style="fill:none;stroke:#000000;stroke-linecap:square;stroke-linejoin:miter;stroke-width:0.8;"/>
   </g>
   <g id="text_9">
    <!-- Modulate gain -->
    <defs>
     <path d="M 9.8125 72.90625 
L 24.515625 72.90625 
L 43.109375 23.296875 
L 61.8125 72.90625 
L 76.515625 72.90625 
L 76.515625 0 
L 66.890625 0 
L 66.890625 64.015625 
L 48.09375 14.015625 
L 38.1875 14.015625 
L 19.390625 64.015625 
L 19.390625 0 
L 9.8125 0 
z
" id="DejaVuSans-77"/>
     <path d="M 45.40625 46.390625 
L 45.40625 75.984375 
L 54.390625 75.984375 
L 54.390625 0 
L 45.40625 0 
L 45.40625 8.203125 
Q 42.578125 3.328125 38.25 0.953125 
Q 33.9375 -1.421875 27.875 -1.421875 
Q 17.96875 -1.421875 11.734375 6.484375 
Q 5.515625 14.40625 5.515625 27.296875 
Q 5.515625 40.1875 11.734375 48.09375 
Q 17.96875 56 27.875 56 
Q 33.9375 56 38.25 53.625 
Q 42.578125 51.265625 45.40625 46.390625 
z
M 14.796875 27.296875 
Q 14.796875 17.390625 18.875 11.75 
Q 22.953125 6.109375 30.078125 6.109375 
Q 37.203125 6.109375 41.296875 11.75 
Q 45.40625 17.390625 45.40625 27.296875 
Q 45.40625 37.203125 41.296875 42.84375 
Q 37.203125 48.484375 30.078125 48.484375 
Q 22.953125 48.484375 18.875 42.84375 
Q 14.796875 37.203125 14.796875 27.296875 
z
" id="DejaVuSans-100"/>
     <path d="M 56.203125 29.59375 
L 56.203125 25.203125 
L 14.890625 25.203125 
Q 15.484375 15.921875 20.484375 11.0625 
Q 25.484375 6.203125 34.421875 6.203125 
Q 39.59375 6.203125 44.453125 7.46875 
Q 49.3125 8.734375 54.109375 11.28125 
L 54.109375 2.78125 
Q 49.265625 0.734375 44.1875 -0.34375 
Q 39.109375 -1.421875 33.890625 -1.421875 
Q 20.796875 -1.421875 13.15625 6.1875 
Q 5.515625 13.8125 5.515625 26.8125 
Q 5.515625 40.234375 12.765625 48.109375 
Q 20.015625 56 32.328125 56 
Q 43.359375 56 49.78125 48.890625 
Q 56.203125 41.796875 56.203125 29.59375 
z
M 47.21875 32.234375 
Q 47.125 39.59375 43.09375 43.984375 
Q 39.0625 48.390625 32.421875 48.390625 
Q 24.90625 48.390625 20.390625 44.140625 
Q 15.875 39.890625 15.1875 32.171875 
z
" id="DejaVuSans-101"/>
     <path d="M 45.40625 27.984375 
Q 45.40625 37.75 41.375 43.109375 
Q 37.359375 48.484375 30.078125 48.484375 
Q 22.859375 48.484375 18.828125 43.109375 
Q 14.796875 37.75 14.796875 27.984375 
Q 14.796875 18.265625 18.828125 12.890625 
Q 22.859375 7.515625 30.078125 7.515625 
Q 37.359375 7.515625 41.375 12.890625 
Q 45.40625 18.265625 45.40625 27.984375 
z
M 54.390625 6.78125 
Q 54.390625 -7.171875 48.1875 -13.984375 
Q 42 -20.796875 29.203125 -20.796875 
Q 24.46875 -20.796875 20.265625 -20.09375 
Q 16.0625 -19.390625 12.109375 -17.921875 
L 12.109375 -9.1875 
Q 16.0625 -11.328125 19.921875 -12.34375 
Q 23.78125 -13.375 27.78125 -13.375 
Q 36.625 -13.375 41.015625 -8.765625 
Q 45.40625 -4.15625 45.40625 5.171875 
L 45.40625 9.625 
Q 42.625 4.78125 38.28125 2.390625 
Q 33.9375 0 27.875 0 
Q 17.828125 0 11.671875 7.65625 
Q 5.515625 15.328125 5.515625 27.984375 
Q 5.515625 40.671875 11.671875 48.328125 
Q 17.828125 56 27.875 56 
Q 33.9375 56 38.28125 53.609375 
Q 42.625 51.21875 45.40625 46.390625 
L 45.40625 54.6875 
L 54.390625 54.6875 
z
" id="DejaVuSans-103"/>
     <path d="M 54.890625 33.015625 
L 54.890625 0 
L 45.90625 0 
L 45.90625 32.71875 
Q 45.90625 40.484375 42.875 44.328125 
Q 39.84375 48.1875 33.796875 48.1875 
Q 26.515625 48.1875 22.3125 43.546875 
Q 18.109375 38.921875 18.109375 30.90625 
L 18.109375 0 
L 9.078125 0 
L 9.078125 54.6875 
L 18.109375 54.6875 
L 18.109375 46.1875 
Q 21.34375 51.125 25.703125 53.5625 
Q 30.078125 56 35.796875 56 
Q 45.21875 56 50.046875 50.171875 
Q 54.890625 44.34375 54.890625 33.015625 
z
" id="DejaVuSans-110"/>
    </defs>
    <g transform="translate(187.66225 10.801739)scale(0.096 -0.096)">
     <use xlink:href="#DejaVuSans-77"/>
     <use x="86.279297" xlink:href="#DejaVuSans-111"/>
     <use x="147.460938" xlink:href="#DejaVuSans-100"/>
     <use x="210.9375" xlink:href="#DejaVuSans-117"/>
     <use x="274.316406" xlink:href="#DejaVuSans-108"/>
     <use x="302.099609" xlink:href="#DejaVuSans-97"/>
     <use x="363.378906" xlink:href="#DejaVuSans-116"/>
     <use x="402.587891" xlink:href="#DejaVuSans-101"/>
     <use x="464.111328" xlink:href="#DejaVuSans-32"/>
     <use x="495.898438" xlink:href="#DejaVuSans-103"/>
     <use x="559.375" xlink:href="#DejaVuSans-97"/>
     <use x="620.654297" xlink:href="#DejaVuSans-105"/>
     <use x="648.4375" xlink:href="#DejaVuSans-110"/>
    </g>
   </g>
  </g>
  <g id="axes_3">
   <g id="patch_9">
    <path d="M 307.971739 128.198261 
L 419.368261 128.198261 
L 419.368261 16.801739 
L 307.971739 16.801739 
z
" style="fill:#ffffff;"/>
   </g>
   <g id="matplotlib.axis_5">
    <g id="text_10">
     <!-- Dim. 1 -->
     <g transform="translate(350.495 138.277011)scale(0.08 -0.08)">
      <use xlink:href="#DejaVuSans-68"/>
      <use x="77.001953" xlink:href="#DejaVuSans-105"/>
      <use x="104.785156" xlink:href="#DejaVuSans-109"/>
      <use x="202.197266" xlink:href="#DejaVuSans-46"/>
      <use x="233.984375" xlink:href="#DejaVuSans-32"/>
      <use x="265.771484" xlink:href="#DejaVuSans-49"/>
     </g>
    </g>
   </g>
   <g id="matplotlib.axis_6">
    <g id="text_11">
     <!-- Dim. 2 -->
     <g transform="translate(302.307989 85.675)rotate(-90)scale(0.08 -0.08)">
      <use xlink:href="#DejaVuSans-68"/>
      <use x="77.001953" xlink:href="#DejaVuSans-105"/>
      <use x="104.785156" xlink:href="#DejaVuSans-109"/>
      <use x="202.197266" xlink:href="#DejaVuSans-46"/>
      <use x="233.984375" xlink:href="#DejaVuSans-32"/>
      <use x="265.771484" xlink:href="#DejaVuSans-50"/>
     </g>
    </g>
   </g>
   <g id="line2d_13">
    <path clip-path="url(#p321738142f)" d="M 332.777457 73.642084 
L 333.454404 73.003766 
L 334.155992 72.395847 
L 334.879395 71.820775 
L 335.621701 71.280866 
L 336.37992 70.778294 
L 337.151 70.315082 
L 337.931834 69.893096 
L 338.719281 69.514035 
L 339.510168 69.179425 
L 340.30131 68.890614 
L 341.089523 68.648764 
L 341.871633 68.45485 
L 342.64449 68.309652 
L 343.404981 68.213755 
L 344.150046 68.167545 
L 344.876684 68.171208 
L 345.581968 68.224729 
L 346.263059 68.327893 
L 346.917215 68.480285 
L 347.541801 68.68129 
L 348.134303 68.9301 
L 348.692334 69.225712 
L 349.213648 69.566936 
L 349.696145 69.952399 
L 350.137883 70.380548 
L 350.537082 70.849659 
L 350.892136 71.357843 
L 351.201615 71.903054 
L 351.464273 72.483097 
L 351.679051 73.095635 
L 351.845086 73.738203 
L 351.961708 74.408213 
L 352.028448 75.102967 
L 352.045038 75.819668 
L 352.01141 76.555429 
L 351.927699 77.307288 
L 351.794244 78.072218 
L 351.611581 78.847138 
L 351.380446 79.628929 
L 351.101769 80.414442 
L 350.776673 81.200513 
L 350.406467 81.983979 
L 349.992641 82.761684 
L 349.536862 83.530497 
L 349.040965 84.287321 
L 348.506946 85.02911 
L 347.936957 85.752876 
L 347.333292 86.455706 
L 346.698382 87.134769 
L 346.034783 87.78733 
L 345.345168 88.410763 
L 344.632314 89.002556 
L 343.89909 89.560327 
L 343.14845 90.081831 
L 342.383415 90.564966 
L 341.607067 91.007788 
L 340.822532 91.408513 
L 340.032968 91.765528 
L 339.241554 92.077395 
L 338.451479 92.34286 
L 337.665922 92.560851 
L 336.888047 92.730493 
L 336.120987 92.851101 
L 335.367829 92.922191 
L 334.631608 92.943475 
L 333.915286 92.914868 
L 333.221749 92.836486 
L 332.553789 92.708644 
L 331.914096 92.531857 
L 331.305246 92.306836 
L 330.72969 92.034488 
L 330.189745 91.715909 
L 329.687587 91.352382 
L 329.225237 90.945371 
L 328.804556 90.496515 
L 328.42724 90.007622 
L 328.094806 89.480659 
L 327.808593 88.917749 
L 327.569755 88.321158 
L 327.379253 87.693289 
L 327.237853 87.036669 
L 327.146126 86.353943 
L 327.10444 85.647861 
L 327.112963 84.921264 
L 327.171662 84.177079 
L 327.2803 83.418302 
L 327.438438 82.647989 
L 327.645442 81.869242 
L 327.900476 81.085196 
L 328.202514 80.299008 
L 328.550341 79.513844 
L 328.942554 78.732865 
L 329.377576 77.959217 
L 329.853654 77.196014 
L 330.368871 76.44633 
L 330.921153 75.713183 
L 331.508276 74.999526 
L 332.127875 74.308232 
L 332.777457 73.642084 
" style="fill:none;stroke:#1f77b4;stroke-linecap:square;stroke-width:2;"/>
   </g>
   <g id="line2d_14">
    <path clip-path="url(#p321738142f)" d="M 345.48734 106.827248 
L 345.075859 106.383022 
L 344.707177 105.898586 
L 344.382777 105.37589 
L 344.103966 104.817039 
L 343.871867 104.224283 
L 343.687414 103.60001 
L 343.55135 102.946732 
L 343.464222 102.267081 
L 343.426382 101.563793 
L 343.437982 100.8397 
L 343.498976 100.097718 
L 343.609117 99.340834 
L 343.767962 98.572096 
L 343.974872 97.7946 
L 344.229013 97.011476 
L 344.529362 96.225878 
L 344.87471 95.440968 
L 345.263666 94.659908 
L 345.694664 93.885843 
L 346.165968 93.121889 
L 346.675681 92.371122 
L 347.22175 91.636566 
L 347.801976 90.921179 
L 348.414024 90.227841 
L 349.055428 89.559343 
L 349.723605 88.918379 
L 350.415866 88.307528 
L 351.129423 87.72925 
L 351.861402 87.185874 
L 352.608857 86.679588 
L 353.368777 86.212431 
L 354.138102 85.786283 
L 354.913735 85.40286 
L 355.692552 85.063707 
L 356.471418 84.770189 
L 357.247196 84.523488 
L 358.016763 84.324597 
L 358.777019 84.174317 
L 359.524903 84.073254 
L 360.257405 84.021814 
L 360.971573 84.020204 
L 361.664534 84.068432 
L 362.333496 84.166301 
L 362.975765 84.31342 
L 363.588756 84.509195 
L 364.170001 84.752837 
L 364.717158 85.043366 
L 365.228024 85.379613 
L 365.700543 85.760222 
L 366.132812 86.183662 
L 366.52309 86.648227 
L 366.869805 87.152046 
L 367.171563 87.693092 
L 367.427146 88.269186 
L 367.635528 88.878007 
L 367.795867 89.517104 
L 367.907519 90.183904 
L 367.970034 90.875722 
L 367.983161 91.589772 
L 367.946846 92.323179 
L 367.861235 93.072989 
L 367.726674 93.836184 
L 367.543705 94.609691 
L 367.313063 95.390394 
L 367.035678 96.17515 
L 366.712667 96.9608 
L 366.34533 97.744179 
L 365.935147 98.522133 
L 365.483769 99.29153 
L 364.993013 100.049272 
L 364.464856 100.792307 
L 363.901425 101.517644 
L 363.304987 102.222362 
L 362.677946 102.903622 
L 362.022825 103.558683 
L 361.342264 104.184906 
L 360.639001 104.77977 
L 359.915868 105.340879 
L 359.175779 105.865975 
L 358.421712 106.352942 
L 357.656705 106.799819 
L 356.883836 107.204809 
L 356.10622 107.566278 
L 355.326986 107.882773 
L 354.549272 108.153019 
L 353.776211 108.375927 
L 353.010914 108.5506 
L 352.256464 108.676335 
L 351.515898 108.752625 
L 350.792199 108.779163 
L 350.08828 108.755843 
L 349.406976 108.682758 
L 348.75103 108.560202 
L 348.123083 108.388669 
L 347.525665 108.16885 
L 346.96118 107.901629 
L 346.431902 107.588083 
L 345.939961 107.229475 
L 345.48734 106.827248 
" style="fill:none;stroke:#ff7f0e;stroke-linecap:square;stroke-width:2;"/>
   </g>
   <g id="line2d_15">
    <path clip-path="url(#p321738142f)" d="M 355.686658 56.020596 
L 356.354754 55.38737 
L 357.047652 54.784491 
L 357.762561 54.214388 
L 358.496603 53.679356 
L 359.246821 53.18155 
L 360.010194 52.722974 
L 360.78365 52.305474 
L 361.564073 51.930732 
L 362.348321 51.600257 
L 363.133237 51.315379 
L 363.915659 51.077246 
L 364.692436 50.886816 
L 365.460442 50.744856 
L 366.216584 50.651938 
L 366.957817 50.608435 
L 367.681156 50.614524 
L 368.383689 50.67018 
L 369.062586 50.775178 
L 369.715115 50.929096 
L 370.338647 51.131313 
L 370.930672 51.381016 
L 371.488806 51.6772 
L 372.010802 52.018671 
L 372.494558 52.404054 
L 372.938125 52.831799 
L 373.339718 53.300182 
L 373.697719 53.807317 
L 374.010688 54.351162 
L 374.277364 54.929528 
L 374.496673 55.540086 
L 374.667731 56.180376 
L 374.789851 56.847822 
L 374.86254 57.539734 
L 374.885507 58.253328 
L 374.858657 58.98573 
L 374.7821 59.73399 
L 374.656143 60.495096 
L 374.481295 61.265984 
L 374.258258 62.043548 
L 373.987931 62.824658 
L 373.671403 63.606168 
L 373.309948 64.384933 
L 372.905021 65.157815 
L 372.458254 65.921704 
L 371.971444 66.673522 
L 371.446552 67.410243 
L 370.885693 68.1289 
L 370.291123 68.8266 
L 369.665238 69.500532 
L 369.010557 70.147984 
L 368.329717 70.766348 
L 367.625459 71.353134 
L 366.900619 71.90598 
L 366.158115 72.422659 
L 365.400938 72.901091 
L 364.632136 73.33935 
L 363.854806 73.73567 
L 363.072076 74.088457 
L 362.287099 74.396288 
L 361.503036 74.657925 
L 360.723043 74.872315 
L 359.950262 75.038594 
L 359.187804 75.156092 
L 358.43874 75.224336 
L 357.706085 75.243052 
L 356.99279 75.212165 
L 356.301727 75.131797 
L 355.635679 75.002274 
L 354.997327 74.824117 
L 354.389242 74.598043 
L 353.813873 74.324962 
L 353.273536 74.005974 
L 352.770407 73.642364 
L 352.306512 73.235595 
L 351.883719 72.787306 
L 351.50373 72.299301 
L 351.168076 71.773546 
L 350.878108 71.212158 
L 350.634993 70.617397 
L 350.439711 69.991658 
L 350.293048 69.33746 
L 350.195595 68.657439 
L 350.147743 67.954331 
L 350.149686 67.230969 
L 350.201415 66.490265 
L 350.302723 65.735202 
L 350.453201 64.968819 
L 350.652244 64.194204 
L 350.89905 63.414474 
L 351.192625 62.63277 
L 351.531788 61.85224 
L 351.915172 61.076026 
L 352.341233 60.307253 
L 352.808257 59.549018 
L 353.314362 58.804374 
L 353.857511 58.076318 
L 354.435517 57.367783 
L 355.046052 56.681621 
L 355.686658 56.020596 
" style="fill:none;stroke:#2ca02c;stroke-linecap:square;stroke-width:2;"/>
   </g>
   <g id="patch_10">
    <path d="M 307.971739 128.198261 
L 307.971739 16.801739 
" style="fill:none;stroke:#000000;stroke-linecap:square;stroke-linejoin:miter;stroke-width:0.8;"/>
   </g>
   <g id="patch_11">
    <path d="M 307.971739 128.198261 
L 419.368261 128.198261 
" style="fill:none;stroke:#000000;stroke-linecap:square;stroke-linejoin:miter;stroke-width:0.8;"/>
   </g>
   <g id="text_12">
    <!-- Modulate variance -->
    <defs>
     <path d="M 2.984375 54.6875 
L 12.5 54.6875 
L 29.59375 8.796875 
L 46.6875 54.6875 
L 56.203125 54.6875 
L 35.6875 0 
L 23.484375 0 
z
" id="DejaVuSans-118"/>
     <path d="M 48.78125 52.59375 
L 48.78125 44.1875 
Q 44.96875 46.296875 41.140625 47.34375 
Q 37.3125 48.390625 33.40625 48.390625 
Q 24.65625 48.390625 19.8125 42.84375 
Q 14.984375 37.3125 14.984375 27.296875 
Q 14.984375 17.28125 19.8125 11.734375 
Q 24.65625 6.203125 33.40625 6.203125 
Q 37.3125 6.203125 41.140625 7.25 
Q 44.96875 8.296875 48.78125 10.40625 
L 48.78125 2.09375 
Q 45.015625 0.34375 40.984375 -0.53125 
Q 36.96875 -1.421875 32.421875 -1.421875 
Q 20.0625 -1.421875 12.78125 6.34375 
Q 5.515625 14.109375 5.515625 27.296875 
Q 5.515625 40.671875 12.859375 48.328125 
Q 20.21875 56 33.015625 56 
Q 37.15625 56 41.109375 55.140625 
Q 45.0625 54.296875 48.78125 52.59375 
z
" id="DejaVuSans-99"/>
    </defs>
    <g transform="translate(319.201 10.801739)scale(0.096 -0.096)">
     <use xlink:href="#DejaVuSans-77"/>
     <use x="86.279297" xlink:href="#DejaVuSans-111"/>
     <use x="147.460938" xlink:href="#DejaVuSans-100"/>
     <use x="210.9375" xlink:href="#DejaVuSans-117"/>
     <use x="274.316406" xlink:href="#DejaVuSans-108"/>
     <use x="302.099609" xlink:href="#DejaVuSans-97"/>
     <use x="363.378906" xlink:href="#DejaVuSans-116"/>
     <use x="402.587891" xlink:href="#DejaVuSans-101"/>
     <use x="464.111328" xlink:href="#DejaVuSans-32"/>
     <use x="495.898438" xlink:href="#DejaVuSans-118"/>
     <use x="555.078125" xlink:href="#DejaVuSans-97"/>
     <use x="616.357422" xlink:href="#DejaVuSans-114"/>
     <use x="657.470703" xlink:href="#DejaVuSans-105"/>
     <use x="685.253906" xlink:href="#DejaVuSans-97"/>
     <use x="746.533203" xlink:href="#DejaVuSans-110"/>
     <use x="809.912109" xlink:href="#DejaVuSans-99"/>
     <use x="864.892578" xlink:href="#DejaVuSans-101"/>
    </g>
   </g>
  </g>
  <g id="axes_4">
   <g id="patch_12">
    <path d="M 449.811739 128.198261 
L 561.208261 128.198261 
L 561.208261 16.801739 
L 449.811739 16.801739 
z
" style="fill:#ffffff;"/>
   </g>
   <g id="matplotlib.axis_7">
    <g id="text_13">
     <!-- Dim. 1 -->
     <g transform="translate(492.335 138.277011)scale(0.08 -0.08)">
      <use xlink:href="#DejaVuSans-68"/>
      <use x="77.001953" xlink:href="#DejaVuSans-105"/>
      <use x="104.785156" xlink:href="#DejaVuSans-109"/>
      <use x="202.197266" xlink:href="#DejaVuSans-46"/>
      <use x="233.984375" xlink:href="#DejaVuSans-32"/>
      <use x="265.771484" xlink:href="#DejaVuSans-49"/>
     </g>
    </g>
   </g>
   <g id="matplotlib.axis_8">
    <g id="text_14">
     <!-- Dim. 2 -->
     <g transform="translate(444.147989 85.675)rotate(-90)scale(0.08 -0.08)">
      <use xlink:href="#DejaVuSans-68"/>
      <use x="77.001953" xlink:href="#DejaVuSans-105"/>
      <use x="104.785156" xlink:href="#DejaVuSans-109"/>
      <use x="202.197266" xlink:href="#DejaVuSans-46"/>
      <use x="233.984375" xlink:href="#DejaVuSans-32"/>
      <use x="265.771484" xlink:href="#DejaVuSans-50"/>
     </g>
    </g>
   </g>
   <g id="line2d_16">
    <path clip-path="url(#p60f866399c)" d="M 481.454536 64.552054 
L 482.481383 64.561131 
L 483.50555 64.634627 
L 484.522913 64.772244 
L 485.529374 64.97343 
L 486.520882 65.237374 
L 487.493443 65.563013 
L 488.443142 65.949037 
L 489.366155 66.393889 
L 490.258764 66.895781 
L 491.117376 67.452689 
L 491.938534 68.062373 
L 492.71893 68.722376 
L 493.455422 69.430042 
L 494.145046 70.182521 
L 494.785023 70.976783 
L 495.372777 71.809629 
L 495.905942 72.677707 
L 496.38237 73.57752 
L 496.800143 74.505445 
L 497.157579 75.457747 
L 497.453238 76.43059 
L 497.685931 77.420057 
L 497.854719 78.422164 
L 497.958924 79.432876 
L 497.998126 80.448122 
L 497.972167 81.463816 
L 497.881151 82.475867 
L 497.725445 83.480199 
L 497.505676 84.47277 
L 497.222729 85.449581 
L 496.877744 86.406701 
L 496.472108 87.340274 
L 496.007457 88.246542 
L 495.485659 89.121855 
L 494.908818 89.962689 
L 494.279255 90.765659 
L 493.599506 91.52753 
L 492.872308 92.245235 
L 492.100588 92.915885 
L 491.287454 93.536778 
L 490.436181 94.105414 
L 489.550196 94.619505 
L 488.633067 95.076979 
L 487.688487 95.475995 
L 486.720259 95.814946 
L 485.732282 96.092467 
L 484.728534 96.307441 
L 483.713057 96.459001 
L 482.68994 96.546539 
L 481.663303 96.569701 
L 480.637279 96.528394 
L 479.616 96.422784 
L 478.603578 96.253297 
L 477.60409 96.020615 
L 476.621561 95.725675 
L 475.659947 95.369664 
L 474.723119 94.954017 
L 473.814851 94.480407 
L 472.938799 93.95074 
L 472.098492 93.36715 
L 471.297312 92.731987 
L 470.538485 92.047807 
L 469.825068 91.317367 
L 469.159933 90.543608 
L 468.545758 89.729644 
L 467.985016 88.878753 
L 467.479965 87.994363 
L 467.03264 87.080033 
L 466.64484 86.139446 
L 466.318128 85.176389 
L 466.053819 84.19474 
L 465.852977 83.198451 
L 465.716412 82.191535 
L 465.644672 81.178045 
L 465.638047 80.162064 
L 465.696564 79.147681 
L 465.819987 78.138981 
L 466.007819 77.140027 
L 466.259304 76.15484 
L 466.573428 75.187387 
L 466.948928 74.241565 
L 467.384291 73.321181 
L 467.877764 72.429942 
L 468.42736 71.571436 
L 469.030865 70.74912 
L 469.685851 69.966305 
L 470.389679 69.226145 
L 471.139516 68.531618 
L 471.932342 67.885521 
L 472.764964 67.290457 
L 473.634031 66.74882 
L 474.536042 66.262793 
L 475.467365 65.834333 
L 476.424251 65.465163 
L 477.402846 65.156772 
L 478.399211 64.910401 
L 479.409332 64.727041 
L 480.429142 64.607432 
L 481.454536 64.552054 
" style="fill:none;stroke:#1f77b4;stroke-linecap:square;stroke-width:2;"/>
   </g>
   <g id="line2d_17">
    <path clip-path="url(#p60f866399c)" d="M 502.152491 81.486977 
L 503.107991 81.810847 
L 504.041255 82.193819 
L 504.948525 82.634348 
L 505.826149 83.130663 
L 506.670592 83.680763 
L 507.478454 84.282435 
L 508.246482 84.933255 
L 508.971584 85.630603 
L 509.650839 86.371671 
L 510.281513 87.153474 
L 510.861066 87.972865 
L 511.387165 88.826544 
L 511.857691 89.711075 
L 512.270749 90.622894 
L 512.624676 91.558331 
L 512.918048 92.513619 
L 513.149682 93.484911 
L 513.318646 94.468297 
L 513.424259 95.459816 
L 513.466098 96.455476 
L 513.443992 97.451268 
L 513.358031 98.443182 
L 513.208561 99.427224 
L 512.996184 100.399432 
L 512.721755 101.35589 
L 512.386379 102.292748 
L 511.991407 103.206234 
L 511.538429 104.092668 
L 511.029269 104.948482 
L 510.465977 105.77023 
L 509.850822 106.554602 
L 509.186279 107.29844 
L 508.475026 107.998749 
L 507.719927 108.65271 
L 506.924021 109.257688 
L 506.090513 109.811249 
L 505.222761 110.311162 
L 504.324257 110.755415 
L 503.39862 111.142219 
L 502.449577 111.470016 
L 501.48095 111.737487 
L 500.496639 111.943555 
L 499.500607 112.087389 
L 498.496865 112.168412 
L 497.489455 112.186295 
L 496.482434 112.140968 
L 495.479855 112.032613 
L 494.485756 111.861666 
L 493.504141 111.628816 
L 492.538961 111.334999 
L 491.594104 110.9814 
L 490.673373 110.569442 
L 489.780476 110.100784 
L 488.919009 109.577313 
L 488.09244 109.001137 
L 487.304098 108.374576 
L 486.557157 107.700152 
L 485.854625 106.980582 
L 485.199331 106.218763 
L 484.593912 105.417763 
L 484.040808 104.580806 
L 483.542245 103.711264 
L 483.10023 102.812636 
L 482.716544 101.888543 
L 482.392732 100.942704 
L 482.130097 99.978929 
L 481.929697 99.001098 
L 481.792339 98.013148 
L 481.718576 97.019058 
L 481.708705 96.02283 
L 481.762766 95.028477 
L 481.88054 94.040001 
L 482.061555 93.061384 
L 482.30508 92.096565 
L 482.610136 91.149429 
L 482.975494 90.223792 
L 483.399683 89.323378 
L 483.880994 88.451815 
L 484.41749 87.612612 
L 485.007011 86.809148 
L 485.647182 86.044658 
L 486.335426 85.32222 
L 487.068972 84.644744 
L 487.844865 84.014958 
L 488.659982 83.435397 
L 489.511041 82.908395 
L 490.394614 82.436074 
L 491.307143 82.020336 
L 492.244955 81.662855 
L 493.204273 81.365071 
L 494.181234 81.128182 
L 495.171904 80.953143 
L 496.172295 80.840658 
L 497.178377 80.79118 
L 498.186101 80.804909 
L 499.191407 80.881789 
L 500.190249 81.02151 
L 501.178603 81.223511 
L 502.152491 81.486977 
" style="fill:none;stroke:#ff7f0e;stroke-linecap:square;stroke-width:2;"/>
   </g>
   <g id="line2d_18">
    <path clip-path="url(#p60f866399c)" d="M 501.190217 47.350538 
L 502.232716 47.204517 
L 503.281887 47.122506 
L 504.333505 47.104836 
L 505.383335 47.151577 
L 506.42715 47.262541 
L 507.460747 47.437281 
L 508.479963 47.675094 
L 509.480696 47.975022 
L 510.458916 48.335857 
L 511.410682 48.756147 
L 512.332164 49.234198 
L 513.21965 49.768087 
L 514.069567 50.355664 
L 514.878493 50.994561 
L 515.64317 51.682207 
L 516.36052 52.415834 
L 517.027653 53.192486 
L 517.641883 54.009036 
L 518.200738 54.862197 
L 518.701967 55.748533 
L 519.143551 56.664475 
L 519.523713 57.606336 
L 519.840921 58.570321 
L 520.093899 59.552551 
L 520.281627 60.549069 
L 520.403351 61.555864 
L 520.458579 62.56888 
L 520.447089 63.58404 
L 520.368928 64.597255 
L 520.22441 65.604445 
L 520.014118 66.601556 
L 519.738897 67.584571 
L 519.399857 68.549533 
L 518.998362 69.492556 
L 518.536029 70.409843 
L 518.01472 71.2977 
L 517.436534 72.152552 
L 516.803799 72.970957 
L 516.119063 73.74962 
L 515.385082 74.485405 
L 514.604814 75.175349 
L 513.781398 75.816675 
L 512.918152 76.406799 
L 512.01855 76.943347 
L 511.086216 77.424156 
L 510.124904 77.847291 
L 509.138483 78.211049 
L 508.130927 78.513964 
L 507.106293 78.754817 
L 506.068706 78.932638 
L 505.022344 79.046711 
L 503.97142 79.096577 
L 502.920167 79.082034 
L 501.872817 79.003142 
L 500.833588 78.860218 
L 499.806664 78.653838 
L 498.796181 78.384832 
L 497.806206 78.054284 
L 496.840727 77.663525 
L 495.903631 77.214128 
L 494.998692 76.707903 
L 494.129552 76.146888 
L 493.299713 75.533342 
L 492.512515 74.869736 
L 491.771129 74.158742 
L 491.078539 73.403222 
L 490.437534 72.60622 
L 489.850696 71.770943 
L 489.320387 70.900757 
L 488.848744 69.999164 
L 488.437664 69.069795 
L 488.088803 68.116392 
L 487.803566 67.142794 
L 487.583102 66.152921 
L 487.428298 65.15076 
L 487.339778 64.140346 
L 487.317898 63.125747 
L 487.362746 62.111049 
L 487.474141 61.100338 
L 487.651636 60.097682 
L 487.894515 59.107121 
L 488.2018 58.132642 
L 488.572254 57.178169 
L 489.004385 56.247545 
L 489.496454 55.344519 
L 490.046478 54.472725 
L 490.652244 53.635675 
L 491.311311 52.836739 
L 492.021027 52.079133 
L 492.778533 51.36591 
L 493.580779 50.699939 
L 494.424535 50.083904 
L 495.306403 49.520285 
L 496.222832 49.01135 
L 497.170132 48.55915 
L 498.144489 48.165505 
L 499.141979 47.832001 
L 500.158586 47.55998 
L 501.190217 47.350538 
" style="fill:none;stroke:#2ca02c;stroke-linecap:square;stroke-width:2;"/>
   </g>
   <g id="patch_13">
    <path d="M 449.811739 128.198261 
L 449.811739 16.801739 
" style="fill:none;stroke:#000000;stroke-linecap:square;stroke-linejoin:miter;stroke-width:0.8;"/>
   </g>
   <g id="patch_14">
    <path d="M 449.811739 128.198261 
L 561.208261 128.198261 
" style="fill:none;stroke:#000000;stroke-linecap:square;stroke-linejoin:miter;stroke-width:0.8;"/>
   </g>
   <g id="text_15">
    <!-- Modulate correlation -->
    <g transform="translate(455.76325 10.801739)scale(0.096 -0.096)">
     <use xlink:href="#DejaVuSans-77"/>
     <use x="86.279297" xlink:href="#DejaVuSans-111"/>
     <use x="147.460938" xlink:href="#DejaVuSans-100"/>
     <use x="210.9375" xlink:href="#DejaVuSans-117"/>
     <use x="274.316406" xlink:href="#DejaVuSans-108"/>
     <use x="302.099609" xlink:href="#DejaVuSans-97"/>
     <use x="363.378906" xlink:href="#DejaVuSans-116"/>
     <use x="402.587891" xlink:href="#DejaVuSans-101"/>
     <use x="464.111328" xlink:href="#DejaVuSans-32"/>
     <use x="495.898438" xlink:href="#DejaVuSans-99"/>
     <use x="550.878906" xlink:href="#DejaVuSans-111"/>
     <use x="612.060547" xlink:href="#DejaVuSans-114"/>
     <use x="653.158203" xlink:href="#DejaVuSans-114"/>
     <use x="694.240234" xlink:href="#DejaVuSans-101"/>
     <use x="755.763672" xlink:href="#DejaVuSans-108"/>
     <use x="783.546875" xlink:href="#DejaVuSans-97"/>
     <use x="844.826172" xlink:href="#DejaVuSans-116"/>
     <use x="884.035156" xlink:href="#DejaVuSans-105"/>
     <use x="911.818359" xlink:href="#DejaVuSans-111"/>
     <use x="973" xlink:href="#DejaVuSans-110"/>
    </g>
   </g>
  </g>
 </g>
 <defs>
  <clipPath id="p3f24ba8291">
   <rect height="111.396522" width="111.396522" x="24.291739" y="16.801739"/>
  </clipPath>
  <clipPath id="p37d5283de0">
   <rect height="111.396522" width="111.396522" x="166.131739" y="16.801739"/>
  </clipPath>
  <clipPath id="p321738142f">
   <rect height="111.396522" width="111.396522" x="307.971739" y="16.801739"/>
  </clipPath>
  <clipPath id="p60f866399c">
   <rect height="111.396522" width="111.396522" x="449.811739" y="16.801739"/>
  </clipPath>
 </defs>
</svg>
