<?xml version="1.0" encoding="utf-8" standalone="no"?>
<!DOCTYPE svg PUBLIC "-//W3C//DTD SVG 1.1//EN"
  "http://www.w3.org/Graphics/SVG/1.1/DTD/svg11.dtd">
<!-- Created with matplotlib (https://matplotlib.org/) -->
<svg height="360pt" version="1.1" viewBox="0 0 1152 360" width="1152pt" xmlns="http://www.w3.org/2000/svg" xmlns:xlink="http://www.w3.org/1999/xlink">
 <defs>
  <style type="text/css">
*{stroke-linecap:butt;stroke-linejoin:round;}
  </style>
 </defs>
 <g id="figure_1">
  <g id="patch_1">
   <path d="M 0 360 
L 1152 360 
L 1152 0 
L 0 0 
z
" style="fill:#ffffff;"/>
  </g>
  <g id="axes_1">
   <g id="patch_2">
    <path d="M 144 315 
L 406.588235 315 
L 406.588235 43.2 
L 144 43.2 
z
" style="fill:#ffffff;"/>
   </g>
   <g id="PathCollection_1">
    <defs>
     <path d="M 0 3 
C 0.795609 3 1.55874 2.683901 2.12132 2.12132 
C 2.683901 1.55874 3 0.795609 3 0 
C 3 -0.795609 2.683901 -1.55874 2.12132 -2.12132 
C 1.55874 -2.683901 0.795609 -3 0 -3 
C -0.795609 -3 -1.55874 -2.683901 -2.12132 -2.12132 
C -2.683901 -1.55874 -3 -0.795609 -3 0 
C -3 0.795609 -2.683901 1.55874 -2.12132 2.12132 
C -1.55874 2.683901 -0.795609 3 0 3 
z
" id="m9e2078b4fe" style="stroke:#ffffff;"/>
    </defs>
    <g clip-path="url(#p6b0222b9db)">
     <use style="fill:#1f77b4;stroke:#ffffff;" x="199.898629" xlink:href="#m9e2078b4fe" y="236.999915"/>
     <use style="fill:#1f77b4;stroke:#ffffff;" x="209.311198" xlink:href="#m9e2078b4fe" y="275.9028"/>
     <use style="fill:#1f77b4;stroke:#ffffff;" x="263.639344" xlink:href="#m9e2078b4fe" y="233.415796"/>
     <use style="fill:#1f77b4;stroke:#ffffff;" x="210.496127" xlink:href="#m9e2078b4fe" y="273.067103"/>
     <use style="fill:#1f77b4;stroke:#ffffff;" x="232.306391" xlink:href="#m9e2078b4fe" y="233.949055"/>
     <use style="fill:#1f77b4;stroke:#ffffff;" x="233.919663" xlink:href="#m9e2078b4fe" y="263.853304"/>
     <use style="fill:#1f77b4;stroke:#ffffff;" x="204.41966" xlink:href="#m9e2078b4fe" y="253.78225"/>
     <use style="fill:#1f77b4;stroke:#ffffff;" x="246.879773" xlink:href="#m9e2078b4fe" y="210.569091"/>
     <use style="fill:#1f77b4;stroke:#ffffff;" x="216.085613" xlink:href="#m9e2078b4fe" y="239.867275"/>
     <use style="fill:#1f77b4;stroke:#ffffff;" x="232.201619" xlink:href="#m9e2078b4fe" y="234.172236"/>
     <use style="fill:#1f77b4;stroke:#ffffff;" x="195.671059" xlink:href="#m9e2078b4fe" y="255.494964"/>
     <use style="fill:#1f77b4;stroke:#ffffff;" x="231.433283" xlink:href="#m9e2078b4fe" y="226.465505"/>
     <use style="fill:#1f77b4;stroke:#ffffff;" x="250.97721" xlink:href="#m9e2078b4fe" y="214.180535"/>
     <use style="fill:#1f77b4;stroke:#ffffff;" x="206.581291" xlink:href="#m9e2078b4fe" y="220.401572"/>
     <use style="fill:#1f77b4;stroke:#ffffff;" x="202.316855" xlink:href="#m9e2078b4fe" y="256.862203"/>
     <use style="fill:#1f77b4;stroke:#ffffff;" x="205.634452" xlink:href="#m9e2078b4fe" y="215.814046"/>
     <use style="fill:#1f77b4;stroke:#ffffff;" x="198.199175" xlink:href="#m9e2078b4fe" y="275.610556"/>
     <use style="fill:#1f77b4;stroke:#ffffff;" x="224.81503" xlink:href="#m9e2078b4fe" y="238.073644"/>
     <use style="fill:#1f77b4;stroke:#ffffff;" x="205.067806" xlink:href="#m9e2078b4fe" y="274.555236"/>
     <use style="fill:#1f77b4;stroke:#ffffff;" x="177.449576" xlink:href="#m9e2078b4fe" y="262.07436"/>
     <use style="fill:#1f77b4;stroke:#ffffff;" x="210.245994" xlink:href="#m9e2078b4fe" y="232.716798"/>
     <use style="fill:#1f77b4;stroke:#ffffff;" x="197.892781" xlink:href="#m9e2078b4fe" y="248.522892"/>
     <use style="fill:#1f77b4;stroke:#ffffff;" x="204.640275" xlink:href="#m9e2078b4fe" y="265.69507"/>
     <use style="fill:#1f77b4;stroke:#ffffff;" x="194.560265" xlink:href="#m9e2078b4fe" y="274.267763"/>
     <use style="fill:#1f77b4;stroke:#ffffff;" x="295.391199" xlink:href="#m9e2078b4fe" y="204.494281"/>
     <use style="fill:#1f77b4;stroke:#ffffff;" x="231.188662" xlink:href="#m9e2078b4fe" y="229.950852"/>
     <use style="fill:#1f77b4;stroke:#ffffff;" x="236.930277" xlink:href="#m9e2078b4fe" y="190.907778"/>
     <use style="fill:#1f77b4;stroke:#ffffff;" x="256.745613" xlink:href="#m9e2078b4fe" y="226.096355"/>
     <use style="fill:#1f77b4;stroke:#ffffff;" x="191.595194" xlink:href="#m9e2078b4fe" y="237.385512"/>
     <use style="fill:#1f77b4;stroke:#ffffff;" x="285.18527" xlink:href="#m9e2078b4fe" y="189.112794"/>
     <use style="fill:#1f77b4;stroke:#ffffff;" x="270.611997" xlink:href="#m9e2078b4fe" y="260.939283"/>
     <use style="fill:#1f77b4;stroke:#ffffff;" x="199.6181" xlink:href="#m9e2078b4fe" y="252.311937"/>
     <use style="fill:#1f77b4;stroke:#ffffff;" x="205.610623" xlink:href="#m9e2078b4fe" y="232.978339"/>
     <use style="fill:#1f77b4;stroke:#ffffff;" x="189.529446" xlink:href="#m9e2078b4fe" y="258.9088"/>
     <use style="fill:#1f77b4;stroke:#ffffff;" x="185.124444" xlink:href="#m9e2078b4fe" y="276.550051"/>
     <use style="fill:#1f77b4;stroke:#ffffff;" x="216.188698" xlink:href="#m9e2078b4fe" y="231.980079"/>
     <use style="fill:#1f77b4;stroke:#ffffff;" x="233.635375" xlink:href="#m9e2078b4fe" y="210.775015"/>
    </g>
   </g>
   <g id="PathCollection_2">
    <defs>
     <path d="M 0 5 
C 1.326016 5 2.597899 4.473168 3.535534 3.535534 
C 4.473168 2.597899 5 1.326016 5 0 
C 5 -1.326016 4.473168 -2.597899 3.535534 -3.535534 
C 2.597899 -4.473168 1.326016 -5 0 -5 
C -1.326016 -5 -2.597899 -4.473168 -3.535534 -3.535534 
C -4.473168 -2.597899 -5 -1.326016 -5 0 
C -5 1.326016 -4.473168 2.597899 -3.535534 3.535534 
C -2.597899 4.473168 -1.326016 5 0 5 
z
" id="m328a51d442" style="stroke:#ffffff;"/>
    </defs>
    <g clip-path="url(#p6b0222b9db)">
     <use style="fill:#ff7f0e;stroke:#ffffff;" x="220.324269" xlink:href="#m328a51d442" y="241.046082"/>
    </g>
   </g>
   <g id="matplotlib.axis_1">
    <g id="xtick_1">
     <g id="line2d_1">
      <defs>
       <path d="M 0 0 
L 0 3.5 
" id="m14b2f8491e" style="stroke:#000000;stroke-width:0.8;"/>
      </defs>
      <g>
       <use style="stroke:#000000;stroke-width:0.8;" x="155.935829" xlink:href="#m14b2f8491e" y="315"/>
      </g>
     </g>
     <g id="text_1">
      <!-- 0.0 -->
      <defs>
       <path d="M 31.78125 66.40625 
Q 24.171875 66.40625 20.328125 58.90625 
Q 16.5 51.421875 16.5 36.375 
Q 16.5 21.390625 20.328125 13.890625 
Q 24.171875 6.390625 31.78125 6.390625 
Q 39.453125 6.390625 43.28125 13.890625 
Q 47.125 21.390625 47.125 36.375 
Q 47.125 51.421875 43.28125 58.90625 
Q 39.453125 66.40625 31.78125 66.40625 
z
M 31.78125 74.21875 
Q 44.046875 74.21875 50.515625 64.515625 
Q 56.984375 54.828125 56.984375 36.375 
Q 56.984375 17.96875 50.515625 8.265625 
Q 44.046875 -1.421875 31.78125 -1.421875 
Q 19.53125 -1.421875 13.0625 8.265625 
Q 6.59375 17.96875 6.59375 36.375 
Q 6.59375 54.828125 13.0625 64.515625 
Q 19.53125 74.21875 31.78125 74.21875 
z
" id="DejaVuSans-48"/>
       <path d="M 10.6875 12.40625 
L 21 12.40625 
L 21 0 
L 10.6875 0 
z
" id="DejaVuSans-46"/>
      </defs>
      <g transform="translate(149.574579 328.07875)scale(0.08 -0.08)">
       <use xlink:href="#DejaVuSans-48"/>
       <use x="63.623047" xlink:href="#DejaVuSans-46"/>
       <use x="95.410156" xlink:href="#DejaVuSans-48"/>
      </g>
     </g>
    </g>
    <g id="xtick_2">
     <g id="line2d_2">
      <g>
       <use style="stroke:#000000;stroke-width:0.8;" x="203.679144" xlink:href="#m14b2f8491e" y="315"/>
      </g>
     </g>
     <g id="text_2">
      <!-- 0.2 -->
      <defs>
       <path d="M 19.1875 8.296875 
L 53.609375 8.296875 
L 53.609375 0 
L 7.328125 0 
L 7.328125 8.296875 
Q 12.9375 14.109375 22.625 23.890625 
Q 32.328125 33.6875 34.8125 36.53125 
Q 39.546875 41.84375 41.421875 45.53125 
Q 43.3125 49.21875 43.3125 52.78125 
Q 43.3125 58.59375 39.234375 62.25 
Q 35.15625 65.921875 28.609375 65.921875 
Q 23.96875 65.921875 18.8125 64.3125 
Q 13.671875 62.703125 7.8125 59.421875 
L 7.8125 69.390625 
Q 13.765625 71.78125 18.9375 73 
Q 24.125 74.21875 28.421875 74.21875 
Q 39.75 74.21875 46.484375 68.546875 
Q 53.21875 62.890625 53.21875 53.421875 
Q 53.21875 48.921875 51.53125 44.890625 
Q 49.859375 40.875 45.40625 35.40625 
Q 44.1875 33.984375 37.640625 27.21875 
Q 31.109375 20.453125 19.1875 8.296875 
z
" id="DejaVuSans-50"/>
      </defs>
      <g transform="translate(197.317894 328.07875)scale(0.08 -0.08)">
       <use xlink:href="#DejaVuSans-48"/>
       <use x="63.623047" xlink:href="#DejaVuSans-46"/>
       <use x="95.410156" xlink:href="#DejaVuSans-50"/>
      </g>
     </g>
    </g>
    <g id="xtick_3">
     <g id="line2d_3">
      <g>
       <use style="stroke:#000000;stroke-width:0.8;" x="251.42246" xlink:href="#m14b2f8491e" y="315"/>
      </g>
     </g>
     <g id="text_3">
      <!-- 0.4 -->
      <defs>
       <path d="M 37.796875 64.3125 
L 12.890625 25.390625 
L 37.796875 25.390625 
z
M 35.203125 72.90625 
L 47.609375 72.90625 
L 47.609375 25.390625 
L 58.015625 25.390625 
L 58.015625 17.1875 
L 47.609375 17.1875 
L 47.609375 0 
L 37.796875 0 
L 37.796875 17.1875 
L 4.890625 17.1875 
L 4.890625 26.703125 
z
" id="DejaVuSans-52"/>
      </defs>
      <g transform="translate(245.06121 328.07875)scale(0.08 -0.08)">
       <use xlink:href="#DejaVuSans-48"/>
       <use x="63.623047" xlink:href="#DejaVuSans-46"/>
       <use x="95.410156" xlink:href="#DejaVuSans-52"/>
      </g>
     </g>
    </g>
    <g id="xtick_4">
     <g id="line2d_4">
      <g>
       <use style="stroke:#000000;stroke-width:0.8;" x="299.165775" xlink:href="#m14b2f8491e" y="315"/>
      </g>
     </g>
     <g id="text_4">
      <!-- 0.6 -->
      <defs>
       <path d="M 33.015625 40.375 
Q 26.375 40.375 22.484375 35.828125 
Q 18.609375 31.296875 18.609375 23.390625 
Q 18.609375 15.53125 22.484375 10.953125 
Q 26.375 6.390625 33.015625 6.390625 
Q 39.65625 6.390625 43.53125 10.953125 
Q 47.40625 15.53125 47.40625 23.390625 
Q 47.40625 31.296875 43.53125 35.828125 
Q 39.65625 40.375 33.015625 40.375 
z
M 52.59375 71.296875 
L 52.59375 62.3125 
Q 48.875 64.0625 45.09375 64.984375 
Q 41.3125 65.921875 37.59375 65.921875 
Q 27.828125 65.921875 22.671875 59.328125 
Q 17.53125 52.734375 16.796875 39.40625 
Q 19.671875 43.65625 24.015625 45.921875 
Q 28.375 48.1875 33.59375 48.1875 
Q 44.578125 48.1875 50.953125 41.515625 
Q 57.328125 34.859375 57.328125 23.390625 
Q 57.328125 12.15625 50.6875 5.359375 
Q 44.046875 -1.421875 33.015625 -1.421875 
Q 20.359375 -1.421875 13.671875 8.265625 
Q 6.984375 17.96875 6.984375 36.375 
Q 6.984375 53.65625 15.1875 63.9375 
Q 23.390625 74.21875 37.203125 74.21875 
Q 40.921875 74.21875 44.703125 73.484375 
Q 48.484375 72.75 52.59375 71.296875 
z
" id="DejaVuSans-54"/>
      </defs>
      <g transform="translate(292.804525 328.07875)scale(0.08 -0.08)">
       <use xlink:href="#DejaVuSans-48"/>
       <use x="63.623047" xlink:href="#DejaVuSans-46"/>
       <use x="95.410156" xlink:href="#DejaVuSans-54"/>
      </g>
     </g>
    </g>
    <g id="xtick_5">
     <g id="line2d_5">
      <g>
       <use style="stroke:#000000;stroke-width:0.8;" x="346.909091" xlink:href="#m14b2f8491e" y="315"/>
      </g>
     </g>
     <g id="text_5">
      <!-- 0.8 -->
      <defs>
       <path d="M 31.78125 34.625 
Q 24.75 34.625 20.71875 30.859375 
Q 16.703125 27.09375 16.703125 20.515625 
Q 16.703125 13.921875 20.71875 10.15625 
Q 24.75 6.390625 31.78125 6.390625 
Q 38.8125 6.390625 42.859375 10.171875 
Q 46.921875 13.96875 46.921875 20.515625 
Q 46.921875 27.09375 42.890625 30.859375 
Q 38.875 34.625 31.78125 34.625 
z
M 21.921875 38.8125 
Q 15.578125 40.375 12.03125 44.71875 
Q 8.5 49.078125 8.5 55.328125 
Q 8.5 64.0625 14.71875 69.140625 
Q 20.953125 74.21875 31.78125 74.21875 
Q 42.671875 74.21875 48.875 69.140625 
Q 55.078125 64.0625 55.078125 55.328125 
Q 55.078125 49.078125 51.53125 44.71875 
Q 48 40.375 41.703125 38.8125 
Q 48.828125 37.15625 52.796875 32.3125 
Q 56.78125 27.484375 56.78125 20.515625 
Q 56.78125 9.90625 50.3125 4.234375 
Q 43.84375 -1.421875 31.78125 -1.421875 
Q 19.734375 -1.421875 13.25 4.234375 
Q 6.78125 9.90625 6.78125 20.515625 
Q 6.78125 27.484375 10.78125 32.3125 
Q 14.796875 37.15625 21.921875 38.8125 
z
M 18.3125 54.390625 
Q 18.3125 48.734375 21.84375 45.5625 
Q 25.390625 42.390625 31.78125 42.390625 
Q 38.140625 42.390625 41.71875 45.5625 
Q 45.3125 48.734375 45.3125 54.390625 
Q 45.3125 60.0625 41.71875 63.234375 
Q 38.140625 66.40625 31.78125 66.40625 
Q 25.390625 66.40625 21.84375 63.234375 
Q 18.3125 60.0625 18.3125 54.390625 
z
" id="DejaVuSans-56"/>
      </defs>
      <g transform="translate(340.547841 328.07875)scale(0.08 -0.08)">
       <use xlink:href="#DejaVuSans-48"/>
       <use x="63.623047" xlink:href="#DejaVuSans-46"/>
       <use x="95.410156" xlink:href="#DejaVuSans-56"/>
      </g>
     </g>
    </g>
    <g id="xtick_6">
     <g id="line2d_6">
      <g>
       <use style="stroke:#000000;stroke-width:0.8;" x="394.652406" xlink:href="#m14b2f8491e" y="315"/>
      </g>
     </g>
     <g id="text_6">
      <!-- 1.0 -->
      <defs>
       <path d="M 12.40625 8.296875 
L 28.515625 8.296875 
L 28.515625 63.921875 
L 10.984375 60.40625 
L 10.984375 69.390625 
L 28.421875 72.90625 
L 38.28125 72.90625 
L 38.28125 8.296875 
L 54.390625 8.296875 
L 54.390625 0 
L 12.40625 0 
z
" id="DejaVuSans-49"/>
      </defs>
      <g transform="translate(388.291156 328.07875)scale(0.08 -0.08)">
       <use xlink:href="#DejaVuSans-49"/>
       <use x="63.623047" xlink:href="#DejaVuSans-46"/>
       <use x="95.410156" xlink:href="#DejaVuSans-48"/>
      </g>
     </g>
    </g>
    <g id="text_7">
     <!-- Large pupil -->
     <defs>
      <path d="M 9.8125 72.90625 
L 19.671875 72.90625 
L 19.671875 8.296875 
L 55.171875 8.296875 
L 55.171875 0 
L 9.8125 0 
z
" id="DejaVuSans-76"/>
      <path d="M 34.28125 27.484375 
Q 23.390625 27.484375 19.1875 25 
Q 14.984375 22.515625 14.984375 16.5 
Q 14.984375 11.71875 18.140625 8.90625 
Q 21.296875 6.109375 26.703125 6.109375 
Q 34.1875 6.109375 38.703125 11.40625 
Q 43.21875 16.703125 43.21875 25.484375 
L 43.21875 27.484375 
z
M 52.203125 31.203125 
L 52.203125 0 
L 43.21875 0 
L 43.21875 8.296875 
Q 40.140625 3.328125 35.546875 0.953125 
Q 30.953125 -1.421875 24.3125 -1.421875 
Q 15.921875 -1.421875 10.953125 3.296875 
Q 6 8.015625 6 15.921875 
Q 6 25.140625 12.171875 29.828125 
Q 18.359375 34.515625 30.609375 34.515625 
L 43.21875 34.515625 
L 43.21875 35.40625 
Q 43.21875 41.609375 39.140625 45 
Q 35.0625 48.390625 27.6875 48.390625 
Q 23 48.390625 18.546875 47.265625 
Q 14.109375 46.140625 10.015625 43.890625 
L 10.015625 52.203125 
Q 14.9375 54.109375 19.578125 55.046875 
Q 24.21875 56 28.609375 56 
Q 40.484375 56 46.34375 49.84375 
Q 52.203125 43.703125 52.203125 31.203125 
z
" id="DejaVuSans-97"/>
      <path d="M 41.109375 46.296875 
Q 39.59375 47.171875 37.8125 47.578125 
Q 36.03125 48 33.890625 48 
Q 26.265625 48 22.1875 43.046875 
Q 18.109375 38.09375 18.109375 28.8125 
L 18.109375 0 
L 9.078125 0 
L 9.078125 54.6875 
L 18.109375 54.6875 
L 18.109375 46.1875 
Q 20.953125 51.171875 25.484375 53.578125 
Q 30.03125 56 36.53125 56 
Q 37.453125 56 38.578125 55.875 
Q 39.703125 55.765625 41.0625 55.515625 
z
" id="DejaVuSans-114"/>
      <path d="M 45.40625 27.984375 
Q 45.40625 37.75 41.375 43.109375 
Q 37.359375 48.484375 30.078125 48.484375 
Q 22.859375 48.484375 18.828125 43.109375 
Q 14.796875 37.75 14.796875 27.984375 
Q 14.796875 18.265625 18.828125 12.890625 
Q 22.859375 7.515625 30.078125 7.515625 
Q 37.359375 7.515625 41.375 12.890625 
Q 45.40625 18.265625 45.40625 27.984375 
z
M 54.390625 6.78125 
Q 54.390625 -7.171875 48.1875 -13.984375 
Q 42 -20.796875 29.203125 -20.796875 
Q 24.46875 -20.796875 20.265625 -20.09375 
Q 16.0625 -19.390625 12.109375 -17.921875 
L 12.109375 -9.1875 
Q 16.0625 -11.328125 19.921875 -12.34375 
Q 23.78125 -13.375 27.78125 -13.375 
Q 36.625 -13.375 41.015625 -8.765625 
Q 45.40625 -4.15625 45.40625 5.171875 
L 45.40625 9.625 
Q 42.625 4.78125 38.28125 2.390625 
Q 33.9375 0 27.875 0 
Q 17.828125 0 11.671875 7.65625 
Q 5.515625 15.328125 5.515625 27.984375 
Q 5.515625 40.671875 11.671875 48.328125 
Q 17.828125 56 27.875 56 
Q 33.9375 56 38.28125 53.609375 
Q 42.625 51.21875 45.40625 46.390625 
L 45.40625 54.6875 
L 54.390625 54.6875 
z
" id="DejaVuSans-103"/>
      <path d="M 56.203125 29.59375 
L 56.203125 25.203125 
L 14.890625 25.203125 
Q 15.484375 15.921875 20.484375 11.0625 
Q 25.484375 6.203125 34.421875 6.203125 
Q 39.59375 6.203125 44.453125 7.46875 
Q 49.3125 8.734375 54.109375 11.28125 
L 54.109375 2.78125 
Q 49.265625 0.734375 44.1875 -0.34375 
Q 39.109375 -1.421875 33.890625 -1.421875 
Q 20.796875 -1.421875 13.15625 6.1875 
Q 5.515625 13.8125 5.515625 26.8125 
Q 5.515625 40.234375 12.765625 48.109375 
Q 20.015625 56 32.328125 56 
Q 43.359375 56 49.78125 48.890625 
Q 56.203125 41.796875 56.203125 29.59375 
z
M 47.21875 32.234375 
Q 47.125 39.59375 43.09375 43.984375 
Q 39.0625 48.390625 32.421875 48.390625 
Q 24.90625 48.390625 20.390625 44.140625 
Q 15.875 39.890625 15.1875 32.171875 
z
" id="DejaVuSans-101"/>
      <path id="DejaVuSans-32"/>
      <path d="M 18.109375 8.203125 
L 18.109375 -20.796875 
L 9.078125 -20.796875 
L 9.078125 54.6875 
L 18.109375 54.6875 
L 18.109375 46.390625 
Q 20.953125 51.265625 25.265625 53.625 
Q 29.59375 56 35.59375 56 
Q 45.5625 56 51.78125 48.09375 
Q 58.015625 40.1875 58.015625 27.296875 
Q 58.015625 14.40625 51.78125 6.484375 
Q 45.5625 -1.421875 35.59375 -1.421875 
Q 29.59375 -1.421875 25.265625 0.953125 
Q 20.953125 3.328125 18.109375 8.203125 
z
M 48.6875 27.296875 
Q 48.6875 37.203125 44.609375 42.84375 
Q 40.53125 48.484375 33.40625 48.484375 
Q 26.265625 48.484375 22.1875 42.84375 
Q 18.109375 37.203125 18.109375 27.296875 
Q 18.109375 17.390625 22.1875 11.75 
Q 26.265625 6.109375 33.40625 6.109375 
Q 40.53125 6.109375 44.609375 11.75 
Q 48.6875 17.390625 48.6875 27.296875 
z
" id="DejaVuSans-112"/>
      <path d="M 8.5 21.578125 
L 8.5 54.6875 
L 17.484375 54.6875 
L 17.484375 21.921875 
Q 17.484375 14.15625 20.5 10.265625 
Q 23.53125 6.390625 29.59375 6.390625 
Q 36.859375 6.390625 41.078125 11.03125 
Q 45.3125 15.671875 45.3125 23.6875 
L 45.3125 54.6875 
L 54.296875 54.6875 
L 54.296875 0 
L 45.3125 0 
L 45.3125 8.40625 
Q 42.046875 3.421875 37.71875 1 
Q 33.40625 -1.421875 27.6875 -1.421875 
Q 18.265625 -1.421875 13.375 4.4375 
Q 8.5 10.296875 8.5 21.578125 
z
M 31.109375 56 
z
" id="DejaVuSans-117"/>
      <path d="M 9.421875 54.6875 
L 18.40625 54.6875 
L 18.40625 0 
L 9.421875 0 
z
M 9.421875 75.984375 
L 18.40625 75.984375 
L 18.40625 64.59375 
L 9.421875 64.59375 
z
" id="DejaVuSans-105"/>
      <path d="M 9.421875 75.984375 
L 18.40625 75.984375 
L 18.40625 0 
L 9.421875 0 
z
" id="DejaVuSans-108"/>
     </defs>
     <g transform="translate(252.862243 339.82125)scale(0.08 -0.08)">
      <use xlink:href="#DejaVuSans-76"/>
      <use x="55.712891" xlink:href="#DejaVuSans-97"/>
      <use x="116.992188" xlink:href="#DejaVuSans-114"/>
      <use x="158.089844" xlink:href="#DejaVuSans-103"/>
      <use x="221.566406" xlink:href="#DejaVuSans-101"/>
      <use x="283.089844" xlink:href="#DejaVuSans-32"/>
      <use x="314.876953" xlink:href="#DejaVuSans-112"/>
      <use x="378.353516" xlink:href="#DejaVuSans-117"/>
      <use x="441.732422" xlink:href="#DejaVuSans-112"/>
      <use x="505.208984" xlink:href="#DejaVuSans-105"/>
      <use x="532.992188" xlink:href="#DejaVuSans-108"/>
     </g>
    </g>
   </g>
   <g id="matplotlib.axis_2">
    <g id="ytick_1">
     <g id="line2d_7">
      <defs>
       <path d="M 0 0 
L -3.5 0 
" id="m4044c03d9e" style="stroke:#000000;stroke-width:0.8;"/>
      </defs>
      <g>
       <use style="stroke:#000000;stroke-width:0.8;" x="144" xlink:href="#m4044c03d9e" y="302.645455"/>
      </g>
     </g>
     <g id="text_8">
      <!-- 0.0 -->
      <g transform="translate(124.2775 305.68483)scale(0.08 -0.08)">
       <use xlink:href="#DejaVuSans-48"/>
       <use x="63.623047" xlink:href="#DejaVuSans-46"/>
       <use x="95.410156" xlink:href="#DejaVuSans-48"/>
      </g>
     </g>
    </g>
    <g id="ytick_2">
     <g id="line2d_8">
      <g>
       <use style="stroke:#000000;stroke-width:0.8;" x="144" xlink:href="#m4044c03d9e" y="253.227273"/>
      </g>
     </g>
     <g id="text_9">
      <!-- 0.2 -->
      <g transform="translate(124.2775 256.266648)scale(0.08 -0.08)">
       <use xlink:href="#DejaVuSans-48"/>
       <use x="63.623047" xlink:href="#DejaVuSans-46"/>
       <use x="95.410156" xlink:href="#DejaVuSans-50"/>
      </g>
     </g>
    </g>
    <g id="ytick_3">
     <g id="line2d_9">
      <g>
       <use style="stroke:#000000;stroke-width:0.8;" x="144" xlink:href="#m4044c03d9e" y="203.809091"/>
      </g>
     </g>
     <g id="text_10">
      <!-- 0.4 -->
      <g transform="translate(124.2775 206.848466)scale(0.08 -0.08)">
       <use xlink:href="#DejaVuSans-48"/>
       <use x="63.623047" xlink:href="#DejaVuSans-46"/>
       <use x="95.410156" xlink:href="#DejaVuSans-52"/>
      </g>
     </g>
    </g>
    <g id="ytick_4">
     <g id="line2d_10">
      <g>
       <use style="stroke:#000000;stroke-width:0.8;" x="144" xlink:href="#m4044c03d9e" y="154.390909"/>
      </g>
     </g>
     <g id="text_11">
      <!-- 0.6 -->
      <g transform="translate(124.2775 157.430284)scale(0.08 -0.08)">
       <use xlink:href="#DejaVuSans-48"/>
       <use x="63.623047" xlink:href="#DejaVuSans-46"/>
       <use x="95.410156" xlink:href="#DejaVuSans-54"/>
      </g>
     </g>
    </g>
    <g id="ytick_5">
     <g id="line2d_11">
      <g>
       <use style="stroke:#000000;stroke-width:0.8;" x="144" xlink:href="#m4044c03d9e" y="104.972727"/>
      </g>
     </g>
     <g id="text_12">
      <!-- 0.8 -->
      <g transform="translate(124.2775 108.012102)scale(0.08 -0.08)">
       <use xlink:href="#DejaVuSans-48"/>
       <use x="63.623047" xlink:href="#DejaVuSans-46"/>
       <use x="95.410156" xlink:href="#DejaVuSans-56"/>
      </g>
     </g>
    </g>
    <g id="ytick_6">
     <g id="line2d_12">
      <g>
       <use style="stroke:#000000;stroke-width:0.8;" x="144" xlink:href="#m4044c03d9e" y="55.554545"/>
      </g>
     </g>
     <g id="text_13">
      <!-- 1.0 -->
      <g transform="translate(124.2775 58.59392)scale(0.08 -0.08)">
       <use xlink:href="#DejaVuSans-49"/>
       <use x="63.623047" xlink:href="#DejaVuSans-46"/>
       <use x="95.410156" xlink:href="#DejaVuSans-48"/>
      </g>
     </g>
    </g>
    <g id="text_14">
     <!-- Small pupil -->
     <defs>
      <path d="M 53.515625 70.515625 
L 53.515625 60.890625 
Q 47.90625 63.578125 42.921875 64.890625 
Q 37.9375 66.21875 33.296875 66.21875 
Q 25.25 66.21875 20.875 63.09375 
Q 16.5 59.96875 16.5 54.203125 
Q 16.5 49.359375 19.40625 46.890625 
Q 22.3125 44.4375 30.421875 42.921875 
L 36.375 41.703125 
Q 47.40625 39.59375 52.65625 34.296875 
Q 57.90625 29 57.90625 20.125 
Q 57.90625 9.515625 50.796875 4.046875 
Q 43.703125 -1.421875 29.984375 -1.421875 
Q 24.8125 -1.421875 18.96875 -0.25 
Q 13.140625 0.921875 6.890625 3.21875 
L 6.890625 13.375 
Q 12.890625 10.015625 18.65625 8.296875 
Q 24.421875 6.59375 29.984375 6.59375 
Q 38.421875 6.59375 43.015625 9.90625 
Q 47.609375 13.234375 47.609375 19.390625 
Q 47.609375 24.75 44.3125 27.78125 
Q 41.015625 30.8125 33.5 32.328125 
L 27.484375 33.5 
Q 16.453125 35.6875 11.515625 40.375 
Q 6.59375 45.0625 6.59375 53.421875 
Q 6.59375 63.09375 13.40625 68.65625 
Q 20.21875 74.21875 32.171875 74.21875 
Q 37.3125 74.21875 42.625 73.28125 
Q 47.953125 72.359375 53.515625 70.515625 
z
" id="DejaVuSans-83"/>
      <path d="M 52 44.1875 
Q 55.375 50.25 60.0625 53.125 
Q 64.75 56 71.09375 56 
Q 79.640625 56 84.28125 50.015625 
Q 88.921875 44.046875 88.921875 33.015625 
L 88.921875 0 
L 79.890625 0 
L 79.890625 32.71875 
Q 79.890625 40.578125 77.09375 44.375 
Q 74.3125 48.1875 68.609375 48.1875 
Q 61.625 48.1875 57.5625 43.546875 
Q 53.515625 38.921875 53.515625 30.90625 
L 53.515625 0 
L 44.484375 0 
L 44.484375 32.71875 
Q 44.484375 40.625 41.703125 44.40625 
Q 38.921875 48.1875 33.109375 48.1875 
Q 26.21875 48.1875 22.15625 43.53125 
Q 18.109375 38.875 18.109375 30.90625 
L 18.109375 0 
L 9.078125 0 
L 9.078125 54.6875 
L 18.109375 54.6875 
L 18.109375 46.1875 
Q 21.1875 51.21875 25.484375 53.609375 
Q 29.78125 56 35.6875 56 
Q 41.65625 56 45.828125 52.96875 
Q 50 49.953125 52 44.1875 
z
" id="DejaVuSans-109"/>
     </defs>
     <g transform="translate(118.61375 201.316875)rotate(-90)scale(0.08 -0.08)">
      <use xlink:href="#DejaVuSans-83"/>
      <use x="63.476562" xlink:href="#DejaVuSans-109"/>
      <use x="160.888672" xlink:href="#DejaVuSans-97"/>
      <use x="222.167969" xlink:href="#DejaVuSans-108"/>
      <use x="249.951172" xlink:href="#DejaVuSans-108"/>
      <use x="277.734375" xlink:href="#DejaVuSans-32"/>
      <use x="309.521484" xlink:href="#DejaVuSans-112"/>
      <use x="372.998047" xlink:href="#DejaVuSans-117"/>
      <use x="436.376953" xlink:href="#DejaVuSans-112"/>
      <use x="499.853516" xlink:href="#DejaVuSans-105"/>
      <use x="527.636719" xlink:href="#DejaVuSans-108"/>
     </g>
    </g>
   </g>
   <g id="line2d_13">
    <path clip-path="url(#p6b0222b9db)" d="M 155.935829 302.645455 
L 394.652406 55.554545 
" style="fill:none;stroke:#000000;stroke-dasharray:5.55,2.4;stroke-dashoffset:0;stroke-width:1.5;"/>
   </g>
   <g id="patch_3">
    <path d="M 144 315 
L 144 43.2 
" style="fill:none;stroke:#000000;stroke-linecap:square;stroke-linejoin:miter;stroke-width:0.8;"/>
   </g>
   <g id="patch_4">
    <path d="M 144 315 
L 406.588235 315 
" style="fill:none;stroke:#000000;stroke-linecap:square;stroke-linejoin:miter;stroke-width:0.8;"/>
   </g>
   <g id="text_15">
    <!-- % sv -->
    <defs>
     <path d="M 72.703125 32.078125 
Q 68.453125 32.078125 66.03125 28.46875 
Q 63.625 24.859375 63.625 18.40625 
Q 63.625 12.0625 66.03125 8.421875 
Q 68.453125 4.78125 72.703125 4.78125 
Q 76.859375 4.78125 79.265625 8.421875 
Q 81.6875 12.0625 81.6875 18.40625 
Q 81.6875 24.8125 79.265625 28.4375 
Q 76.859375 32.078125 72.703125 32.078125 
z
M 72.703125 38.28125 
Q 80.421875 38.28125 84.953125 32.90625 
Q 89.5 27.546875 89.5 18.40625 
Q 89.5 9.28125 84.9375 3.921875 
Q 80.375 -1.421875 72.703125 -1.421875 
Q 64.890625 -1.421875 60.34375 3.921875 
Q 55.8125 9.28125 55.8125 18.40625 
Q 55.8125 27.59375 60.375 32.9375 
Q 64.9375 38.28125 72.703125 38.28125 
z
M 22.3125 68.015625 
Q 18.109375 68.015625 15.6875 64.375 
Q 13.28125 60.75 13.28125 54.390625 
Q 13.28125 47.953125 15.671875 44.328125 
Q 18.0625 40.71875 22.3125 40.71875 
Q 26.5625 40.71875 28.96875 44.328125 
Q 31.390625 47.953125 31.390625 54.390625 
Q 31.390625 60.6875 28.953125 64.34375 
Q 26.515625 68.015625 22.3125 68.015625 
z
M 66.40625 74.21875 
L 74.21875 74.21875 
L 28.609375 -1.421875 
L 20.796875 -1.421875 
z
M 22.3125 74.21875 
Q 30.03125 74.21875 34.609375 68.875 
Q 39.203125 63.53125 39.203125 54.390625 
Q 39.203125 45.171875 34.640625 39.84375 
Q 30.078125 34.515625 22.3125 34.515625 
Q 14.546875 34.515625 10.03125 39.859375 
Q 5.515625 45.21875 5.515625 54.390625 
Q 5.515625 63.484375 10.046875 68.84375 
Q 14.59375 74.21875 22.3125 74.21875 
z
" id="DejaVuSans-37"/>
     <path d="M 44.28125 53.078125 
L 44.28125 44.578125 
Q 40.484375 46.53125 36.375 47.5 
Q 32.28125 48.484375 27.875 48.484375 
Q 21.1875 48.484375 17.84375 46.4375 
Q 14.5 44.390625 14.5 40.28125 
Q 14.5 37.15625 16.890625 35.375 
Q 19.28125 33.59375 26.515625 31.984375 
L 29.59375 31.296875 
Q 39.15625 29.25 43.1875 25.515625 
Q 47.21875 21.78125 47.21875 15.09375 
Q 47.21875 7.46875 41.1875 3.015625 
Q 35.15625 -1.421875 24.609375 -1.421875 
Q 20.21875 -1.421875 15.453125 -0.5625 
Q 10.6875 0.296875 5.421875 2 
L 5.421875 11.28125 
Q 10.40625 8.6875 15.234375 7.390625 
Q 20.0625 6.109375 24.8125 6.109375 
Q 31.15625 6.109375 34.5625 8.28125 
Q 37.984375 10.453125 37.984375 14.40625 
Q 37.984375 18.0625 35.515625 20.015625 
Q 33.0625 21.96875 24.703125 23.78125 
L 21.578125 24.515625 
Q 13.234375 26.265625 9.515625 29.90625 
Q 5.8125 33.546875 5.8125 39.890625 
Q 5.8125 47.609375 11.28125 51.796875 
Q 16.75 56 26.8125 56 
Q 31.78125 56 36.171875 55.265625 
Q 40.578125 54.546875 44.28125 53.078125 
z
" id="DejaVuSans-115"/>
     <path d="M 2.984375 54.6875 
L 12.5 54.6875 
L 29.59375 8.796875 
L 46.6875 54.6875 
L 56.203125 54.6875 
L 35.6875 0 
L 23.484375 0 
z
" id="DejaVuSans-118"/>
    </defs>
    <g transform="translate(265.770993 37.2)scale(0.08 -0.08)">
     <use xlink:href="#DejaVuSans-37"/>
     <use x="95.019531" xlink:href="#DejaVuSans-32"/>
     <use x="126.806641" xlink:href="#DejaVuSans-115"/>
     <use x="178.90625" xlink:href="#DejaVuSans-118"/>
    </g>
   </g>
  </g>
  <g id="axes_2">
   <g id="patch_5">
    <path d="M 459.105882 315 
L 721.694118 315 
L 721.694118 43.2 
L 459.105882 43.2 
z
" style="fill:#ffffff;"/>
   </g>
   <g id="PathCollection_3">
    <g clip-path="url(#pd6a39e05f5)">
     <use style="fill:#1f77b4;stroke:#ffffff;" x="514.976208" xlink:href="#m9e2078b4fe" y="241.924833"/>
     <use style="fill:#1f77b4;stroke:#ffffff;" x="506.827681" xlink:href="#m9e2078b4fe" y="274.242967"/>
     <use style="fill:#1f77b4;stroke:#ffffff;" x="509.35305" xlink:href="#m9e2078b4fe" y="164.958737"/>
     <use style="fill:#1f77b4;stroke:#ffffff;" x="510.147251" xlink:href="#m9e2078b4fe" y="227.567642"/>
     <use style="fill:#1f77b4;stroke:#ffffff;" x="517.625066" xlink:href="#m9e2078b4fe" y="249.448803"/>
     <use style="fill:#1f77b4;stroke:#ffffff;" x="539.951556" xlink:href="#m9e2078b4fe" y="267.52337"/>
     <use style="fill:#1f77b4;stroke:#ffffff;" x="489.638846" xlink:href="#m9e2078b4fe" y="226.738009"/>
     <use style="fill:#1f77b4;stroke:#ffffff;" x="483.427525" xlink:href="#m9e2078b4fe" y="246.640706"/>
     <use style="fill:#1f77b4;stroke:#ffffff;" x="486.026648" xlink:href="#m9e2078b4fe" y="234.761953"/>
     <use style="fill:#1f77b4;stroke:#ffffff;" x="480.628598" xlink:href="#m9e2078b4fe" y="275.1692"/>
     <use style="fill:#1f77b4;stroke:#ffffff;" x="504.770727" xlink:href="#m9e2078b4fe" y="290.668007"/>
     <use style="fill:#1f77b4;stroke:#ffffff;" x="542.288517" xlink:href="#m9e2078b4fe" y="224.598017"/>
     <use style="fill:#1f77b4;stroke:#ffffff;" x="477.704729" xlink:href="#m9e2078b4fe" y="237.029576"/>
     <use style="fill:#1f77b4;stroke:#ffffff;" x="483.856444" xlink:href="#m9e2078b4fe" y="244.084711"/>
     <use style="fill:#1f77b4;stroke:#ffffff;" x="482.281686" xlink:href="#m9e2078b4fe" y="271.418248"/>
     <use style="fill:#1f77b4;stroke:#ffffff;" x="585.993486" xlink:href="#m9e2078b4fe" y="201.687301"/>
     <use style="fill:#1f77b4;stroke:#ffffff;" x="517.614284" xlink:href="#m9e2078b4fe" y="240.430651"/>
     <use style="fill:#1f77b4;stroke:#ffffff;" x="474.828467" xlink:href="#m9e2078b4fe" y="260.603685"/>
     <use style="fill:#1f77b4;stroke:#ffffff;" x="524.757353" xlink:href="#m9e2078b4fe" y="204.089803"/>
     <use style="fill:#1f77b4;stroke:#ffffff;" x="494.589624" xlink:href="#m9e2078b4fe" y="264.308664"/>
     <use style="fill:#1f77b4;stroke:#ffffff;" x="544.968472" xlink:href="#m9e2078b4fe" y="235.548181"/>
     <use style="fill:#1f77b4;stroke:#ffffff;" x="516.339168" xlink:href="#m9e2078b4fe" y="255.417385"/>
     <use style="fill:#1f77b4;stroke:#ffffff;" x="521.253472" xlink:href="#m9e2078b4fe" y="265.97545"/>
     <use style="fill:#1f77b4;stroke:#ffffff;" x="490.716066" xlink:href="#m9e2078b4fe" y="246.727324"/>
     <use style="fill:#1f77b4;stroke:#ffffff;" x="568.470718" xlink:href="#m9e2078b4fe" y="230.771315"/>
     <use style="fill:#1f77b4;stroke:#ffffff;" x="523.431898" xlink:href="#m9e2078b4fe" y="264.35947"/>
     <use style="fill:#1f77b4;stroke:#ffffff;" x="570.114469" xlink:href="#m9e2078b4fe" y="196.942678"/>
     <use style="fill:#1f77b4;stroke:#ffffff;" x="473.754858" xlink:href="#m9e2078b4fe" y="278.670619"/>
     <use style="fill:#1f77b4;stroke:#ffffff;" x="499.117559" xlink:href="#m9e2078b4fe" y="244.621824"/>
     <use style="fill:#1f77b4;stroke:#ffffff;" x="576.104608" xlink:href="#m9e2078b4fe" y="210.969746"/>
     <use style="fill:#1f77b4;stroke:#ffffff;" x="510.747719" xlink:href="#m9e2078b4fe" y="264.379958"/>
     <use style="fill:#1f77b4;stroke:#ffffff;" x="501.692143" xlink:href="#m9e2078b4fe" y="240.746004"/>
     <use style="fill:#1f77b4;stroke:#ffffff;" x="581.525116" xlink:href="#m9e2078b4fe" y="211.03031"/>
     <use style="fill:#1f77b4;stroke:#ffffff;" x="502.284712" xlink:href="#m9e2078b4fe" y="272.637603"/>
     <use style="fill:#1f77b4;stroke:#ffffff;" x="522.05013" xlink:href="#m9e2078b4fe" y="240.158159"/>
     <use style="fill:#1f77b4;stroke:#ffffff;" x="519.028409" xlink:href="#m9e2078b4fe" y="264.029799"/>
     <use style="fill:#1f77b4;stroke:#ffffff;" x="528.816377" xlink:href="#m9e2078b4fe" y="215.744393"/>
    </g>
   </g>
   <g id="PathCollection_4">
    <g clip-path="url(#pd6a39e05f5)">
     <use style="fill:#ff7f0e;stroke:#ffffff;" x="515.613612" xlink:href="#m328a51d442" y="242.88176"/>
    </g>
   </g>
   <g id="matplotlib.axis_3">
    <g id="xtick_7">
     <g id="line2d_14">
      <g>
       <use style="stroke:#000000;stroke-width:0.8;" x="472.278131" xlink:href="#m14b2f8491e" y="315"/>
      </g>
     </g>
     <g id="text_16">
      <!-- 0.0 -->
      <g transform="translate(465.916881 328.07875)scale(0.08 -0.08)">
       <use xlink:href="#DejaVuSans-48"/>
       <use x="63.623047" xlink:href="#DejaVuSans-46"/>
       <use x="95.410156" xlink:href="#DejaVuSans-48"/>
      </g>
     </g>
    </g>
    <g id="xtick_8">
     <g id="line2d_15">
      <g>
       <use style="stroke:#000000;stroke-width:0.8;" x="519.774162" xlink:href="#m14b2f8491e" y="315"/>
      </g>
     </g>
     <g id="text_17">
      <!-- 0.2 -->
      <g transform="translate(513.412912 328.07875)scale(0.08 -0.08)">
       <use xlink:href="#DejaVuSans-48"/>
       <use x="63.623047" xlink:href="#DejaVuSans-46"/>
       <use x="95.410156" xlink:href="#DejaVuSans-50"/>
      </g>
     </g>
    </g>
    <g id="xtick_9">
     <g id="line2d_16">
      <g>
       <use style="stroke:#000000;stroke-width:0.8;" x="567.270194" xlink:href="#m14b2f8491e" y="315"/>
      </g>
     </g>
     <g id="text_18">
      <!-- 0.4 -->
      <g transform="translate(560.908944 328.07875)scale(0.08 -0.08)">
       <use xlink:href="#DejaVuSans-48"/>
       <use x="63.623047" xlink:href="#DejaVuSans-46"/>
       <use x="95.410156" xlink:href="#DejaVuSans-52"/>
      </g>
     </g>
    </g>
    <g id="xtick_10">
     <g id="line2d_17">
      <g>
       <use style="stroke:#000000;stroke-width:0.8;" x="614.766226" xlink:href="#m14b2f8491e" y="315"/>
      </g>
     </g>
     <g id="text_19">
      <!-- 0.6 -->
      <g transform="translate(608.404976 328.07875)scale(0.08 -0.08)">
       <use xlink:href="#DejaVuSans-48"/>
       <use x="63.623047" xlink:href="#DejaVuSans-46"/>
       <use x="95.410156" xlink:href="#DejaVuSans-54"/>
      </g>
     </g>
    </g>
    <g id="xtick_11">
     <g id="line2d_18">
      <g>
       <use style="stroke:#000000;stroke-width:0.8;" x="662.262257" xlink:href="#m14b2f8491e" y="315"/>
      </g>
     </g>
     <g id="text_20">
      <!-- 0.8 -->
      <g transform="translate(655.901007 328.07875)scale(0.08 -0.08)">
       <use xlink:href="#DejaVuSans-48"/>
       <use x="63.623047" xlink:href="#DejaVuSans-46"/>
       <use x="95.410156" xlink:href="#DejaVuSans-56"/>
      </g>
     </g>
    </g>
    <g id="xtick_12">
     <g id="line2d_19">
      <g>
       <use style="stroke:#000000;stroke-width:0.8;" x="709.758289" xlink:href="#m14b2f8491e" y="315"/>
      </g>
     </g>
     <g id="text_21">
      <!-- 1.0 -->
      <g transform="translate(703.397039 328.07875)scale(0.08 -0.08)">
       <use xlink:href="#DejaVuSans-49"/>
       <use x="63.623047" xlink:href="#DejaVuSans-46"/>
       <use x="95.410156" xlink:href="#DejaVuSans-48"/>
      </g>
     </g>
    </g>
    <g id="text_22">
     <!-- Large pupil -->
     <g transform="translate(567.968125 339.82125)scale(0.08 -0.08)">
      <use xlink:href="#DejaVuSans-76"/>
      <use x="55.712891" xlink:href="#DejaVuSans-97"/>
      <use x="116.992188" xlink:href="#DejaVuSans-114"/>
      <use x="158.089844" xlink:href="#DejaVuSans-103"/>
      <use x="221.566406" xlink:href="#DejaVuSans-101"/>
      <use x="283.089844" xlink:href="#DejaVuSans-32"/>
      <use x="314.876953" xlink:href="#DejaVuSans-112"/>
      <use x="378.353516" xlink:href="#DejaVuSans-117"/>
      <use x="441.732422" xlink:href="#DejaVuSans-112"/>
      <use x="505.208984" xlink:href="#DejaVuSans-105"/>
      <use x="532.992188" xlink:href="#DejaVuSans-108"/>
     </g>
    </g>
   </g>
   <g id="matplotlib.axis_4">
    <g id="ytick_7">
     <g id="line2d_20">
      <g>
       <use style="stroke:#000000;stroke-width:0.8;" x="459.105882" xlink:href="#m4044c03d9e" y="302.645455"/>
      </g>
     </g>
     <g id="text_23">
      <!-- 0.0 -->
      <g transform="translate(439.383382 305.68483)scale(0.08 -0.08)">
       <use xlink:href="#DejaVuSans-48"/>
       <use x="63.623047" xlink:href="#DejaVuSans-46"/>
       <use x="95.410156" xlink:href="#DejaVuSans-48"/>
      </g>
     </g>
    </g>
    <g id="ytick_8">
     <g id="line2d_21">
      <g>
       <use style="stroke:#000000;stroke-width:0.8;" x="459.105882" xlink:href="#m4044c03d9e" y="253.227273"/>
      </g>
     </g>
     <g id="text_24">
      <!-- 0.2 -->
      <g transform="translate(439.383382 256.266648)scale(0.08 -0.08)">
       <use xlink:href="#DejaVuSans-48"/>
       <use x="63.623047" xlink:href="#DejaVuSans-46"/>
       <use x="95.410156" xlink:href="#DejaVuSans-50"/>
      </g>
     </g>
    </g>
    <g id="ytick_9">
     <g id="line2d_22">
      <g>
       <use style="stroke:#000000;stroke-width:0.8;" x="459.105882" xlink:href="#m4044c03d9e" y="203.809091"/>
      </g>
     </g>
     <g id="text_25">
      <!-- 0.4 -->
      <g transform="translate(439.383382 206.848466)scale(0.08 -0.08)">
       <use xlink:href="#DejaVuSans-48"/>
       <use x="63.623047" xlink:href="#DejaVuSans-46"/>
       <use x="95.410156" xlink:href="#DejaVuSans-52"/>
      </g>
     </g>
    </g>
    <g id="ytick_10">
     <g id="line2d_23">
      <g>
       <use style="stroke:#000000;stroke-width:0.8;" x="459.105882" xlink:href="#m4044c03d9e" y="154.390909"/>
      </g>
     </g>
     <g id="text_26">
      <!-- 0.6 -->
      <g transform="translate(439.383382 157.430284)scale(0.08 -0.08)">
       <use xlink:href="#DejaVuSans-48"/>
       <use x="63.623047" xlink:href="#DejaVuSans-46"/>
       <use x="95.410156" xlink:href="#DejaVuSans-54"/>
      </g>
     </g>
    </g>
    <g id="ytick_11">
     <g id="line2d_24">
      <g>
       <use style="stroke:#000000;stroke-width:0.8;" x="459.105882" xlink:href="#m4044c03d9e" y="104.972727"/>
      </g>
     </g>
     <g id="text_27">
      <!-- 0.8 -->
      <g transform="translate(439.383382 108.012102)scale(0.08 -0.08)">
       <use xlink:href="#DejaVuSans-48"/>
       <use x="63.623047" xlink:href="#DejaVuSans-46"/>
       <use x="95.410156" xlink:href="#DejaVuSans-56"/>
      </g>
     </g>
    </g>
    <g id="ytick_12">
     <g id="line2d_25">
      <g>
       <use style="stroke:#000000;stroke-width:0.8;" x="459.105882" xlink:href="#m4044c03d9e" y="55.554545"/>
      </g>
     </g>
     <g id="text_28">
      <!-- 1.0 -->
      <g transform="translate(439.383382 58.59392)scale(0.08 -0.08)">
       <use xlink:href="#DejaVuSans-49"/>
       <use x="63.623047" xlink:href="#DejaVuSans-46"/>
       <use x="95.410156" xlink:href="#DejaVuSans-48"/>
      </g>
     </g>
    </g>
    <g id="text_29">
     <!-- Small pupil -->
     <g transform="translate(433.719632 201.316875)rotate(-90)scale(0.08 -0.08)">
      <use xlink:href="#DejaVuSans-83"/>
      <use x="63.476562" xlink:href="#DejaVuSans-109"/>
      <use x="160.888672" xlink:href="#DejaVuSans-97"/>
      <use x="222.167969" xlink:href="#DejaVuSans-108"/>
      <use x="249.951172" xlink:href="#DejaVuSans-108"/>
      <use x="277.734375" xlink:href="#DejaVuSans-32"/>
      <use x="309.521484" xlink:href="#DejaVuSans-112"/>
      <use x="372.998047" xlink:href="#DejaVuSans-117"/>
      <use x="436.376953" xlink:href="#DejaVuSans-112"/>
      <use x="499.853516" xlink:href="#DejaVuSans-105"/>
      <use x="527.636719" xlink:href="#DejaVuSans-108"/>
     </g>
    </g>
   </g>
   <g id="line2d_26">
    <path clip-path="url(#pd6a39e05f5)" d="M 472.278131 302.645455 
L 709.758289 55.554545 
" style="fill:none;stroke:#000000;stroke-dasharray:5.55,2.4;stroke-dashoffset:0;stroke-width:1.5;"/>
   </g>
   <g id="patch_6">
    <path d="M 459.105882 315 
L 459.105882 43.2 
" style="fill:none;stroke:#000000;stroke-linecap:square;stroke-linejoin:miter;stroke-width:0.8;"/>
   </g>
   <g id="patch_7">
    <path d="M 459.105882 315 
L 721.694118 315 
" style="fill:none;stroke:#000000;stroke-linecap:square;stroke-linejoin:miter;stroke-width:0.8;"/>
   </g>
   <g id="text_30">
    <!-- Loading similarity -->
    <defs>
     <path d="M 30.609375 48.390625 
Q 23.390625 48.390625 19.1875 42.75 
Q 14.984375 37.109375 14.984375 27.296875 
Q 14.984375 17.484375 19.15625 11.84375 
Q 23.34375 6.203125 30.609375 6.203125 
Q 37.796875 6.203125 41.984375 11.859375 
Q 46.1875 17.53125 46.1875 27.296875 
Q 46.1875 37.015625 41.984375 42.703125 
Q 37.796875 48.390625 30.609375 48.390625 
z
M 30.609375 56 
Q 42.328125 56 49.015625 48.375 
Q 55.71875 40.765625 55.71875 27.296875 
Q 55.71875 13.875 49.015625 6.21875 
Q 42.328125 -1.421875 30.609375 -1.421875 
Q 18.84375 -1.421875 12.171875 6.21875 
Q 5.515625 13.875 5.515625 27.296875 
Q 5.515625 40.765625 12.171875 48.375 
Q 18.84375 56 30.609375 56 
z
" id="DejaVuSans-111"/>
     <path d="M 45.40625 46.390625 
L 45.40625 75.984375 
L 54.390625 75.984375 
L 54.390625 0 
L 45.40625 0 
L 45.40625 8.203125 
Q 42.578125 3.328125 38.25 0.953125 
Q 33.9375 -1.421875 27.875 -1.421875 
Q 17.96875 -1.421875 11.734375 6.484375 
Q 5.515625 14.40625 5.515625 27.296875 
Q 5.515625 40.1875 11.734375 48.09375 
Q 17.96875 56 27.875 56 
Q 33.9375 56 38.25 53.625 
Q 42.578125 51.265625 45.40625 46.390625 
z
M 14.796875 27.296875 
Q 14.796875 17.390625 18.875 11.75 
Q 22.953125 6.109375 30.078125 6.109375 
Q 37.203125 6.109375 41.296875 11.75 
Q 45.40625 17.390625 45.40625 27.296875 
Q 45.40625 37.203125 41.296875 42.84375 
Q 37.203125 48.484375 30.078125 48.484375 
Q 22.953125 48.484375 18.875 42.84375 
Q 14.796875 37.203125 14.796875 27.296875 
z
" id="DejaVuSans-100"/>
     <path d="M 54.890625 33.015625 
L 54.890625 0 
L 45.90625 0 
L 45.90625 32.71875 
Q 45.90625 40.484375 42.875 44.328125 
Q 39.84375 48.1875 33.796875 48.1875 
Q 26.515625 48.1875 22.3125 43.546875 
Q 18.109375 38.921875 18.109375 30.90625 
L 18.109375 0 
L 9.078125 0 
L 9.078125 54.6875 
L 18.109375 54.6875 
L 18.109375 46.1875 
Q 21.34375 51.125 25.703125 53.5625 
Q 30.078125 56 35.796875 56 
Q 45.21875 56 50.046875 50.171875 
Q 54.890625 44.34375 54.890625 33.015625 
z
" id="DejaVuSans-110"/>
     <path d="M 18.3125 70.21875 
L 18.3125 54.6875 
L 36.8125 54.6875 
L 36.8125 47.703125 
L 18.3125 47.703125 
L 18.3125 18.015625 
Q 18.3125 11.328125 20.140625 9.421875 
Q 21.96875 7.515625 27.59375 7.515625 
L 36.8125 7.515625 
L 36.8125 0 
L 27.59375 0 
Q 17.1875 0 13.234375 3.875 
Q 9.28125 7.765625 9.28125 18.015625 
L 9.28125 47.703125 
L 2.6875 47.703125 
L 2.6875 54.6875 
L 9.28125 54.6875 
L 9.28125 70.21875 
z
" id="DejaVuSans-116"/>
     <path d="M 32.171875 -5.078125 
Q 28.375 -14.84375 24.75 -17.8125 
Q 21.140625 -20.796875 15.09375 -20.796875 
L 7.90625 -20.796875 
L 7.90625 -13.28125 
L 13.1875 -13.28125 
Q 16.890625 -13.28125 18.9375 -11.515625 
Q 21 -9.765625 23.484375 -3.21875 
L 25.09375 0.875 
L 2.984375 54.6875 
L 12.5 54.6875 
L 29.59375 11.921875 
L 46.6875 54.6875 
L 56.203125 54.6875 
z
" id="DejaVuSans-121"/>
    </defs>
    <g transform="translate(554.820625 37.2)scale(0.08 -0.08)">
     <use xlink:href="#DejaVuSans-76"/>
     <use x="55.697266" xlink:href="#DejaVuSans-111"/>
     <use x="116.878906" xlink:href="#DejaVuSans-97"/>
     <use x="178.158203" xlink:href="#DejaVuSans-100"/>
     <use x="241.634766" xlink:href="#DejaVuSans-105"/>
     <use x="269.417969" xlink:href="#DejaVuSans-110"/>
     <use x="332.796875" xlink:href="#DejaVuSans-103"/>
     <use x="396.273438" xlink:href="#DejaVuSans-32"/>
     <use x="428.060547" xlink:href="#DejaVuSans-115"/>
     <use x="480.160156" xlink:href="#DejaVuSans-105"/>
     <use x="507.943359" xlink:href="#DejaVuSans-109"/>
     <use x="605.355469" xlink:href="#DejaVuSans-105"/>
     <use x="633.138672" xlink:href="#DejaVuSans-108"/>
     <use x="660.921875" xlink:href="#DejaVuSans-97"/>
     <use x="722.201172" xlink:href="#DejaVuSans-114"/>
     <use x="763.314453" xlink:href="#DejaVuSans-105"/>
     <use x="791.097656" xlink:href="#DejaVuSans-116"/>
     <use x="830.306641" xlink:href="#DejaVuSans-121"/>
    </g>
   </g>
  </g>
  <g id="axes_3">
   <g id="patch_8">
    <path d="M 774.211765 315 
L 1036.8 315 
L 1036.8 43.2 
L 774.211765 43.2 
z
" style="fill:#ffffff;"/>
   </g>
   <g id="PathCollection_5">
    <g clip-path="url(#pe6f3360a33)">
     <use style="fill:#1f77b4;stroke:#ffffff;" x="833.890909" xlink:href="#m9e2078b4fe" y="238.813636"/>
     <use style="fill:#1f77b4;stroke:#ffffff;" x="833.890909" xlink:href="#m9e2078b4fe" y="270.729545"/>
     <use style="fill:#1f77b4;stroke:#ffffff;" x="857.762567" xlink:href="#m9e2078b4fe" y="253.227273"/>
     <use style="fill:#1f77b4;stroke:#ffffff;" x="845.826738" xlink:href="#m9e2078b4fe" y="270.729545"/>
     <use style="fill:#1f77b4;stroke:#ffffff;" x="857.762567" xlink:href="#m9e2078b4fe" y="214.104545"/>
     <use style="fill:#1f77b4;stroke:#ffffff;" x="821.95508" xlink:href="#m9e2078b4fe" y="271.759091"/>
     <use style="fill:#1f77b4;stroke:#ffffff;" x="842.842781" xlink:href="#m9e2078b4fe" y="270.729545"/>
     <use style="fill:#1f77b4;stroke:#ffffff;" x="881.634225" xlink:href="#m9e2078b4fe" y="240.049091"/>
     <use style="fill:#1f77b4;stroke:#ffffff;" x="834.28877" xlink:href="#m9e2078b4fe" y="227.282727"/>
     <use style="fill:#1f77b4;stroke:#ffffff;" x="867.31123" xlink:href="#m9e2078b4fe" y="253.227273"/>
     <use style="fill:#1f77b4;stroke:#ffffff;" x="821.95508" xlink:href="#m9e2078b4fe" y="265.581818"/>
     <use style="fill:#1f77b4;stroke:#ffffff;" x="907.495187" xlink:href="#m9e2078b4fe" y="191.042727"/>
     <use style="fill:#1f77b4;stroke:#ffffff;" x="953.249198" xlink:href="#m9e2078b4fe" y="139.565455"/>
     <use style="fill:#1f77b4;stroke:#ffffff;" x="821.95508" xlink:href="#m9e2078b4fe" y="240.563864"/>
     <use style="fill:#1f77b4;stroke:#ffffff;" x="821.95508" xlink:href="#m9e2078b4fe" y="253.227273"/>
     <use style="fill:#1f77b4;stroke:#ffffff;" x="821.95508" xlink:href="#m9e2078b4fe" y="203.809091"/>
     <use style="fill:#1f77b4;stroke:#ffffff;" x="821.557219" xlink:href="#m9e2078b4fe" y="267.846818"/>
     <use style="fill:#1f77b4;stroke:#ffffff;" x="846.224599" xlink:href="#m9e2078b4fe" y="253.227273"/>
     <use style="fill:#1f77b4;stroke:#ffffff;" x="870.228877" xlink:href="#m9e2078b4fe" y="265.581818"/>
     <use style="fill:#1f77b4;stroke:#ffffff;" x="814.395722" xlink:href="#m9e2078b4fe" y="253.227273"/>
     <use style="fill:#1f77b4;stroke:#ffffff;" x="820.761497" xlink:href="#m9e2078b4fe" y="256.933636"/>
     <use style="fill:#1f77b4;stroke:#ffffff;" x="845.826738" xlink:href="#m9e2078b4fe" y="240.872727"/>
     <use style="fill:#1f77b4;stroke:#ffffff;" x="833.890909" xlink:href="#m9e2078b4fe" y="253.227273"/>
     <use style="fill:#1f77b4;stroke:#ffffff;" x="857.099465" xlink:href="#m9e2078b4fe" y="265.581818"/>
     <use style="fill:#1f77b4;stroke:#ffffff;" x="881.766845" xlink:href="#m9e2078b4fe" y="253.227273"/>
     <use style="fill:#1f77b4;stroke:#ffffff;" x="845.826738" xlink:href="#m9e2078b4fe" y="240.872727"/>
     <use style="fill:#1f77b4;stroke:#ffffff;" x="845.826738" xlink:href="#m9e2078b4fe" y="216.163636"/>
     <use style="fill:#1f77b4;stroke:#ffffff;" x="822.618182" xlink:href="#m9e2078b4fe" y="277.936364"/>
     <use style="fill:#1f77b4;stroke:#ffffff;" x="823.679144" xlink:href="#m9e2078b4fe" y="253.227273"/>
     <use style="fill:#1f77b4;stroke:#ffffff;" x="834.42139" xlink:href="#m9e2078b4fe" y="253.776364"/>
     <use style="fill:#1f77b4;stroke:#ffffff;" x="846.224599" xlink:href="#m9e2078b4fe" y="277.936364"/>
     <use style="fill:#1f77b4;stroke:#ffffff;" x="845.296257" xlink:href="#m9e2078b4fe" y="251.717273"/>
     <use style="fill:#1f77b4;stroke:#ffffff;" x="821.95508" xlink:href="#m9e2078b4fe" y="253.227273"/>
     <use style="fill:#1f77b4;stroke:#ffffff;" x="821.95508" xlink:href="#m9e2078b4fe" y="265.581818"/>
     <use style="fill:#1f77b4;stroke:#ffffff;" x="811.743316" xlink:href="#m9e2078b4fe" y="273.131818"/>
     <use style="fill:#1f77b4;stroke:#ffffff;" x="833.890909" xlink:href="#m9e2078b4fe" y="227.694545"/>
     <use style="fill:#1f77b4;stroke:#ffffff;" x="875.40107" xlink:href="#m9e2078b4fe" y="191.454545"/>
    </g>
   </g>
   <g id="PathCollection_6">
    <g clip-path="url(#pe6f3360a33)">
     <use style="fill:#ff7f0e;stroke:#ffffff;" x="844.495158" xlink:href="#m328a51d442" y="245.861849"/>
    </g>
   </g>
   <g id="matplotlib.axis_5">
    <g id="xtick_13">
     <g id="line2d_27">
      <g>
       <use style="stroke:#000000;stroke-width:0.8;" x="786.147594" xlink:href="#m14b2f8491e" y="315"/>
      </g>
     </g>
     <g id="text_31">
      <!-- 0.0 -->
      <g transform="translate(779.786344 328.07875)scale(0.08 -0.08)">
       <use xlink:href="#DejaVuSans-48"/>
       <use x="63.623047" xlink:href="#DejaVuSans-46"/>
       <use x="95.410156" xlink:href="#DejaVuSans-48"/>
      </g>
     </g>
    </g>
    <g id="xtick_14">
     <g id="line2d_28">
      <g>
       <use style="stroke:#000000;stroke-width:0.8;" x="815.987166" xlink:href="#m14b2f8491e" y="315"/>
      </g>
     </g>
     <g id="text_32">
      <!-- 2.5 -->
      <defs>
       <path d="M 10.796875 72.90625 
L 49.515625 72.90625 
L 49.515625 64.59375 
L 19.828125 64.59375 
L 19.828125 46.734375 
Q 21.96875 47.46875 24.109375 47.828125 
Q 26.265625 48.1875 28.421875 48.1875 
Q 40.625 48.1875 47.75 41.5 
Q 54.890625 34.8125 54.890625 23.390625 
Q 54.890625 11.625 47.5625 5.09375 
Q 40.234375 -1.421875 26.90625 -1.421875 
Q 22.3125 -1.421875 17.546875 -0.640625 
Q 12.796875 0.140625 7.71875 1.703125 
L 7.71875 11.625 
Q 12.109375 9.234375 16.796875 8.0625 
Q 21.484375 6.890625 26.703125 6.890625 
Q 35.15625 6.890625 40.078125 11.328125 
Q 45.015625 15.765625 45.015625 23.390625 
Q 45.015625 31 40.078125 35.4375 
Q 35.15625 39.890625 26.703125 39.890625 
Q 22.75 39.890625 18.8125 39.015625 
Q 14.890625 38.140625 10.796875 36.28125 
z
" id="DejaVuSans-53"/>
      </defs>
      <g transform="translate(809.625916 328.07875)scale(0.08 -0.08)">
       <use xlink:href="#DejaVuSans-50"/>
       <use x="63.623047" xlink:href="#DejaVuSans-46"/>
       <use x="95.410156" xlink:href="#DejaVuSans-53"/>
      </g>
     </g>
    </g>
    <g id="xtick_15">
     <g id="line2d_29">
      <g>
       <use style="stroke:#000000;stroke-width:0.8;" x="845.826738" xlink:href="#m14b2f8491e" y="315"/>
      </g>
     </g>
     <g id="text_33">
      <!-- 5.0 -->
      <g transform="translate(839.465488 328.07875)scale(0.08 -0.08)">
       <use xlink:href="#DejaVuSans-53"/>
       <use x="63.623047" xlink:href="#DejaVuSans-46"/>
       <use x="95.410156" xlink:href="#DejaVuSans-48"/>
      </g>
     </g>
    </g>
    <g id="xtick_16">
     <g id="line2d_30">
      <g>
       <use style="stroke:#000000;stroke-width:0.8;" x="875.66631" xlink:href="#m14b2f8491e" y="315"/>
      </g>
     </g>
     <g id="text_34">
      <!-- 7.5 -->
      <defs>
       <path d="M 8.203125 72.90625 
L 55.078125 72.90625 
L 55.078125 68.703125 
L 28.609375 0 
L 18.3125 0 
L 43.21875 64.59375 
L 8.203125 64.59375 
z
" id="DejaVuSans-55"/>
      </defs>
      <g transform="translate(869.30506 328.07875)scale(0.08 -0.08)">
       <use xlink:href="#DejaVuSans-55"/>
       <use x="63.623047" xlink:href="#DejaVuSans-46"/>
       <use x="95.410156" xlink:href="#DejaVuSans-53"/>
      </g>
     </g>
    </g>
    <g id="xtick_17">
     <g id="line2d_31">
      <g>
       <use style="stroke:#000000;stroke-width:0.8;" x="905.505882" xlink:href="#m14b2f8491e" y="315"/>
      </g>
     </g>
     <g id="text_35">
      <!-- 10.0 -->
      <g transform="translate(896.599632 328.07875)scale(0.08 -0.08)">
       <use xlink:href="#DejaVuSans-49"/>
       <use x="63.623047" xlink:href="#DejaVuSans-48"/>
       <use x="127.246094" xlink:href="#DejaVuSans-46"/>
       <use x="159.033203" xlink:href="#DejaVuSans-48"/>
      </g>
     </g>
    </g>
    <g id="xtick_18">
     <g id="line2d_32">
      <g>
       <use style="stroke:#000000;stroke-width:0.8;" x="935.345455" xlink:href="#m14b2f8491e" y="315"/>
      </g>
     </g>
     <g id="text_36">
      <!-- 12.5 -->
      <g transform="translate(926.439205 328.07875)scale(0.08 -0.08)">
       <use xlink:href="#DejaVuSans-49"/>
       <use x="63.623047" xlink:href="#DejaVuSans-50"/>
       <use x="127.246094" xlink:href="#DejaVuSans-46"/>
       <use x="159.033203" xlink:href="#DejaVuSans-53"/>
      </g>
     </g>
    </g>
    <g id="xtick_19">
     <g id="line2d_33">
      <g>
       <use style="stroke:#000000;stroke-width:0.8;" x="965.185027" xlink:href="#m14b2f8491e" y="315"/>
      </g>
     </g>
     <g id="text_37">
      <!-- 15.0 -->
      <g transform="translate(956.278777 328.07875)scale(0.08 -0.08)">
       <use xlink:href="#DejaVuSans-49"/>
       <use x="63.623047" xlink:href="#DejaVuSans-53"/>
       <use x="127.246094" xlink:href="#DejaVuSans-46"/>
       <use x="159.033203" xlink:href="#DejaVuSans-48"/>
      </g>
     </g>
    </g>
    <g id="xtick_20">
     <g id="line2d_34">
      <g>
       <use style="stroke:#000000;stroke-width:0.8;" x="995.024599" xlink:href="#m14b2f8491e" y="315"/>
      </g>
     </g>
     <g id="text_38">
      <!-- 17.5 -->
      <g transform="translate(986.118349 328.07875)scale(0.08 -0.08)">
       <use xlink:href="#DejaVuSans-49"/>
       <use x="63.623047" xlink:href="#DejaVuSans-55"/>
       <use x="127.246094" xlink:href="#DejaVuSans-46"/>
       <use x="159.033203" xlink:href="#DejaVuSans-53"/>
      </g>
     </g>
    </g>
    <g id="xtick_21">
     <g id="line2d_35">
      <g>
       <use style="stroke:#000000;stroke-width:0.8;" x="1024.864171" xlink:href="#m14b2f8491e" y="315"/>
      </g>
     </g>
     <g id="text_39">
      <!-- 20.0 -->
      <g transform="translate(1015.957921 328.07875)scale(0.08 -0.08)">
       <use xlink:href="#DejaVuSans-50"/>
       <use x="63.623047" xlink:href="#DejaVuSans-48"/>
       <use x="127.246094" xlink:href="#DejaVuSans-46"/>
       <use x="159.033203" xlink:href="#DejaVuSans-48"/>
      </g>
     </g>
    </g>
    <g id="text_40">
     <!-- Large pupil -->
     <g transform="translate(883.074007 339.82125)scale(0.08 -0.08)">
      <use xlink:href="#DejaVuSans-76"/>
      <use x="55.712891" xlink:href="#DejaVuSans-97"/>
      <use x="116.992188" xlink:href="#DejaVuSans-114"/>
      <use x="158.089844" xlink:href="#DejaVuSans-103"/>
      <use x="221.566406" xlink:href="#DejaVuSans-101"/>
      <use x="283.089844" xlink:href="#DejaVuSans-32"/>
      <use x="314.876953" xlink:href="#DejaVuSans-112"/>
      <use x="378.353516" xlink:href="#DejaVuSans-117"/>
      <use x="441.732422" xlink:href="#DejaVuSans-112"/>
      <use x="505.208984" xlink:href="#DejaVuSans-105"/>
      <use x="532.992188" xlink:href="#DejaVuSans-108"/>
     </g>
    </g>
   </g>
   <g id="matplotlib.axis_6">
    <g id="ytick_13">
     <g id="line2d_36">
      <g>
       <use style="stroke:#000000;stroke-width:0.8;" x="774.211765" xlink:href="#m4044c03d9e" y="302.645455"/>
      </g>
     </g>
     <g id="text_41">
      <!-- 0.0 -->
      <g transform="translate(754.489265 305.68483)scale(0.08 -0.08)">
       <use xlink:href="#DejaVuSans-48"/>
       <use x="63.623047" xlink:href="#DejaVuSans-46"/>
       <use x="95.410156" xlink:href="#DejaVuSans-48"/>
      </g>
     </g>
    </g>
    <g id="ytick_14">
     <g id="line2d_37">
      <g>
       <use style="stroke:#000000;stroke-width:0.8;" x="774.211765" xlink:href="#m4044c03d9e" y="271.759091"/>
      </g>
     </g>
     <g id="text_42">
      <!-- 2.5 -->
      <g transform="translate(754.489265 274.798466)scale(0.08 -0.08)">
       <use xlink:href="#DejaVuSans-50"/>
       <use x="63.623047" xlink:href="#DejaVuSans-46"/>
       <use x="95.410156" xlink:href="#DejaVuSans-53"/>
      </g>
     </g>
    </g>
    <g id="ytick_15">
     <g id="line2d_38">
      <g>
       <use style="stroke:#000000;stroke-width:0.8;" x="774.211765" xlink:href="#m4044c03d9e" y="240.872727"/>
      </g>
     </g>
     <g id="text_43">
      <!-- 5.0 -->
      <g transform="translate(754.489265 243.912102)scale(0.08 -0.08)">
       <use xlink:href="#DejaVuSans-53"/>
       <use x="63.623047" xlink:href="#DejaVuSans-46"/>
       <use x="95.410156" xlink:href="#DejaVuSans-48"/>
      </g>
     </g>
    </g>
    <g id="ytick_16">
     <g id="line2d_39">
      <g>
       <use style="stroke:#000000;stroke-width:0.8;" x="774.211765" xlink:href="#m4044c03d9e" y="209.986364"/>
      </g>
     </g>
     <g id="text_44">
      <!-- 7.5 -->
      <g transform="translate(754.489265 213.025739)scale(0.08 -0.08)">
       <use xlink:href="#DejaVuSans-55"/>
       <use x="63.623047" xlink:href="#DejaVuSans-46"/>
       <use x="95.410156" xlink:href="#DejaVuSans-53"/>
      </g>
     </g>
    </g>
    <g id="ytick_17">
     <g id="line2d_40">
      <g>
       <use style="stroke:#000000;stroke-width:0.8;" x="774.211765" xlink:href="#m4044c03d9e" y="179.1"/>
      </g>
     </g>
     <g id="text_45">
      <!-- 10.0 -->
      <g transform="translate(749.399265 182.139375)scale(0.08 -0.08)">
       <use xlink:href="#DejaVuSans-49"/>
       <use x="63.623047" xlink:href="#DejaVuSans-48"/>
       <use x="127.246094" xlink:href="#DejaVuSans-46"/>
       <use x="159.033203" xlink:href="#DejaVuSans-48"/>
      </g>
     </g>
    </g>
    <g id="ytick_18">
     <g id="line2d_41">
      <g>
       <use style="stroke:#000000;stroke-width:0.8;" x="774.211765" xlink:href="#m4044c03d9e" y="148.213636"/>
      </g>
     </g>
     <g id="text_46">
      <!-- 12.5 -->
      <g transform="translate(749.399265 151.253011)scale(0.08 -0.08)">
       <use xlink:href="#DejaVuSans-49"/>
       <use x="63.623047" xlink:href="#DejaVuSans-50"/>
       <use x="127.246094" xlink:href="#DejaVuSans-46"/>
       <use x="159.033203" xlink:href="#DejaVuSans-53"/>
      </g>
     </g>
    </g>
    <g id="ytick_19">
     <g id="line2d_42">
      <g>
       <use style="stroke:#000000;stroke-width:0.8;" x="774.211765" xlink:href="#m4044c03d9e" y="117.327273"/>
      </g>
     </g>
     <g id="text_47">
      <!-- 15.0 -->
      <g transform="translate(749.399265 120.366648)scale(0.08 -0.08)">
       <use xlink:href="#DejaVuSans-49"/>
       <use x="63.623047" xlink:href="#DejaVuSans-53"/>
       <use x="127.246094" xlink:href="#DejaVuSans-46"/>
       <use x="159.033203" xlink:href="#DejaVuSans-48"/>
      </g>
     </g>
    </g>
    <g id="ytick_20">
     <g id="line2d_43">
      <g>
       <use style="stroke:#000000;stroke-width:0.8;" x="774.211765" xlink:href="#m4044c03d9e" y="86.440909"/>
      </g>
     </g>
     <g id="text_48">
      <!-- 17.5 -->
      <g transform="translate(749.399265 89.480284)scale(0.08 -0.08)">
       <use xlink:href="#DejaVuSans-49"/>
       <use x="63.623047" xlink:href="#DejaVuSans-55"/>
       <use x="127.246094" xlink:href="#DejaVuSans-46"/>
       <use x="159.033203" xlink:href="#DejaVuSans-53"/>
      </g>
     </g>
    </g>
    <g id="ytick_21">
     <g id="line2d_44">
      <g>
       <use style="stroke:#000000;stroke-width:0.8;" x="774.211765" xlink:href="#m4044c03d9e" y="55.554545"/>
      </g>
     </g>
     <g id="text_49">
      <!-- 20.0 -->
      <g transform="translate(749.399265 58.59392)scale(0.08 -0.08)">
       <use xlink:href="#DejaVuSans-50"/>
       <use x="63.623047" xlink:href="#DejaVuSans-48"/>
       <use x="127.246094" xlink:href="#DejaVuSans-46"/>
       <use x="159.033203" xlink:href="#DejaVuSans-48"/>
      </g>
     </g>
    </g>
    <g id="text_50">
     <!-- Small pupil -->
     <g transform="translate(743.735515 201.316875)rotate(-90)scale(0.08 -0.08)">
      <use xlink:href="#DejaVuSans-83"/>
      <use x="63.476562" xlink:href="#DejaVuSans-109"/>
      <use x="160.888672" xlink:href="#DejaVuSans-97"/>
      <use x="222.167969" xlink:href="#DejaVuSans-108"/>
      <use x="249.951172" xlink:href="#DejaVuSans-108"/>
      <use x="277.734375" xlink:href="#DejaVuSans-32"/>
      <use x="309.521484" xlink:href="#DejaVuSans-112"/>
      <use x="372.998047" xlink:href="#DejaVuSans-117"/>
      <use x="436.376953" xlink:href="#DejaVuSans-112"/>
      <use x="499.853516" xlink:href="#DejaVuSans-105"/>
      <use x="527.636719" xlink:href="#DejaVuSans-108"/>
     </g>
    </g>
   </g>
   <g id="line2d_45">
    <path clip-path="url(#pe6f3360a33)" d="M 786.147594 302.645455 
L 1024.864171 55.554545 
" style="fill:none;stroke:#000000;stroke-dasharray:5.55,2.4;stroke-dashoffset:0;stroke-width:1.5;"/>
   </g>
   <g id="patch_9">
    <path d="M 774.211765 315 
L 774.211765 43.2 
" style="fill:none;stroke:#000000;stroke-linecap:square;stroke-linejoin:miter;stroke-width:0.8;"/>
   </g>
   <g id="patch_10">
    <path d="M 774.211765 315 
L 1036.8 315 
" style="fill:none;stroke:#000000;stroke-linecap:square;stroke-linejoin:miter;stroke-width:0.8;"/>
   </g>
   <g id="text_51">
    <!-- nDim -->
    <defs>
     <path d="M 19.671875 64.796875 
L 19.671875 8.109375 
L 31.59375 8.109375 
Q 46.6875 8.109375 53.6875 14.9375 
Q 60.6875 21.78125 60.6875 36.53125 
Q 60.6875 51.171875 53.6875 57.984375 
Q 46.6875 64.796875 31.59375 64.796875 
z
M 9.8125 72.90625 
L 30.078125 72.90625 
Q 51.265625 72.90625 61.171875 64.09375 
Q 71.09375 55.28125 71.09375 36.53125 
Q 71.09375 17.671875 61.125 8.828125 
Q 51.171875 0 30.078125 0 
L 9.8125 0 
z
" id="DejaVuSans-68"/>
    </defs>
    <g transform="translate(894.883382 37.2)scale(0.08 -0.08)">
     <use xlink:href="#DejaVuSans-110"/>
     <use x="63.378906" xlink:href="#DejaVuSans-68"/>
     <use x="140.380859" xlink:href="#DejaVuSans-105"/>
     <use x="168.164062" xlink:href="#DejaVuSans-109"/>
    </g>
   </g>
  </g>
 </g>
 <defs>
  <clipPath id="p6b0222b9db">
   <rect height="271.8" width="262.588235" x="144" y="43.2"/>
  </clipPath>
  <clipPath id="pd6a39e05f5">
   <rect height="271.8" width="262.588235" x="459.105882" y="43.2"/>
  </clipPath>
  <clipPath id="pe6f3360a33">
   <rect height="271.8" width="262.588235" x="774.211765" y="43.2"/>
  </clipPath>
 </defs>
</svg>
